<svg width="38" height="34" viewBox="0 0 38 34" fill="none" xmlns="http://www.w3.org/2000/svg">
<path d="M29.4781 14.8337L27.7453 9.66575C27.4939 8.91332 27.0104 8.25878 26.3635 7.79513C25.7166 7.33148 24.9391 7.0823 24.1416 7.08301H12.5921C11.7946 7.0823 11.0172 7.33148 10.3702 7.79513C9.72332 8.25878 9.23983 8.91332 8.98846 9.66575L7.25566 14.8337C6.79488 15.0254 6.40137 15.3482 6.12461 15.7616C5.84785 16.175 5.70019 16.6605 5.7002 17.1571V23.4534C5.7002 24.3827 6.21193 25.1861 6.96686 25.6231V28.4904C6.96686 28.8244 7.10031 29.1447 7.33786 29.3808C7.57541 29.617 7.89759 29.7497 8.23353 29.7497H9.5002C9.83614 29.7497 10.1583 29.617 10.3959 29.3808C10.6334 29.1447 10.7669 28.8244 10.7669 28.4904V25.9719H25.9669V28.4904C25.9669 28.8244 26.1003 29.1447 26.3379 29.3808C26.5754 29.617 26.8976 29.7497 27.2335 29.7497H28.5002C28.8361 29.7497 29.1583 29.617 29.3959 29.3808C29.6334 29.1447 29.7669 28.8244 29.7669 28.4904V25.6231C30.1512 25.404 30.4706 25.0881 30.693 24.7072C30.9153 24.3262 31.0328 23.8938 31.0335 23.4534V17.1571C31.0335 16.6605 30.8859 16.175 30.6091 15.7616C30.3324 15.3482 29.9388 15.0254 29.4781 14.8337ZM12.5921 9.60153H24.1403C24.6863 9.60153 25.1701 9.94656 25.3424 10.4629L26.7433 14.6386H9.9904L11.3901 10.4629C11.4741 10.212 11.6354 9.99382 11.8512 9.83922C12.0669 9.68462 12.3262 9.60146 12.5921 9.60153ZM10.1335 22.1941C9.88393 22.194 9.6368 22.1451 9.40624 22.05C9.17567 21.955 8.96619 21.8158 8.78976 21.6402C8.61333 21.4647 8.4734 21.2564 8.37796 21.0271C8.28252 20.7978 8.23345 20.5521 8.23353 20.304C8.23361 20.0558 8.28286 19.8101 8.37845 19.5809C8.47404 19.3517 8.61411 19.1435 8.79066 18.9681C8.96721 18.7927 9.17678 18.6536 9.40741 18.5587C9.63803 18.4638 9.8852 18.415 10.1348 18.4151C10.6389 18.4152 11.1222 18.6145 11.4786 18.969C11.8349 19.3234 12.035 19.8041 12.0348 20.3052C12.0346 20.8064 11.8342 21.2869 11.4777 21.6411C11.1211 21.9954 10.6376 22.1943 10.1335 22.1941ZM26.6002 22.1941C26.3506 22.194 26.1035 22.1451 25.8729 22.05C25.6423 21.955 25.4329 21.8158 25.2564 21.6402C25.08 21.4647 24.9401 21.2564 24.8446 21.0271C24.7492 20.7978 24.7001 20.5521 24.7002 20.304C24.7003 20.0558 24.7495 19.8101 24.8451 19.5809C24.9407 19.3517 25.0808 19.1435 25.2573 18.9681C25.4339 18.7927 25.6434 18.6536 25.8741 18.5587C26.1047 18.4638 26.3519 18.415 26.6015 18.4151C27.1055 18.4152 27.5889 18.6145 27.9452 18.969C28.3015 19.3234 28.5016 19.8041 28.5015 20.3052C28.5013 20.8064 28.3009 21.2869 27.9443 21.6411C27.5878 21.9954 27.1043 22.1943 26.6002 22.1941Z" fill="#223A60"/>
</svg>
