<?xml version="1.0" encoding="utf-8"?>
<!-- Generator: Adobe Illustrator 27.5.0, SVG Export Plug-In . SVG Version: 6.00 Build 0)  -->
<svg version="1.1" id="Layer_1" xmlns="http://www.w3.org/2000/svg" xmlns:xlink="http://www.w3.org/1999/xlink" x="0px" y="0px"
	 viewBox="0 0 3150 2000" style="enable-background:new 0 0 3150 2000;" xml:space="preserve">
<rect x="0" style="fill:#FFFFFF;" width="3150" height="2000"/>
<g>
	<g>
		<g>
			<g>
				<g>
					<g>
						<path style="fill:#3F9896;" d="M1831.28,441.487c0,0,86.85-144.664,296.472-107.913
							C2127.752,333.573,1987.404,543.195,1831.28,441.487z"/>
					</g>
				</g>
			</g>
		</g>
		<g>
			<g>
				<g>
					<g>
						<path style="fill:#A5DBC1;" d="M1695.036,480.047c0,0,25.061-289.491,377.206-391.047
							C2072.243,89,2013.49,519.438,1695.036,480.047z"/>
					</g>
				</g>
			</g>
		</g>
	</g>
	<path style="fill:#FDEACF;" d="M357.314,1832.312H2721.2c447.698-558.986,122.544-1229.807-521.621-1324.576
		c-509.334-74.932-487.49-391.458-951.338-331.833c-691.392,88.875-1027.105,619.8-1060.238,1016.813
		C153.593,1605.02,294.55,1777.072,357.314,1832.312z"/>
	<g>
		<g>
			<rect x="1369.935" y="705.531" style="fill:#49263E;" width="322.931" height="33.429"/>
		</g>
		<g>
			<path style="fill:#49263E;" d="M1648.371,803.599h-83.868h-5.54v-42.25h-6.817v42.25h-5.54h-83.868
				c-6.32,0-11.439,5.123-11.439,11.439l11.045,36.912c2.314,5.93,7.574,12.243,17.042,12.243h67.22h17.896h67.221
				c9.468,0,14.727-6.313,17.042-12.243l11.045-36.912C1659.811,808.722,1654.691,803.599,1648.371,803.599z"/>
		</g>
		<g>
			<path style="fill:#223749;" d="M2128.014,1282.059H1726.56c-4.81-3.346-23.781-19.126-15.371-55.171
				c9.594-41.118,54.823-190.511,86.347-205.587c31.523-15.076,85.438-17.013,129.751-19.755
				c44.313,2.741,98.228,4.678,129.751,19.755c31.523,15.077,76.753,164.47,86.347,205.587
				C2151.795,1262.933,2132.825,1278.713,2128.014,1282.059z"/>
		</g>
		<g>
			<path style="fill:#223749;" d="M936.214,1278.554h401.454c4.81-3.346,23.781-19.126,15.371-55.171
				c-9.594-41.118-54.823-190.511-86.347-205.587s-85.438-17.013-129.751-19.755c-44.313,2.741-98.228,4.678-129.751,19.755
				c-31.523,15.076-76.753,164.47-86.347,205.587C912.433,1259.428,931.404,1275.208,936.214,1278.554z"/>
		</g>
		<g>
			<g>
				<path style="fill:#FEBAC7;" d="M882.728,1262.025c0,0,61.219-119.698,104.164-143.454s127.007-30.153,161.729-28.325
					c34.721,1.827,140.713-0.914,182.744,28.325c42.031,29.239,96.854,134.317,96.854,134.317s-192.795,136.145-224.776,127.007
					C1171.464,1370.758,882.728,1262.025,882.728,1262.025z"/>
			</g>
			<g>
				<path d="M883.415,1262.377l-1.373-0.703c0.613-1.198,61.82-120.181,104.477-143.778
					c43.106-23.845,126.885-30.277,162.143-28.419c5.471,0.288,12.768,0.463,21.219,0.667
					c44.153,1.062,126.339,3.039,161.925,27.794c41.703,29.011,96.548,133.541,97.098,134.594l-1.367,0.713
					c-0.549-1.049-55.218-105.246-96.612-134.041c-35.206-24.491-117.089-26.46-161.081-27.52
					c-8.462-0.203-15.771-0.379-21.263-0.668c-35.098-1.844-118.482,4.534-161.315,28.23
					C945.017,1142.617,884.026,1261.182,883.415,1262.377z"/>
			</g>
			<g>
				<path style="fill:#FE9F73;" d="M1067.89,1094.369c0,0,38.139,38.148,87.585,39.975c49.446,1.827,91.82-40.09,91.82-40.09
					S1158.376,1080.396,1067.89,1094.369z"/>
			</g>
			<g>
				<g>
					<g>
						<g>
							<g>
								<g>
									<g>
										<g>
											<g>
												<g>
													<path style="fill:#FE9F73;" d="M1111.063,1093.771c2.105,9.852,16.149,29.635,42.373,29.849
														c8.268,0.067,15.57-1.285,21.694-3.169c12.523-3.853,20.401-16.241,18.914-29.259l-3.999-35.022
														c22.972-3.091,22.093-29.324,22.093-29.324l0.665-81.573l-93.804-20.809l-3.713,89.431l0.611,23.094
														C1115.897,1036.99,1108.958,1083.92,1111.063,1093.771z"/>
												</g>
											</g>
										</g>
									</g>
								</g>
							</g>
						</g>
					</g>
				</g>
				<g>
					<g>
						<g>
							<g>
								<g>
									<g>
										<g>
											<g>
												<g>
													<path style="fill:#F07162;" d="M1190.046,1056.17c0,0-35.61,6.853-53.014-22.711c0,0,1.181,43.905,55.964,48.542
														L1190.046,1056.17z"/>
												</g>
											</g>
										</g>
									</g>
								</g>
							</g>
						</g>
					</g>
				</g>
				<g>
					<g>
						<g>
							<g>
								<g>
									<g>
										<g>
											<g>
												<g>
													<path d="M1149.933,987.212c0.562-0.575,13.91-13.967,25.999-4.065c0.467,0.384,1.156,0.316,1.538-0.153
														c0.382-0.466,0.314-1.155-0.153-1.536c-13.643-11.178-28.796,4.073-28.948,4.229c-0.421,0.432-0.412,1.124,0.019,1.544
														c0.21,0.206,0.482,0.309,0.754,0.311C1149.429,987.544,1149.716,987.433,1149.933,987.212z"/>
												</g>
											</g>
										</g>
									</g>
								</g>
							</g>
						</g>
					</g>
				</g>
				<g>
					<g>
						<g>
							<g>
								<g>
									<g>
										<g>
											<path d="M1133.249,937.963c-4.378-7.808-21.671,37.808-21.671,37.808l23.542,5.101l4.226,4.451
												C1139.347,985.322,1137.627,945.771,1133.249,937.963z"/>
										</g>
									</g>
								</g>
							</g>
						</g>
					</g>
				</g>
				<g>
					<g>
						<g>
							<g>
								<g>
									<g>
										<g>
											<g>
												<g>
													<path d="M1194.954,981.092c0.094-0.08,9.503-7.988,14.629-3.52c0.456,0.398,1.146,0.351,1.542-0.105
														c0.396-0.455,0.349-1.145-0.106-1.541c-6.543-5.704-17.039,3.125-17.483,3.503c-0.459,0.392-0.513,1.081-0.122,1.54
														c0.214,0.251,0.517,0.382,0.823,0.384C1194.49,981.355,1194.746,981.27,1194.954,981.092z"/>
												</g>
											</g>
										</g>
									</g>
								</g>
							</g>
						</g>
					</g>
				</g>
				<g>
					<g>
						<g>
							<g>
								<g>
									<g>
										<g>
											<g>
												<g>
													<path d="M1171.202,992.138c0.015-1.81-1.441-3.29-3.251-3.305c-1.81-0.015-3.29,1.441-3.304,3.251
														c-0.015,1.81,1.441,3.29,3.251,3.304C1169.707,995.404,1171.187,993.948,1171.202,992.138z"/>
												</g>
											</g>
										</g>
									</g>
								</g>
							</g>
						</g>
					</g>
				</g>
				<g>
					<g>
						<g>
							<g>
								<g>
									<g>
										<g>
											<g>
												<g>
													<path d="M1206.072,989.144c0.015-1.81-1.441-3.29-3.251-3.305c-1.811-0.015-3.29,1.441-3.305,3.251
														c-0.015,1.81,1.441,3.29,3.251,3.305C1204.577,992.409,1206.057,990.954,1206.072,989.144z"/>
												</g>
											</g>
										</g>
									</g>
								</g>
							</g>
						</g>
					</g>
				</g>
				<g>
					<g>
						<g>
							<g>
								<g>
									<g>
										<g>
											<g>
												<g>
													<path style="fill:#FE9F73;" d="M1144.138,990.779c0.088-10.862-8.645-19.74-19.507-19.828
														c-10.862-0.089-19.739,8.645-19.828,19.507c-0.089,10.862,8.645,19.739,19.507,19.828
														C1135.172,1010.375,1144.049,1001.641,1144.138,990.779z"/>
												</g>
											</g>
										</g>
									</g>
								</g>
							</g>
						</g>
					</g>
				</g>
				<g>
					<g>
						<g>
							<g>
								<g>
									<g>
										<g>
											<g>
												<g>
													<path style="fill:#F07162;" d="M1116.453,986.344c-2.963,1.806-4.209,5.323-3.176,8.961
														c0.874,3.076,3.578,6.169,7.663,6.202c0.038,0.001,0.077,0,0.115,0c0.302-0.002,0.545-0.248,0.543-0.549
														c-0.002-0.3-0.244-0.541-0.542-0.543c-0.039-0.003-0.075,0-0.113,0c-3.756-0.031-5.91-2.923-6.616-5.409
														c-0.68-2.394-0.382-5.855,2.694-7.729c5.556-3.385,10.196,1.201,10.391,1.399l1.38,1.395l-0.46-1.907
														c-0.82-3.399-2.489-5.824-4.96-7.206c-4.28-2.394-9.373-0.787-9.588-0.717c-0.287,0.094-0.444,0.401-0.351,0.687
														c0.093,0.288,0.401,0.446,0.688,0.353c0.048-0.016,4.867-1.53,8.725,0.634c1.782,1,3.1,2.636,3.931,4.874
														C1124.765,985.443,1120.83,983.676,1116.453,986.344z"/>
												</g>
											</g>
										</g>
									</g>
								</g>
							</g>
						</g>
					</g>
				</g>
				<g>
					<g>
						<g>
							<g>
								<g>
									<g>
										<g>
											<g>
												<g>
													<path style="fill:#F07162;" d="M1182.069,1013.964c0.074,0.23,0.286,0.377,0.516,0.379
														c0.057,0,0.115-0.007,0.172-0.026l11.844-3.809l-3.363-26.702c-0.038-0.299-0.308-0.519-0.611-0.473
														c-0.299,0.037-0.511,0.31-0.474,0.61l3.25,25.802l-10.981,3.533
														C1182.135,1013.369,1181.976,1013.676,1182.069,1013.964z"/>
												</g>
											</g>
										</g>
									</g>
								</g>
							</g>
						</g>
					</g>
				</g>
				<g>
					<g>
						<g>
							<g>
								<g>
									<g>
										<g>
											<g>
												<g>
													<path style="fill:#FBFDFC;" d="M1195.654,1024.526c0,0-21.302,0.326-21.639,0.389c0,0,3.059,8.682,10.976,8.54
														C1192.909,1033.313,1195.654,1024.526,1195.654,1024.526z"/>
												</g>
											</g>
										</g>
									</g>
								</g>
							</g>
						</g>
					</g>
				</g>
				<g>
					<g>
						<g>
							<g>
								<g>
									<g>
										<g>
											<path d="M1204.531,891.834c-8.099-7.204-75.597,17.228-87.439,31.408c-11.842,14.179-5.513,52.529-5.513,52.529
												c15.999-23.833,38.982-30.333,38.982-30.333c34.576,11.498,92.777,1.775,86.854-22.235
												c-5.923-24.011-33.013-15.564-33.013-15.564S1212.63,899.037,1204.531,891.834z"/>
										</g>
									</g>
								</g>
							</g>
						</g>
					</g>
				</g>
			</g>
		</g>
		<g>
			<g>
				<g>
					<path style="fill:#187C77;" d="M1656.857,1270.497c0,0,61.219-119.698,104.164-143.454
						c42.945-23.757,127.007-30.153,161.729-28.325c34.721,1.828,140.713-0.914,182.744,28.325
						c42.031,29.239,96.854,134.317,96.854,134.317s-192.795,136.145-224.776,127.007S1656.857,1270.497,1656.857,1270.497z"/>
				</g>
				<g>
					<path d="M1657.543,1270.848l-1.374-0.703c0.613-1.198,61.821-120.181,104.479-143.778
						c43.107-23.846,126.885-30.272,162.142-28.421c5.47,0.288,12.767,0.463,21.218,0.667c44.153,1.062,126.34,3.041,161.928,27.796
						c41.704,29.011,96.548,133.541,97.098,134.594l-1.368,0.713c-0.547-1.049-55.217-105.245-96.611-134.041
						c-35.206-24.491-117.092-26.462-161.083-27.521c-8.462-0.203-15.769-0.379-21.262-0.668
						c-35.116-1.849-118.48,4.536-161.313,28.231C1719.146,1151.089,1658.154,1269.654,1657.543,1270.848z"/>
				</g>
				<g>
					<g>
						<g>
							<g>
								<g>
									<g>
										<path style="fill:#F9B59D;" d="M1972.018,919.138l-101.567,26.145v84.38c0,0-1.181,28.523,23.62,32.088l-4.631,38.055
											c-1.721,14.145,6.684,27.688,20.185,31.989c6.602,2.104,14.482,3.64,23.419,3.64c28.344,0,43.698-21.392,46.06-32.088
											c2.362-10.696-4.724-61.799-4.724-61.799l0.863-25.111L1972.018,919.138z"/>
									</g>
								</g>
							</g>
						</g>
					</g>
					<g>
						<g>
							<g>
								<g>
									<g>
										<path style="fill:#E23E3D;" d="M1909.968,982.456c13.153-10.662,27.461,4.021,28.064,4.652
											c0.232,0.242,0.542,0.365,0.852,0.365c0.294,0,0.589-0.11,0.818-0.332c0.47-0.454,0.485-1.206,0.035-1.679
											c-0.162-0.17-16.406-16.891-31.25-4.856c-0.508,0.411-0.588,1.159-0.179,1.67
											C1908.717,982.789,1909.459,982.869,1909.968,982.456z"/>
									</g>
								</g>
							</g>
						</g>
					</g>
					<g>
						<g>
							<g>
								<g>
									<g>
										<path style="fill:#E23E3D;" d="M1873.646,976.095c5.58-4.815,15.679,3.869,15.78,3.957c0.223,0.195,0.499,0.29,0.773,0.29
											c0.331,0,0.659-0.139,0.893-0.411c0.427-0.496,0.374-1.245-0.118-1.676c-0.476-0.416-11.742-10.111-18.864-3.964
											c-0.495,0.427-0.552,1.177-0.128,1.675C1872.405,976.466,1873.151,976.523,1873.646,976.095z"/>
									</g>
								</g>
							</g>
						</g>
					</g>
					<g>
						<g>
							<g>
								<g>
									<g>
										<path d="M1922.087,992.276c0-1.969-1.586-3.566-3.543-3.566c-1.957,0-3.543,1.596-3.543,3.566
											c0,1.969,1.586,3.565,3.543,3.565C1920.501,995.841,1922.087,994.245,1922.087,992.276z"/>
									</g>
								</g>
							</g>
						</g>
					</g>
					<g>
						<g>
							<g>
								<g>
									<g>
										<path d="M1884.426,988.711c0-1.969-1.586-3.565-3.543-3.565c-1.957,0-3.543,1.597-3.543,3.565
											c0,1.969,1.586,3.566,3.543,3.566C1882.839,992.276,1884.426,990.68,1884.426,988.711z"/>
									</g>
								</g>
							</g>
						</g>
					</g>
					<g>
						<g>
							<g>
								<g>
									<g>
										<path style="fill:#E23E3D;" d="M1948.944,951.996l19.771-28.17c0,0,1.842-4.312,4.024-10.826
											c2.182-6.513-17.322-22.979-33.856-32.487c-16.534-9.508-27.022,9.401-41.204,3.064
											c-25.982-11.609-47.164,2.324-51.601,9.167c-9,13.882-18.45,27.202,12.257,54.933
											C1889.041,975.407,1948.944,951.996,1948.944,951.996z"/>
									</g>
								</g>
							</g>
						</g>
					</g>
					<g>
						<g>
							<g>
								<g>
									<g>
										<path style="fill:#E23E3D;" d="M1967.519,1042.142c37.034,3.962,31.727-49.122,31.99-56.996
											c0.262-7.874,10.498-21.705,2.887-48.115c-7.611-26.41-34.877-25.089-34.877-25.089l2.888,7.611l-12.89,34.908
											L1967.519,1042.142z"/>
									</g>
								</g>
							</g>
						</g>
					</g>
					<g>
						<g>
							<g>
								<g>
									<g>
										<path style="fill:#F9B59D;" d="M1986.781,991.038c0-11.814-9.518-21.392-21.258-21.392
											c-11.741,0-21.259,9.578-21.259,21.392c0,11.815,9.517,21.392,21.259,21.392
											C1977.263,1012.43,1986.781,1002.853,1986.781,991.038z"/>
									</g>
								</g>
							</g>
						</g>
					</g>
					<g>
						<g>
							<g>
								<g>
									<g>
										<path style="fill:#F07162;" d="M1965.207,982.822c4.189-2.32,9.383-0.63,9.436-0.613c0.309,0.104,0.644-0.065,0.747-0.377
											c0.102-0.311-0.065-0.646-0.374-0.751c-0.232-0.077-5.723-1.87-10.37,0.696c-2.682,1.48-4.507,4.104-5.423,7.793
											l-0.514,2.069l1.504-1.504c0.212-0.214,5.268-5.16,11.243-1.43c3.308,2.066,3.599,5.833,2.844,8.43
											c-0.785,2.697-3.139,5.824-7.199,5.824c-0.041,0-0.079-0.003-0.122-0.001c-0.322,0-0.586,0.26-0.59,0.587
											c-0.005,0.327,0.256,0.597,0.582,0.602c0.042,0,0.084,0.001,0.125,0.001c4.416,0,7.366-3.34,8.337-6.678
											c1.149-3.948-0.168-7.784-3.354-9.774c-4.708-2.941-8.975-1.054-11.162,0.393
											C1961.833,985.661,1963.272,983.893,1965.207,982.822z"/>
									</g>
								</g>
							</g>
						</g>
					</g>
					<g>
						<g>
							<g>
								<g>
									<path style="fill:#E23E3D;" d="M1958.708,1021.976l0.542-52.33l-1.732-15.186c-3.814,4.339-6.144,9.786-6.657,15.556
										c-1.116,12.549-3.88,46.356-6.993,47.852c-4.396,2.112-69.133-7.134-77.531-1.63c0,0-7.723,57.144,29.984,59.174
										C1950.277,1078.317,1955.502,1047.33,1958.708,1021.976z"/>
								</g>
							</g>
						</g>
					</g>
					<g>
						<g>
							<g>
								<g>
									<g>
										<path style="fill:#F07162;" d="M1894.084,982.527c-0.327-0.052-0.621,0.184-0.665,0.509l-3.87,29.011l12.768,4.248
											c0.061,0.02,0.124,0.03,0.185,0.03c0.248,0,0.478-0.158,0.56-0.408c0.103-0.312-0.065-0.648-0.375-0.751l-11.838-3.939
											l3.74-28.034C1894.634,982.869,1894.407,982.57,1894.084,982.527z"/>
									</g>
								</g>
							</g>
						</g>
					</g>
				</g>
				<g>
					<path style="fill:#F9B59D;" d="M1842.018,1102.84c0,0,38.139,38.148,87.585,39.975c49.446,1.827,91.819-40.09,91.819-40.09
						S1932.505,1088.868,1842.018,1102.84z"/>
				</g>
				<g>
					<path style="fill:#FBFDFC;" d="M1887.32,1024c0.431-0.083,27.681-0.679,27.681-0.679s-3.438,11.264-13.566,11.513
						C1901.435,1034.834,1892.496,1034.705,1887.32,1024z"/>
				</g>
			</g>
			<g>
				<g>
					<path style="fill:#223749;" d="M1922.087,1530.81c-95.489,0-173.175-77.686-173.175-173.175
						c0-95.489,77.686-173.174,173.175-173.174s173.175,77.685,173.175,173.174
						C2095.262,1453.123,2017.576,1530.81,1922.087,1530.81z M1922.087,1224.139c-73.61,0-133.496,59.885-133.496,133.495
						c0,73.61,59.886,133.496,133.496,133.496c73.61,0,133.496-59.886,133.496-133.496
						C2055.583,1284.024,1995.697,1224.139,1922.087,1224.139z"/>
				</g>
			</g>
			<g>
				<g>
					<path style="fill:#FE9F73;" d="M1808.89,1281.35c3.804,2.497,9.591,0.668,13.096-4.47c3.842-5.631,3.516-12.62-0.586-15.311
						l-31.27-20.518c-0.001,0-8.14,0.925-11.955,7.153c-3.814,6.229-1.707,11.872-0.694,12.537L1808.89,1281.35z"/>
				</g>
				<g>
					<path style="fill:#FE9F73;" d="M1797.317,1302.7c3.74,2.598,9.527,0.896,13.1-4.188c3.916-5.57,3.711-12.603-0.322-15.403
						l-34.139-23.706c-0.001,0-5.082,0.341-8.981,6.513c-3.899,6.172-3.944,12.975-2.948,13.668L1797.317,1302.7z"/>
				</g>
				<g>
					<path style="fill:#FE9F73;" d="M1785.646,1322.407c3.448,2.477,8.837,0.963,12.203-3.74c3.69-5.153,3.568-11.728-0.15-14.398
						l-31.467-22.606c0,0-4.721,0.252-8.401,5.967c-3.68,5.715-3.787,12.073-2.869,12.733L1785.646,1322.407z"/>
				</g>
				<g>
					<g>
						<path style="fill:#F07162;" d="M1810.048,1279.477l-33.725-22.366c-0.741-0.49-1.859-0.05-2.498,0.985
							c-0.556,0.898-0.567,1.946-0.077,2.528c0.075,0.089,0.16,0.168,0.258,0.233l33.73,22.368
							c4.597,3.018,11.414,0.67,15.515-5.344c2.194-3.216,3.326-6.902,3.19-10.379c-0.135-3.429-1.552-6.277-3.887-7.809
							l-30.953-20.31c-0.743-0.487-1.86-0.043-2.497,0.993c-0.636,1.033-0.542,2.261,0.189,2.757l30.952,20.31
							c1.624,1.064,2.564,2.96,2.657,5.337c0.094,2.377-0.684,4.898-2.183,7.099
							C1817.919,1279.987,1813.23,1281.564,1810.048,1279.477z"/>
					</g>
				</g>
				<g>
					<path style="fill:#FE9F73;" d="M1824.218,1264.423c3.683,2.506,9.346,0.96,12.932-3.963c4.108-5.638,3.924-12.857-0.207-15.668
						l-31.216-21.242c-3.471-2.362-9.773,0.898-12.091,4.443c-3.996,6.111-3.871,12.984-2.87,13.666L1824.218,1264.423z"/>
				</g>
				<g>
					<g>
						<path style="fill:#F07162;" d="M1825.438,1262.592l-33.365-22.943c-0.732-0.503-1.851-0.078-2.5,0.951
							c-0.564,0.893-0.586,1.944-0.104,2.536c0.074,0.091,0.158,0.171,0.255,0.237l33.37,22.946
							c4.549,3.097,11.367,0.842,15.519-5.13c2.222-3.194,3.389-6.876,3.291-10.366c-0.097-3.443-1.479-6.321-3.789-7.893
							l-30.625-20.839c-0.735-0.5-1.853-0.071-2.499,0.959c-0.645,1.026-0.565,2.26,0.158,2.769l30.625,20.839
							c1.607,1.091,2.523,3.008,2.59,5.395c0.067,2.387-0.735,4.905-2.252,7.09
							C1833.276,1263.22,1828.586,1264.733,1825.438,1262.592z"/>
					</g>
				</g>
				<g>
					<g>
						<path style="fill:#F07162;" d="M1798.993,1300.608l-32.043-23.159c-0.721-0.52-1.84-0.117-2.502,0.902
							c-0.586,0.904-0.615,1.986-0.112,2.584c0.064,0.076,0.138,0.145,0.219,0.205l32.062,23.171
							c4.552,3.162,10.879,1.16,15.044-4.765c2.235-3.177,3.424-6.855,3.349-10.353c-0.076-3.454-1.434-6.351-3.734-7.942
							l-34.139-23.705c-0.73-0.508-1.849-0.086-2.5,0.94c-0.653,1.026-0.591,2.276,0.142,2.776l34.139,23.705
							c1.599,1.112,2.5,3.037,2.551,5.429c0.053,2.391-0.76,4.904-2.292,7.08
							C1806.337,1301.514,1802.142,1302.796,1798.993,1300.608z"/>
					</g>
				</g>
				<g>
					<g>
						<path style="fill:#F07162;" d="M1787.923,1319.461l-30.684-22.043c-0.721-0.52-1.843-0.112-2.501,0.907
							c-0.584,0.902-0.612,1.983-0.11,2.58c0.066,0.078,0.139,0.146,0.222,0.206l30.684,22.043
							c4.214,3.029,10.638,1.04,14.624-4.529c2.132-2.975,3.284-6.436,3.248-9.746c-0.039-3.263-1.288-6.017-3.43-7.555
							l-31.466-22.605c-0.721-0.52-1.842-0.112-2.5,0.907c-0.659,1.021-0.604,2.276,0.112,2.785l31.466,22.605
							c1.447,1.038,2.254,2.822,2.278,5.019c0.025,2.199-0.742,4.498-2.159,6.479
							C1795.058,1320.207,1790.762,1321.503,1787.923,1319.461z"/>
					</g>
				</g>
			</g>
			<g>
				<g>
					<path style="fill:#FE9F73;" d="M2038.225,1281.35c-3.804,2.497-9.591,0.668-13.096-4.47c-3.842-5.631-3.516-12.62,0.586-15.311
						l31.27-20.518c0.001,0,8.14,0.925,11.955,7.153c3.814,6.229,1.707,11.872,0.694,12.537L2038.225,1281.35z"/>
				</g>
				<g>
					<path style="fill:#FE9F73;" d="M2049.798,1302.7c-3.741,2.598-9.527,0.896-13.1-4.188c-3.916-5.57-3.711-12.603,0.322-15.403
						l34.139-23.706c0.001,0,5.082,0.341,8.981,6.513c3.899,6.172,3.944,12.975,2.948,13.668L2049.798,1302.7z"/>
				</g>
				<g>
					<path style="fill:#FE9F73;" d="M2061.469,1322.407c-3.448,2.477-8.837,0.963-12.204-3.74c-3.69-5.153-3.568-11.728,0.15-14.398
						l31.467-22.606c0,0,4.721,0.252,8.401,5.967c3.68,5.715,3.787,12.073,2.869,12.733L2061.469,1322.407z"/>
				</g>
				<g>
					<g>
						<path style="fill:#F07162;" d="M2037.066,1279.477l33.725-22.366c0.741-0.49,1.859-0.05,2.498,0.985
							c0.556,0.898,0.567,1.946,0.077,2.528c-0.075,0.089-0.16,0.168-0.258,0.233l-33.73,22.368
							c-4.597,3.018-11.414,0.67-15.515-5.344c-2.194-3.216-3.326-6.902-3.19-10.379c0.135-3.429,1.552-6.277,3.887-7.809
							l30.953-20.31c0.743-0.487,1.86-0.043,2.497,0.993c0.636,1.033,0.542,2.261-0.189,2.757l-30.952,20.31
							c-1.624,1.064-2.564,2.96-2.657,5.337c-0.094,2.377,0.684,4.898,2.183,7.099
							C2029.195,1279.987,2033.885,1281.564,2037.066,1279.477z"/>
					</g>
				</g>
				<g>
					<path style="fill:#FE9F73;" d="M2022.896,1264.423c-3.683,2.506-9.346,0.96-12.932-3.963
						c-4.108-5.638-3.924-12.857,0.207-15.668l31.216-21.242c3.471-2.362,9.773,0.898,12.091,4.443
						c3.997,6.111,3.871,12.984,2.87,13.666L2022.896,1264.423z"/>
				</g>
				<g>
					<g>
						<path style="fill:#F07162;" d="M2021.677,1262.592l33.365-22.943c0.732-0.503,1.851-0.078,2.5,0.951
							c0.564,0.893,0.586,1.944,0.104,2.536c-0.074,0.091-0.158,0.171-0.255,0.237l-33.37,22.946
							c-4.549,3.097-11.367,0.842-15.519-5.13c-2.222-3.194-3.389-6.876-3.291-10.366c0.097-3.443,1.479-6.321,3.789-7.893
							l30.625-20.839c0.735-0.5,1.853-0.071,2.499,0.959c0.645,1.026,0.565,2.26-0.158,2.769l-30.625,20.839
							c-1.607,1.091-2.523,3.008-2.59,5.395c-0.067,2.387,0.734,4.905,2.252,7.09
							C2013.839,1263.22,2018.529,1264.733,2021.677,1262.592z"/>
					</g>
				</g>
				<g>
					<g>
						<path style="fill:#F07162;" d="M2048.122,1300.608l32.043-23.159c0.721-0.52,1.841-0.117,2.502,0.902
							c0.586,0.904,0.615,1.986,0.112,2.584c-0.064,0.076-0.138,0.145-0.219,0.205l-32.062,23.171
							c-4.552,3.162-10.879,1.16-15.043-4.765c-2.235-3.177-3.424-6.855-3.349-10.353c0.076-3.454,1.434-6.351,3.734-7.942
							l34.139-23.705c0.73-0.508,1.849-0.086,2.5,0.94c0.653,1.026,0.591,2.276-0.142,2.776l-34.139,23.705
							c-1.599,1.112-2.5,3.037-2.551,5.429c-0.053,2.391,0.76,4.904,2.292,7.08
							C2040.778,1301.514,2044.973,1302.796,2048.122,1300.608z"/>
					</g>
				</g>
				<g>
					<g>
						<path style="fill:#F07162;" d="M2059.192,1319.461l30.684-22.043c0.721-0.52,1.843-0.112,2.501,0.907
							c0.584,0.902,0.612,1.983,0.11,2.58c-0.065,0.078-0.139,0.146-0.222,0.206l-30.685,22.043
							c-4.214,3.029-10.638,1.04-14.624-4.529c-2.132-2.975-3.284-6.436-3.248-9.746c0.039-3.263,1.288-6.017,3.43-7.555
							l31.466-22.605c0.721-0.52,1.843-0.112,2.5,0.907c0.659,1.021,0.604,2.276-0.112,2.785l-31.466,22.605
							c-1.447,1.038-2.254,2.822-2.277,5.019c-0.025,2.199,0.742,4.498,2.159,6.479
							C2052.056,1320.207,2056.352,1321.503,2059.192,1319.461z"/>
					</g>
				</g>
			</g>
		</g>
		<g>
			<g style="opacity:0.5;">
				<path style="fill:#A6E0ED;" d="M2282.329,1237.336c-47.786-109.665-162.543-368.44-195.846-402.768
					c-42.101-43.38-92.433-51.787-149.084-57.688c-0.337-0.04-0.674-0.067-1.037-0.108c-20.761-2.061-73.41-4.513-133.968-6.844
					c-83.636-3.219-182.347-6.224-232.936-7.72c-17.797-0.512-29.639-0.835-32.778-0.93v-0.013h-0.364v0.013
					c-10.751,0.297-124.336,3.489-229.083,7.289c-76.213,2.748-147.75,5.82-171.637,8.312
					c-56.664,5.901-106.983,14.308-149.084,57.688c-33.304,34.327-148.06,293.103-195.86,402.768
					c-3.813,8.77-2.95,18.766,2.331,26.742c5.227,7.895,13.971,12.583,23.442,12.583H2256.57c9.458,0,18.201-4.688,23.442-12.583
					C2285.28,1256.103,2286.156,1246.106,2282.329,1237.336z"/>
			</g>
			<g style="opacity:0.3;">
				<g>
					<path style="fill:#FFFFFF;" d="M1569.458,762.209l-237.287,514.453h-259.287l234.35-508.093
						c104.747-3.8,218.332-6.992,229.083-7.289v-0.013h0.364v0.013C1539.819,761.374,1551.661,761.697,1569.458,762.209z"/>
				</g>
			</g>
			<g style="opacity:0.3;">
				<g>
					<path style="fill:#FFFFFF;" d="M1936.361,776.773l-230.564,499.889h-137.134l233.73-506.733
						C1862.951,772.26,1915.601,774.712,1936.361,776.773z"/>
				</g>
			</g>
		</g>
		<g>
			<path style="fill:#F4BD45;" d="M988.613,840.671c39.519-40.716,86.222-49.099,143.704-55.087
				c57.482-5.987,400.426-15.568,400.426-15.568v-36.824c-132.028-1.347-359.71,13.472-445.932,20.208
				c-86.223,6.736-111.82,37.722-111.82,37.722c-101.042,99.695-216.904,424.377-238.459,462.099
				c-9.7,16.975-19.4,29.312-27.136,37.748c-17.233,18.793-33.412,38.541-48.051,59.418c-61.833,88.18-86.908,138.96-93.89,179.689
				c-8.083,47.153,10.104,305.147,10.104,305.147h955.184v-574.218l-720.313,6.9c-14.021,0.134-23.529-14.216-17.927-27.071
				C833.254,1151.912,955.498,874.789,988.613,840.671z"/>
		</g>
		<g style="opacity:0.5;">
			<path style="fill:#F4BD45;" d="M622.114,1649.565c0,0-7.583,64.472,14.797,86.028c22.38,21.556,458.762,5.988,458.762,5.988
				s1.234-21.949,0-38.321C1094.439,1686.887,622.114,1649.565,622.114,1649.565z"/>
		</g>
		<g>
			<path style="fill:#F4BD45;" d="M776.099,1302.243l-28.48,37.049l-77.492-59.574H508.702c-6.116-0.31-10.98-5.375-10.98-11.559
				v-85.441c0-15.628,12.664-28.292,28.292-28.292h161.667c15.628,0,28.292,12.664,28.292,28.292v73.303L776.099,1302.243z"/>
		</g>
		<g>
			<path style="fill:#49263E;" d="M1532.743,1532.448v229.931h-322.985c-35.926,0-55.885-23.956-64.667-46.457l-41.911-140.067
				c0-23.967,19.427-43.408,43.408-43.408H1532.743z"/>
		</g>
		<g>
			<path style="fill:#FC671D;" d="M676.054,1516.277v193.098c-8.73-1.926-16.76-4.082-23.953-6.48
				c-43.394-14.469-42.276-163.607-14.698-180.69C643.061,1518.702,656.803,1516.775,676.054,1516.277z"/>
		</g>
		<g>
			<path style="fill:#FFFFFF;" d="M1095.19,1717.269c0,0-288.347,21.043-419.136-7.895v-193.098
				c74.623-1.94,231.885,17.568,320.667,49.942C1108.393,1606.945,1095.19,1717.269,1095.19,1717.269z"/>
		</g>
		<g>
			<path d="M677.386,1711.348c-8.925-1.97-17.052-4.169-24.157-6.537c-16.848-5.618-29.15-31.397-33.747-70.727
				c-5.263-45.014,1.092-102.738,18.623-113.597c5.819-3.604,19.164-5.699,39.663-6.23c38.214-0.997,96.291,3.539,155.368,12.122
				c66.468,9.66,125.437,23.133,166.044,37.941l-1.384,3.797c-90.852-33.128-250.164-51.599-319.923-49.821
				c-24.632,0.638-34.064,3.413-37.639,5.627c-14.428,8.936-22.404,61.219-16.738,109.691c4.407,37.709,15.712,62.262,31.011,67.363
				c6.97,2.323,14.962,4.485,23.749,6.424L677.386,1711.348z"/>
		</g>
		<g>
			<g>
				<path style="fill:#49263E;" d="M1532.743,1544.402v206.023h-315.728c-32.191,0-50.074-21.465-57.943-41.626l-37.554-125.503
					c0-21.475,17.407-38.894,38.894-38.894H1532.743z"/>
			</g>
			<g>
				<rect x="1118.346" y="1573.127" style="fill:#49263E;" width="414.397" height="10.778"/>
			</g>
			<g>
				<rect x="1118.346" y="1608.654" style="fill:#49263E;" width="414.397" height="10.778"/>
			</g>
			<g>
				<polygon style="fill:#49263E;" points="1532.736,1644.176 1532.736,1654.954 1126.844,1654.954 1123.611,1644.176 				"/>
			</g>
			<g>
				<polygon style="fill:#49263E;" points="1532.736,1679.703 1532.736,1690.481 1137.474,1690.481 1134.24,1679.703 				"/>
			</g>
			<g>
				<path style="fill:#49263E;" d="M1532.736,1715.229v10.778h-382.949c-1.832-3.341-3.395-6.723-4.702-10.077l-0.215-0.701
					H1532.736z"/>
			</g>
		</g>
		<g>
			<path style="fill:#F4BD45;" d="M2076.013,840.671c-39.519-40.716-86.223-49.099-143.704-55.087
				c-57.482-5.987-400.426-15.568-400.426-15.568v-36.824c132.028-1.347,359.71,13.472,445.932,20.208
				c86.223,6.736,111.82,37.722,111.82,37.722c101.042,99.695,216.904,424.377,238.459,462.099
				c9.7,16.975,19.4,29.312,27.136,37.748c17.233,18.793,33.412,38.541,48.051,59.418c61.833,88.18,86.908,138.96,93.89,179.689
				c8.083,47.153-10.104,305.147-10.104,305.147h-955.184v-574.218l720.313,6.9c14.021,0.134,23.529-14.216,17.927-27.071
				C2231.372,1151.912,2109.127,874.789,2076.013,840.671z"/>
		</g>
		<g style="opacity:0.5;">
			<path style="fill:#F4BD45;" d="M2442.512,1649.565c0,0,7.583,64.472-14.797,86.028c-22.38,21.556-458.762,5.988-458.762,5.988
				s-1.234-21.949,0-38.321S2442.512,1649.565,2442.512,1649.565z"/>
		</g>
		<g>
			<path style="fill:#F4BD45;" d="M2288.526,1302.243l28.48,37.049l77.493-59.574h161.425c6.116-0.31,10.98-5.375,10.98-11.559
				v-85.441c0-15.628-12.664-28.292-28.292-28.292h-161.667c-15.628,0-28.292,12.664-28.292,28.292v73.303L2288.526,1302.243z"/>
		</g>
		<g>
			<path style="fill:#49263E;" d="M1530.536,1532.448v229.931h322.985c35.926,0,55.885-23.956,64.667-46.457l41.911-140.067
				c0-23.967-19.427-43.408-43.408-43.408H1530.536z"/>
		</g>
		<g>
			<path style="fill:#FC671D;" d="M2388.571,1516.277v193.098c8.73-1.926,16.76-4.082,23.954-6.48
				c43.394-14.469,42.276-163.607,14.698-180.69C2421.565,1518.702,2407.823,1516.775,2388.571,1516.277z"/>
		</g>
		<g>
			<path style="fill:#FFFFFF;" d="M1969.436,1717.269c0,0,288.347,21.043,419.136-7.895v-193.098
				c-74.623-1.94-231.885,17.568-320.667,49.942C1956.233,1606.945,1969.436,1717.269,1969.436,1717.269z"/>
		</g>
		<g>
			<g>
				<path style="fill:#49263E;" d="M1530.536,1544.402v206.023h315.728c32.191,0,50.074-21.465,57.943-41.626l37.553-125.503
					c0-21.475-17.407-38.894-38.895-38.894H1530.536z"/>
			</g>
			<g>
				
					<rect x="1530.536" y="1573.127" transform="matrix(-1 -1.224647e-16 1.224647e-16 -1 3475.469 3157.0327)" style="fill:#49263E;" width="414.397" height="10.778"/>
			</g>
			<g>
				
					<rect x="1530.536" y="1608.654" transform="matrix(-1 -1.224647e-16 1.224647e-16 -1 3475.469 3228.0867)" style="fill:#49263E;" width="414.397" height="10.778"/>
			</g>
			<g>
				<polygon style="fill:#49263E;" points="1530.542,1644.176 1530.542,1654.954 1936.435,1654.954 1939.668,1644.176 				"/>
			</g>
			<g>
				<polygon style="fill:#49263E;" points="1525.707,1679.703 1525.707,1690.48 1919.32,1690.48 1922.49,1679.703 				"/>
			</g>
			<g>
				<path style="fill:#49263E;" d="M1530.542,1715.229v10.778h382.949c1.832-3.341,3.395-6.723,4.702-10.077l0.215-0.701H1530.542z"
					/>
			</g>
		</g>
		<g>
			<path style="fill:#49263E;" d="M1529.5,761.348l6.995,0.039c0,0-5.299,13.113-5.299,12.414
				C1531.196,773.102,1529.5,761.348,1529.5,761.348z"/>
		</g>
		<g>
			<path d="M575.544,1835.367c-0.743-10.544-18.113-258.775-10.081-305.631c7.435-43.369,34.734-95.666,94.227-180.507
				c13.924-19.857,30.145-39.918,48.216-59.624c9.699-10.576,18.739-23.154,26.871-37.384c5.097-8.919,15.576-34.189,30.081-69.164
				c45.966-110.84,131.518-317.13,208.646-393.305c1.853-2.181,28.45-31.748,113.149-38.364l0.316,4.029
				c-84.119,6.572-110.17,36.696-110.423,36.999l-0.135,0.147c-76.566,75.545-161.949,281.434-207.82,392.043
				c-14.56,35.112-25.082,60.48-30.303,69.62c-8.282,14.491-17.501,27.313-27.402,38.11c-17.952,19.577-34.062,39.5-47.884,59.214
				c-59.123,84.313-86.228,136.136-93.553,178.871c-7.951,46.375,9.946,302.085,10.128,304.663L575.544,1835.367z"/>
		</g>
		<g style="opacity:0.1;">
			<path style="fill:#F4BD45;" d="M1178.774,1328.669l-31.31,98.891c-10.044,31.724,13.638,64.063,46.914,64.063h667.746
				c36.279,0,60.086-37.92,44.32-70.594l-47.716-98.892c-8.209-17.012-25.431-27.825-44.32-27.825h-588.719
				C1204.233,1294.313,1185.25,1308.214,1178.774,1328.669z"/>
		</g>
		<g style="opacity:0.1;">
			<path style="fill:#F4BD45;" d="M820.615,1333.353l-61.829,96.049c-19.834,30.812-24.764,62.222-9.765,62.222H1050
				c16.352,0,45.38-36.83,54.039-68.565l26.208-96.049c4.509-16.523,1.963-27.025-6.551-27.025H858.338
				C848.667,1299.984,833.404,1313.486,820.615,1333.353z"/>
		</g>
		<g style="opacity:0.1;">
			<path style="fill:#F4BD45;" d="M2230.799,1333.353l61.829,96.049c19.834,30.812,24.764,62.222,9.765,62.222h-300.978
				c-16.352,0-45.38-36.83-54.039-68.565l-26.208-96.049c-4.509-16.523-1.963-27.025,6.551-27.025h265.358
				C2202.747,1299.984,2218.01,1313.486,2230.799,1333.353z"/>
		</g>
		<g>
			
				<rect x="917.087" y="1718.837" transform="matrix(0.9992 -0.0403 0.0403 0.9992 -68.6128 41.9978)" width="178.176" height="4.042"/>
		</g>
		<g>
			<path d="M2386.115,1711.348l-0.871-3.947c8.787-1.939,16.779-4.101,23.749-6.424c15.3-5.101,26.604-29.654,31.011-67.363
				c5.667-48.473-2.31-100.755-16.738-109.691c-3.576-2.214-13.008-4.989-37.639-5.627c-69.733-1.783-229.071,16.692-319.923,49.821
				l-1.384-3.797c40.607-14.808,99.576-28.281,166.044-37.941c59.077-8.585,117.144-13.125,155.368-12.122
				c20.5,0.53,33.844,2.626,39.663,6.23c17.531,10.859,23.885,68.584,18.623,113.597c-4.597,39.33-16.898,65.109-33.747,70.727
				C2403.167,1707.179,2395.041,1709.379,2386.115,1711.348z"/>
		</g>
		<g>
			
				<rect x="2055.305" y="1631.77" transform="matrix(0.0403 -0.9992 0.9992 0.0403 254.9957 3707.199)" width="4.042" height="178.176"/>
		</g>
		<g>
			<path d="M1616.121,1764.401H1213.35c-56.78,0-70.303-48.163-70.433-48.65l-41.675-139.316l3.873-1.158l41.69,139.374
				c0.517,1.92,12.933,45.708,66.544,45.708h402.771V1764.401z"/>
		</g>
		<g>
			<path d="M1918.637,1719.145l-3.868-1.176l43.286-142.336c-2.892-36.162-35.054-40.685-37.461-40.972l-27.059-0.191h-448.662
				v-4.042h448.677l27.381,0.204c0.382,0.041,38.187,4.55,41.184,45.076l0.028,0.376l-0.109,0.36L1918.637,1719.145z"/>
		</g>
		<g>
			
				<rect x="1213.96" y="1351.886" transform="matrix(0.8847 -0.4661 0.4661 0.8847 -485.3683 745.2806)" width="100.172" height="4.042"/>
		</g>
		<g>
			
				<rect x="1267.875" y="1351.886" transform="matrix(0.8847 -0.4661 0.4661 0.8847 -479.1656 770.4512)" width="100.172" height="4.042"/>
		</g>
		<g>
			<rect x="812.515" y="1274.641" width="1439.596" height="4.042"/>
		</g>
		<g>
			<rect x="858.549" y="1257.247" width="1347.527" height="4.042"/>
		</g>
		<g>
			<path d="M717.993,1256.02h-4.042v-73.303c0-7.731-2.313-13.897-6.876-18.328c-8.496-8.252-22.152-7.949-22.277-7.944
				l-158.786,0.001v-4.042h158.724c0.568-0.016,15.384-0.38,25.132,9.064c5.39,5.222,8.124,12.371,8.124,21.249V1256.02z"/>
		</g>
		<g>
			<rect x="518.58" y="1277.696" width="130.232" height="4.042"/>
		</g>
		<g>
			
				<rect x="515.167" y="1179.141" transform="matrix(0.798 -0.6027 0.6027 0.798 -604.3854 559.2833)" width="33.77" height="4.043"/>
		</g>
		<g>
			
				<rect x="535.025" y="1181.878" transform="matrix(0.798 -0.6027 0.6027 0.798 -602.0346 571.8261)" width="33.771" height="4.043"/>
		</g>
		<g>
			<path d="M2486.777,1835.367l-4.031-0.284c0.181-2.577,18.078-258.287,10.128-304.663c-7.325-42.732-34.429-94.555-93.553-178.871
				c-13.825-19.716-29.936-39.638-47.886-59.214c-9.902-10.798-19.122-23.62-27.401-38.11c-5.222-9.14-15.743-34.508-30.303-69.62
				c-45.871-110.609-131.255-316.498-207.82-392.043l-0.138-0.151c-0.25-0.299-26.301-30.423-110.42-36.995l0.316-4.029
				c84.699,6.617,111.296,36.183,113.149,38.364c77.129,76.175,162.68,282.465,208.646,393.305
				c14.505,34.975,24.984,60.245,30.081,69.164c8.131,14.23,17.17,26.808,26.869,37.384c18.069,19.705,34.291,39.766,48.217,59.624
				c59.493,84.844,86.792,137.141,94.227,180.507C2504.89,1576.591,2487.521,1824.823,2486.777,1835.367z"/>
		</g>
		<g>
			<path d="M2348.368,1256.02h-4.042v-73.303c0-8.878,2.734-16.027,8.124-21.249c9.745-9.438,24.568-9.093,25.196-9.062
				l158.66-0.001v4.042h-158.724c-0.192,0.009-13.845-0.308-22.338,7.943c-4.563,4.431-6.876,10.598-6.876,18.328V1256.02z"/>
		</g>
		<g>
			<rect x="2413.507" y="1277.696" width="130.232" height="4.042"/>
		</g>
		<g>
			
				<rect x="2528.246" y="1164.277" transform="matrix(0.6028 -0.7979 0.7979 0.6028 62.5574 2487.9927)" width="4.043" height="33.77"/>
		</g>
		<g>
			
				<rect x="2508.387" y="1167.014" transform="matrix(0.6028 -0.7979 0.7979 0.6028 52.4487 2473.1641)" width="4.043" height="33.771"/>
		</g>
		<g>
			<path style="fill:#E8F9F9;" d="M677.821,1606.466c-8.73-1.927-16.76-4.082-23.954-6.48c-14.24-4.748-23.687-23.999-28.978-48.326
				c-11.586,48.71-4.756,141.335,28.978,152.583c7.194,2.399,15.224,4.553,23.954,6.48c130.789,28.938,419.136,7.895,419.136,7.895
				s6.635-55.571-29.428-102.392C990.782,1620.654,783.18,1629.778,677.821,1606.466z"/>
		</g>
		<g>
			<path style="fill:#E8F9F9;" d="M2386.805,1606.466c8.73-1.927,16.76-4.082,23.954-6.48c14.24-4.748,23.687-23.999,28.979-48.326
				c11.586,48.71,4.756,141.335-28.979,152.583c-7.194,2.399-15.224,4.553-23.954,6.48c-130.789,28.938-419.136,7.895-419.136,7.895
				s-6.635-55.571,29.428-102.392C2073.844,1620.654,2281.446,1629.778,2386.805,1606.466z"/>
		</g>
		<g>
			<path style="fill:#49263E;" d="M2278.151,1237.337c-47.792-109.668-162.547-368.448-195.854-402.765
				c-42.104-43.381-92.426-51.796-149.079-57.697c-56.728-5.909-382.142-15.082-400.719-15.601l0-0.01
				c-0.052,0.002-0.124,0.004-0.185,0.005c-0.061-0.002-0.132-0.004-0.185-0.005l-0.001,0.01
				c-18.577,0.519-343.992,9.692-400.719,15.601c-56.653,5.901-106.976,14.316-149.079,57.697
				c-33.307,34.316-148.062,293.097-195.854,402.765c-3.821,8.766-2.95,18.76,2.327,26.733c5.23,7.902,13.974,12.595,23.437,12.595
				c0.091,0,0.183-0.001,0.275-0.001h717.385l0,0.001l722.213-0.001c0.092,0,0.184,0.001,0.275,0.001
				c9.463,0,18.207-4.693,23.437-12.595C2281.101,1256.097,2281.972,1246.103,2278.151,1237.337z M2261.22,1254.403
				c-2,3.021-5.214,4.747-8.831,4.747c-0.037,0-0.074,0-0.109-0.001l-719.967,1.856l-719.967-1.856
				c-0.035,0.001-0.072,0.001-0.109,0.001c-3.617,0-6.831-1.726-8.831-4.747c-2.017-3.047-2.335-6.718-0.875-10.07
				c76.226-174.917,166.79-371.214,192.365-397.563c38.075-39.23,83.24-46.737,138.328-52.476
				c55.303-5.761,382.089-15.026,399.089-15.506c17.001,0.479,343.786,9.745,399.089,15.506
				c55.088,5.739,100.253,13.246,138.328,52.476c25.575,26.349,116.139,222.645,192.365,397.563
				C2263.555,1247.686,2263.237,1251.356,2261.22,1254.403z"/>
		</g>
		<g>
			<path style="fill:#F4BD45;" d="M1718.354,685.286l-1.07-4.542l-15.847-67.308c0-0.007,0-0.022-0.008-0.03l-0.847-3.597
				c-0.007-0.015-0.007-0.03-0.015-0.045c-3.427-10.942-13.647-18.888-25.719-18.888h-142.612h-1.67h-142.612
				c-12.071,0-22.292,7.946-25.719,18.888c-0.007,0.015-0.007,0.03-0.015,0.045l-0.847,3.597c-0.007,0.008-0.007,0.023-0.007,0.03
				l-15.848,67.308l-1.07,4.542c-0.186,1.271-0.282,2.565-0.282,3.888c0,14.881,12.064,26.945,26.938,26.945h159.463h1.67h159.463
				c14.874,0,26.938-12.064,26.938-26.945C1718.636,687.851,1718.54,686.557,1718.354,685.286z"/>
		</g>
		<g>
			<path d="M1691.699,718.141h-228.064v-4.042h228.064c13.739,0,24.917-11.182,24.917-24.925c0-1.168-0.084-2.348-0.25-3.51
				l-17.738-75.322c-3.281-10.434-12.834-17.443-23.78-17.443h-286.895c-10.945,0-20.495,7.005-23.779,17.435l-0.967,4.097
				l-16.772,71.233c-0.166,1.162-0.25,2.342-0.25,3.51h-4.042c0-1.391,0.103-2.797,0.304-4.18l0.033-0.172l16.864-71.619V612.6
				l0.188-0.196l0.829-3.419c3.856-12.047,14.921-20.128,27.592-20.128h286.895c12.664,0,23.725,8.074,27.585,20.111l0.115,0.379
				l0.716,3.038l0.185,0.186l0.005,0.622l16.9,71.802c0.201,1.383,0.304,2.789,0.304,4.18
				C1720.658,705.146,1707.667,718.141,1691.699,718.141z"/>
		</g>
		<g>
			
				<rect x="1683.037" y="724.28" transform="matrix(0.0436 -0.999 0.999 0.0436 893.8644 2386.3354)" width="20.56" height="4.043"/>
		</g>
		<g>
			<path d="M1276.533,743.141l-0.295-4.031c2.255-0.164,227.889-16.255,448.969-3.159l-0.24,4.034
				C1504.167,726.903,1278.782,742.976,1276.533,743.141z"/>
		</g>
		<g style="opacity:0.6;">
			<path style="fill:#F4BD45;" d="M1702.086,680.018l-0.977-3.789l-14.469-56.152c0-0.006,0-0.018-0.007-0.025l-0.774-3.001
				c-0.007-0.012-0.007-0.025-0.014-0.037c-3.129-9.128-12.46-15.757-23.481-15.757h-130.202h-1.524h-130.202
				c-11.021,0-20.352,6.629-23.481,15.757c-0.007,0.012-0.007,0.025-0.014,0.037l-0.774,3.001c-0.007,0.006-0.007,0.019-0.007,0.025
				l-14.469,56.152l-0.977,3.789c-0.17,1.06-0.258,2.14-0.258,3.243c0,12.415,11.014,22.479,24.594,22.479h145.587h1.524h145.587
				c13.579,0,24.594-10.065,24.594-22.479C1702.344,682.158,1702.255,681.078,1702.086,680.018z"/>
		</g>
		<g>
			<g>
				<path style="fill:#FFFFFF;" d="M1438.254,636.812h-14.197v-7.031h36.099v7.031h-14.241v46.329h-7.661V636.812z"/>
			</g>
			<g>
				<path style="fill:#FFFFFF;" d="M1492.379,628.971h10.771l14.242,54.171h-8.337l-3.786-15.593h-15.683l-3.876,15.593h-7.482
					L1492.379,628.971z M1497.427,635.956l-6.083,24.472h12.213L1497.427,635.956z"/>
			</g>
			<g>
				<path style="fill:#FFFFFF;" d="M1548.309,655.741l-14.962-26.409h9.238l10.411,19.109l10.636-19.109h8.473l-14.376,25.958
					l15.233,27.852h-9.149l-10.907-20.595l-10.861,20.595h-8.788L1548.309,655.741z"/>
			</g>
			<g>
				<path style="fill:#FFFFFF;" d="M1595.179,675.57h9.69v-38.938h-8.021v-6.851h23.841v6.851h-8.068v38.938h9.735v7.12h-27.176
					V675.57z"/>
			</g>
		</g>
	</g>
	<g style="opacity:0.7;">
		<g>
			<g>
				<path style="fill:#FFFFFF;" d="M552.304,813.173c25.985-0.592,86.871-1.089,139.569,5.189
					c21.802,2.597,41.283-14.219,41.548-36.174c0.108-8.986-2.753-19.543-10.679-31.666c-30.52-46.68-87.799-5.078-88.061,18.075
					c0,0-10.076-35.224-44.537-30.305c-34.461,4.918-24.094,55.997-24.094,55.997s-10.972-2.716-18.814,2.25
					C539.525,801.422,543.179,813.38,552.304,813.173z"/>
			</g>
		</g>
	</g>
	<g style="opacity:0.7;">
		<g>
			<g>
				<path style="fill:#FFFFFF;" d="M1524.763,486.927c-83.866-6.65-288.498-19.924-412.046-2.814
					c-17.855,2.473-29.47-18.555-17.635-32.152c8.534-9.805,23.602-17.962,49.988-18.876c0,0-23.257-114.728,87.587-124.419
					c113.906-9.958,114.275,110.463,114.275,110.463s67.154-62.488,98.632,15.993c0,0,70.577-30.058,102.066,8.433
					C1562.462,461.686,1548.115,488.779,1524.763,486.927z"/>
			</g>
		</g>
	</g>
	<g style="opacity:0.7;">
		<g>
			<g>
				<path style="fill:#FFFFFF;" d="M2357.926,965.126c49.916-3.958,171.71-11.859,245.244-1.675
					c10.627,1.472,17.54-11.043,10.496-19.136c-5.079-5.836-14.048-10.691-29.752-11.235c0,0,13.842-68.285-52.13-74.052
					c-67.795-5.927-68.015,65.746-68.015,65.746s-39.969-37.192-58.704,9.519c0,0-42.007-17.89-60.748,5.019
					C2335.488,950.103,2344.027,966.229,2357.926,965.126z"/>
			</g>
		</g>
	</g>
	<rect x="253.646" y="1832.312" style="fill:#49263E;" width="2615.54" height="10.928"/>
</g>
</svg>
