<?xml version="1.0" encoding="utf-8"?>
<!-- Generator: Adobe Illustrator 27.5.0, SVG Export Plug-In . SVG Version: 6.00 Build 0)  -->
<svg version="1.1" xmlns="http://www.w3.org/2000/svg" xmlns:xlink="http://www.w3.org/1999/xlink" x="0px" y="0px"
	 viewBox="0 0 750 500" style="enable-background:new 0 0 750 500;" xml:space="preserve">
<g id="BACKGROUND">
	<rect style="fill:#FFFFFF;" width="750" height="500"/>
</g>
<g id="OBJECTS">
	<g>
		<g style="opacity:0.3;">
			<path style="fill:#B5D5F0;" d="M0,415.945h750V310c0,0-51.293,29.21-92.293-7.79c-28.185-25.435-105.076,8.047-182.961-9.258
				c-77.885-17.305-133.661-38.538-231.899-12.52c-98.238,26.019-108.737,43.181-134.236,39.85C83.111,316.951,40.533,343,0,318.45
				V415.945z"/>
			<g>
				<g>
					<g>
						<polygon style="fill:#96C0F1;" points="403.595,146.453 403.595,415.333 437.998,415.333 474.746,415.333 474.746,97.689 
													"/>
						<g>
							<g>
								<g>
									<polygon style="fill:#FFFFFF;" points="468.895,125.931 407.862,167.237 407.853,164.123 468.888,122.82 									"/>
									<polygon style="fill:#FFFFFF;" points="468.928,138.141 436.446,160.406 436.435,157.291 468.92,135.025 									"/>
									<polygon style="fill:#FFFFFF;" points="468.966,150.348 453.555,161.44 453.547,158.326 468.954,147.234 									"/>
								</g>
							</g>
							<g>
								<g>
									<polygon style="fill:#FFFFFF;" points="468.895,184.846 407.862,226.149 407.853,223.035 468.888,181.732 									"/>
									<polygon style="fill:#FFFFFF;" points="468.928,197.056 436.446,219.315 436.435,216.205 468.921,193.943 									"/>
									<polygon style="fill:#FFFFFF;" points="468.966,209.262 453.555,220.352 453.547,217.238 468.954,206.151 									"/>
								</g>
							</g>
							<g>
								<g>
									<polygon style="fill:#FFFFFF;" points="468.895,243.758 407.862,285.065 407.853,281.947 468.888,240.645 									"/>
									<polygon style="fill:#FFFFFF;" points="468.928,255.965 436.446,278.23 436.435,275.115 468.921,252.855 									"/>
									<polygon style="fill:#FFFFFF;" points="468.966,268.176 453.555,279.267 453.547,276.151 468.954,265.061 									"/>
								</g>
							</g>
						</g>
						<polygon style="opacity:0.24;fill:#FFFFFF;" points="422.835,415.333 403.595,415.333 403.595,146.453 422.313,133.725 						
							"/>
					</g>
					<g>
						<polygon style="fill:#70AAE3;" points="500.16,146.584 500.643,415.46 488.286,415.399 474.746,415.333 474.746,97.689 						
							"/>
					</g>
				</g>
				<g>
					<g>
						<polygon style="fill:#96C0F1;" points="318.822,415.46 267.305,415.46 267.305,155.965 291.566,144.795 318.822,155.965 
													"/>
						<g>
							<polygon style="fill:#FFFFFF;" points="313.912,407.987 282.342,407.987 282.727,400.54 313.912,400.54 							"/>
							<polygon style="fill:#FFFFFF;" points="313.912,391.241 283.202,391.241 283.567,384.191 313.912,384.191 							"/>
							<polygon style="fill:#FFFFFF;" points="313.912,375.378 284.027,375.378 284.369,368.704 313.912,368.704 							"/>
							<polygon style="fill:#FFFFFF;" points="313.912,360.345 284.799,360.345 285.125,354.006 313.912,354.006 							"/>
							<polygon style="fill:#FFFFFF;" points="313.912,346.072 285.533,346.072 285.846,340.05 313.912,340.05 							"/>
							<polygon style="fill:#FFFFFF;" points="313.912,332.5 286.234,332.5 286.53,326.773 313.912,326.773 							"/>
							<polygon style="fill:#FFFFFF;" points="313.912,319.583 286.899,319.583 287.185,314.123 313.912,314.123 							"/>
							<polygon style="fill:#FFFFFF;" points="313.912,307.274 287.538,307.274 287.806,302.067 313.912,302.067 							"/>
							<polygon style="fill:#FFFFFF;" points="313.912,295.529 288.14,295.529 288.398,290.564 313.912,290.564 							"/>
							<polygon style="fill:#FFFFFF;" points="313.912,284.314 288.723,284.314 288.966,279.565 313.912,279.565 							"/>
							<polygon style="fill:#FFFFFF;" points="313.912,273.593 289.278,273.593 289.511,269.045 313.912,269.045 							"/>
							<polygon style="fill:#FFFFFF;" points="313.912,263.334 289.803,263.334 290.026,258.977 313.912,258.977 							"/>
							<polygon style="fill:#FFFFFF;" points="313.912,253.501 290.31,253.501 290.525,249.324 313.912,249.324 							"/>
							<polygon style="fill:#FFFFFF;" points="313.912,244.078 290.795,244.078 291.001,240.071 313.912,240.071 							"/>
							<polygon style="fill:#FFFFFF;" points="313.912,235.03 291.265,235.03 291.46,231.185 313.912,231.185 							"/>
							<polygon style="fill:#FFFFFF;" points="313.912,226.343 291.712,226.343 291.903,222.65 313.912,222.65 							"/>
							<polygon style="fill:#FFFFFF;" points="313.912,217.993 292.142,217.993 292.324,214.441 313.912,214.441 							"/>
							<polygon style="fill:#FFFFFF;" points="313.912,209.962 292.558,209.962 292.735,206.544 313.912,206.544 							"/>
							<polygon style="fill:#FFFFFF;" points="313.912,202.231 292.957,202.231 293.124,198.934 313.912,198.934 							"/>
							<polygon style="fill:#FFFFFF;" points="313.912,194.779 293.342,194.779 293.505,191.608 313.912,191.608 							"/>
						</g>
					</g>
					<polygon style="opacity:0.3;fill:#F7FFFF;" points="280.02,412.896 272.487,412.896 272.487,158.45 280.02,158.404 					"/>
				</g>
				<g>
					<polygon style="fill:#96C0F1;" points="557.867,414.237 502.566,414.237 502.566,211.179 531.113,180.937 557.867,180.937 
											"/>
					<g>
						<g>
							<g>
								<rect x="509.313" y="240.009" style="fill:#FFFFFF;" width="40.493" height="5.665"/>
							</g>
							<g>
								<rect x="509.313" y="250.838" style="fill:#FFFFFF;" width="40.493" height="5.668"/>
							</g>
							<g>
								<rect x="509.313" y="261.668" style="fill:#FFFFFF;" width="40.493" height="5.668"/>
							</g>
							<g>
								<rect x="509.313" y="272.5" style="fill:#FFFFFF;" width="40.493" height="5.665"/>
							</g>
							<g>
								<rect x="509.313" y="283.329" style="fill:#FFFFFF;" width="40.493" height="5.669"/>
							</g>
							<g>
								<rect x="509.313" y="294.163" style="fill:#FFFFFF;" width="40.493" height="5.663"/>
							</g>
							<g>
								<rect x="509.313" y="304.991" style="fill:#FFFFFF;" width="40.493" height="5.666"/>
							</g>
							<g>
								<rect x="509.313" y="315.82" style="fill:#FFFFFF;" width="40.493" height="5.67"/>
							</g>
							<g>
								<rect x="509.313" y="326.652" style="fill:#FFFFFF;" width="40.493" height="5.667"/>
							</g>
							<g>
								<rect x="509.313" y="337.482" style="fill:#FFFFFF;" width="40.493" height="5.667"/>
							</g>
							<g>
								<rect x="509.313" y="348.314" style="fill:#FFFFFF;" width="40.493" height="5.666"/>
							</g>
							<g>
								<rect x="509.313" y="359.142" style="fill:#FFFFFF;" width="40.493" height="5.672"/>
							</g>
							<g>
								<rect x="509.313" y="369.973" style="fill:#FFFFFF;" width="40.493" height="5.669"/>
							</g>
							<g>
								<rect x="509.313" y="380.802" style="fill:#FFFFFF;" width="40.493" height="5.671"/>
							</g>
							<g>
								<rect x="509.313" y="391.637" style="fill:#FFFFFF;" width="40.493" height="5.664"/>
							</g>
						</g>
						<g>
							<rect x="533.985" y="202.374" style="fill:#FFFFFF;" width="7.195" height="7.193"/>
							<rect x="521.408" y="211.81" style="fill:#FFFFFF;" width="7.191" height="7.192"/>
							<rect x="542.247" y="222.963" style="fill:#FFFFFF;" width="7.195" height="7.196"/>
						</g>
					</g>
					<rect x="557.867" y="180.937" style="fill:#70AAE3;" width="6.843" height="234.523"/>
				</g>
				<g>
					<polygon style="fill:#96C0F1;" points="360.984,415.46 321.911,415.46 321.911,215.386 360.984,195.852 					"/>
					<polygon style="fill:#70AAE3;" points="360.984,415.46 400.054,415.46 400.054,215.386 360.984,195.852 					"/>
					<g>
						<polygon style="fill:#5091CD;" points="396.861,226.737 367.003,211.886 367.003,208.293 396.861,223.145 						"/>
						<polygon style="fill:#5091CD;" points="396.861,237.239 367.003,222.388 367.003,218.792 396.861,233.646 						"/>
						<polygon style="fill:#5091CD;" points="396.861,247.738 367.003,232.887 367.003,229.294 396.861,244.145 						"/>
						<polygon style="fill:#5091CD;" points="396.861,258.239 367.003,243.387 367.003,239.795 396.861,254.644 						"/>
						<polygon style="fill:#5091CD;" points="396.861,268.741 367.003,253.887 367.003,250.293 396.861,265.146 						"/>
						<polygon style="fill:#5091CD;" points="396.861,279.24 367.003,264.386 367.003,260.792 396.861,275.647 						"/>
						<polygon style="fill:#5091CD;" points="396.861,289.742 367.003,274.888 367.003,271.294 396.861,286.146 						"/>
						<polygon style="fill:#5091CD;" points="396.861,300.242 367.003,285.389 367.003,281.796 396.861,296.647 						"/>
						<polygon style="fill:#5091CD;" points="396.861,310.741 367.003,295.891 367.003,292.298 396.861,307.147 						"/>
						<polygon style="fill:#5091CD;" points="396.861,321.243 367.003,306.39 367.003,302.797 396.861,317.651 						"/>
						<polygon style="fill:#5091CD;" points="396.861,331.744 367.003,316.89 367.003,313.298 396.861,328.149 						"/>
						<polygon style="fill:#5091CD;" points="396.861,342.244 367.003,327.393 367.003,323.8 396.861,338.651 						"/>
					</g>
					<g>
						<g>
							<polygon style="fill:#FFFFFF;" points="330.398,225.021 325.161,227.409 325.161,220.765 330.398,218.375 							"/>
							<polygon style="fill:#FFFFFF;" points="337.438,221.612 332.202,224.002 332.202,217.354 337.438,214.966 							"/>
							<polygon style="fill:#FFFFFF;" points="345.174,226.312 339.938,228.701 339.938,222.056 345.174,219.666 							"/>
							<polygon style="fill:#FFFFFF;" points="351.394,215.118 346.158,217.507 346.158,210.861 351.394,208.471 							"/>
							<polygon style="fill:#FFFFFF;" points="338.539,245.11 333.305,247.5 333.305,240.852 338.539,238.464 							"/>
							<polygon style="fill:#FFFFFF;" points="354.852,251.331 349.618,253.717 349.618,247.073 354.852,244.685 							"/>
							<polygon style="fill:#FFFFFF;" points="348.218,261.698 342.983,264.086 342.983,257.439 348.218,255.051 							"/>
							<polygon style="fill:#FFFFFF;" points="341.307,265.152 336.071,267.54 336.071,260.894 341.307,258.502 							"/>
						</g>
						<g>
							<polygon style="fill:#FFFFFF;" points="330.398,294.404 325.161,296.794 325.161,290.147 330.398,287.757 							"/>
							<polygon style="fill:#FFFFFF;" points="345.174,295.697 339.938,298.085 339.938,291.436 345.174,289.047 							"/>
							<polygon style="fill:#FFFFFF;" points="351.394,284.502 346.158,286.893 346.158,280.244 351.394,277.854 							"/>
							<polygon style="fill:#FFFFFF;" points="354.369,309.105 349.136,311.495 349.136,304.848 354.369,302.459 							"/>
							<polygon style="fill:#FFFFFF;" points="330.927,329.453 325.693,331.84 325.693,325.195 330.927,322.805 							"/>
							<polygon style="fill:#FFFFFF;" points="348.218,331.084 342.983,333.472 342.983,326.826 348.218,324.436 							"/>
							<polygon style="fill:#FFFFFF;" points="341.307,334.534 336.071,336.924 336.071,330.278 341.307,327.889 							"/>
						</g>
					</g>
				</g>
				<g>
					<g>
						<polygon style="fill:#96C0F1;" points="603.082,415.46 565.973,415.46 565.973,228.538 583.449,220.492 603.082,228.538 
													"/>
						<g>
							<polygon style="fill:#FFFFFF;" points="599.546,410.077 576.805,410.077 577.082,404.712 599.546,404.712 							"/>
							<polygon style="fill:#FFFFFF;" points="599.546,398.015 577.424,398.015 577.688,392.936 599.546,392.936 							"/>
							<polygon style="fill:#FFFFFF;" points="599.546,386.588 578.019,386.588 578.266,381.78 599.546,381.78 							"/>
							<polygon style="fill:#FFFFFF;" points="599.546,375.759 578.575,375.759 578.81,371.192 599.546,371.192 							"/>
							<polygon style="fill:#FFFFFF;" points="599.546,365.478 579.104,365.478 579.329,361.14 599.546,361.14 							"/>
							<polygon style="fill:#FFFFFF;" points="599.546,355.702 579.609,355.702 579.822,351.577 599.546,351.577 							"/>
							<polygon style="fill:#FFFFFF;" points="599.546,346.397 580.088,346.397 580.294,342.464 599.546,342.464 							"/>
							<polygon style="fill:#FFFFFF;" points="599.546,337.53 580.548,337.53 580.741,333.78 599.546,333.78 							"/>
							<polygon style="fill:#FFFFFF;" points="599.546,329.07 580.981,329.07 581.168,325.493 599.546,325.493 							"/>
							<polygon style="fill:#FFFFFF;" points="599.546,320.991 581.401,320.991 581.576,317.57 599.546,317.57 							"/>
							<polygon style="fill:#FFFFFF;" points="599.546,313.269 581.802,313.269 581.969,309.993 599.546,309.993 							"/>
							<polygon style="fill:#FFFFFF;" points="599.546,305.879 582.179,305.879 582.34,302.739 599.546,302.739 							"/>
							<polygon style="fill:#FFFFFF;" points="599.546,298.797 582.545,298.797 582.699,295.787 599.546,295.787 							"/>
							<polygon style="fill:#FFFFFF;" points="599.546,292.008 582.894,292.008 583.042,289.123 599.546,289.123 							"/>
							<polygon style="fill:#FFFFFF;" points="599.546,285.491 583.232,285.491 583.373,282.721 599.546,282.721 							"/>
							<polygon style="fill:#FFFFFF;" points="599.546,279.232 583.555,279.232 583.692,276.574 599.546,276.574 							"/>
							<polygon style="fill:#FFFFFF;" points="599.546,273.218 583.864,273.218 583.996,270.66 599.546,270.66 							"/>
							<polygon style="fill:#FFFFFF;" points="599.546,267.434 584.163,267.434 584.291,264.972 599.546,264.972 							"/>
							<polygon style="fill:#FFFFFF;" points="599.546,261.864 584.451,261.864 584.571,259.489 599.546,259.489 							"/>
							<polygon style="fill:#FFFFFF;" points="599.546,256.497 584.729,256.497 584.846,254.213 599.546,254.213 							"/>
						</g>
					</g>
					<polygon style="opacity:0.3;fill:#F7FFFF;" points="575.133,413.613 569.706,413.613 569.706,230.328 575.133,230.295 					"/>
				</g>
				<g>
					<polygon style="fill:#96C0F1;" points="631.864,415.46 603.719,415.46 603.719,271.341 631.864,257.27 					"/>
					<polygon style="fill:#70AAE3;" points="631.864,415.46 660.007,415.46 660.007,271.341 631.864,257.27 					"/>
					<g>
						<polygon style="fill:#5091CD;" points="657.707,279.518 636.199,268.819 636.199,266.231 657.707,276.93 						"/>
						<polygon style="fill:#5091CD;" points="657.707,287.082 636.199,276.385 636.199,273.794 657.707,284.494 						"/>
						<polygon style="fill:#5091CD;" points="657.707,294.645 636.199,283.947 636.199,281.359 657.707,292.057 						"/>
						<polygon style="fill:#5091CD;" points="657.707,302.21 636.199,291.511 636.199,288.923 657.707,299.619 						"/>
						<polygon style="fill:#5091CD;" points="657.707,309.774 636.199,299.074 636.199,296.484 657.707,307.184 						"/>
						<polygon style="fill:#5091CD;" points="657.707,317.337 636.199,306.637 636.199,304.048 657.707,314.748 						"/>
						<polygon style="fill:#5091CD;" points="657.707,324.901 636.199,314.201 636.199,311.613 657.707,322.311 						"/>
						<polygon style="fill:#5091CD;" points="657.707,332.465 636.199,321.766 636.199,319.178 657.707,329.875 						"/>
						<polygon style="fill:#5091CD;" points="657.707,340.028 636.199,329.33 636.199,326.742 657.707,337.44 						"/>
						<polygon style="fill:#5091CD;" points="657.707,347.593 636.199,336.894 636.199,334.306 657.707,345.006 						"/>
						<polygon style="fill:#5091CD;" points="657.707,355.157 636.199,344.457 636.199,341.87 657.707,352.568 						"/>
						<polygon style="fill:#5091CD;" points="657.707,362.721 636.199,352.023 636.199,349.435 657.707,360.132 						"/>
					</g>
					<g>
						<g>
							<polygon style="fill:#FFFFFF;" points="609.832,278.281 606.06,280.001 606.06,275.215 609.832,273.493 							"/>
							<polygon style="fill:#FFFFFF;" points="614.902,275.826 611.131,277.547 611.131,272.758 614.902,271.038 							"/>
							<polygon style="fill:#FFFFFF;" points="620.476,279.211 616.704,280.932 616.704,276.145 620.476,274.424 							"/>
							<polygon style="fill:#FFFFFF;" points="624.956,271.147 621.184,272.869 621.184,268.081 624.956,266.36 							"/>
							<polygon style="fill:#FFFFFF;" points="615.696,292.751 611.926,294.474 611.926,289.685 615.696,287.964 							"/>
							<polygon style="fill:#FFFFFF;" points="627.446,297.232 623.676,298.952 623.676,294.166 627.446,292.445 							"/>
							<polygon style="fill:#FFFFFF;" points="622.668,304.701 618.897,306.42 618.897,301.632 622.668,299.912 							"/>
							<polygon style="fill:#FFFFFF;" points="617.69,307.189 613.919,308.909 613.919,304.122 617.69,302.398 							"/>
						</g>
						<g>
							<polygon style="fill:#FFFFFF;" points="609.832,328.26 606.06,329.981 606.06,325.192 609.832,323.471 							"/>
							<polygon style="fill:#FFFFFF;" points="620.476,329.191 616.704,330.911 616.704,326.123 620.476,324.401 							"/>
							<polygon style="fill:#FFFFFF;" points="624.956,321.127 621.184,322.849 621.184,318.061 624.956,316.339 							"/>
							<polygon style="fill:#FFFFFF;" points="627.099,338.85 623.33,340.571 623.33,335.782 627.099,334.063 							"/>
							<polygon style="fill:#FFFFFF;" points="610.213,353.507 606.442,355.226 606.442,350.44 610.213,348.718 							"/>
							<polygon style="fill:#FFFFFF;" points="622.668,354.681 618.897,356.401 618.897,351.614 622.668,349.894 							"/>
							<polygon style="fill:#FFFFFF;" points="617.69,357.167 613.919,358.889 613.919,354.101 617.69,352.38 							"/>
						</g>
					</g>
				</g>
				<g>
					<g>
						<polygon style="fill:#96C0F1;" points="206.668,221.686 206.668,415.369 181.886,415.369 155.416,415.369 155.416,186.56 
													"/>
						<g>
							<g>
								<g>
									<polygon style="fill:#FFFFFF;" points="159.631,206.903 203.595,236.657 203.6,234.414 159.636,204.663 									"/>
									<polygon style="fill:#FFFFFF;" points="159.606,215.699 183.004,231.737 183.012,229.493 159.612,213.455 									"/>
									<polygon style="fill:#FFFFFF;" points="159.579,224.492 170.681,232.482 170.686,230.239 159.588,222.249 									"/>
								</g>
							</g>
							<g>
								<g>
									<polygon style="fill:#FFFFFF;" points="159.631,249.342 203.595,279.094 203.6,276.851 159.636,247.099 									"/>
									<polygon style="fill:#FFFFFF;" points="159.606,258.138 183.004,274.171 183.012,271.931 159.611,255.895 									"/>
									<polygon style="fill:#FFFFFF;" points="159.579,266.929 170.681,274.918 170.686,272.676 159.588,264.689 									"/>
								</g>
							</g>
							<g>
								<g>
									<polygon style="fill:#FFFFFF;" points="159.631,291.778 203.595,321.532 203.6,319.287 159.636,289.535 									"/>
									<polygon style="fill:#FFFFFF;" points="159.606,300.571 183.004,316.61 183.012,314.365 159.611,298.331 									"/>
									<polygon style="fill:#FFFFFF;" points="159.579,309.367 170.681,317.356 170.686,315.111 159.588,307.122 									"/>
								</g>
							</g>
						</g>
						<polygon style="opacity:0.24;fill:#FFFFFF;" points="192.809,415.369 206.668,415.369 206.668,221.686 193.186,212.518 						
							"/>
					</g>
					<g>
						<polygon style="fill:#70AAE3;" points="137.109,221.78 136.762,415.46 145.662,415.416 155.416,415.369 155.416,186.56 						
							"/>
					</g>
				</g>
				<g>
					<polygon style="fill:#96C0F1;" points="94.922,414.579 134.757,414.579 134.757,268.311 114.194,246.526 94.922,246.526 					
						"/>
					<g>
						<g>
							<g>
								<rect x="100.729" y="289.077" style="fill:#FFFFFF;" width="29.169" height="4.081"/>
							</g>
							<g>
								<rect x="100.729" y="296.878" style="fill:#FFFFFF;" width="29.169" height="4.083"/>
							</g>
							<g>
								<rect x="100.729" y="304.679" style="fill:#FFFFFF;" width="29.169" height="4.083"/>
							</g>
							<g>
								<rect x="100.729" y="312.481" style="fill:#FFFFFF;" width="29.169" height="4.081"/>
							</g>
							<g>
								<rect x="100.729" y="320.282" style="fill:#FFFFFF;" width="29.169" height="4.083"/>
							</g>
							<g>
								<rect x="100.729" y="328.086" style="fill:#FFFFFF;" width="29.169" height="4.08"/>
							</g>
							<g>
								<rect x="100.729" y="335.886" style="fill:#FFFFFF;" width="29.169" height="4.081"/>
							</g>
							<g>
								<rect x="100.729" y="343.686" style="fill:#FFFFFF;" width="29.169" height="4.084"/>
							</g>
							<g>
								<rect x="100.729" y="351.489" style="fill:#FFFFFF;" width="29.169" height="4.082"/>
							</g>
							<g>
								<rect x="100.729" y="359.29" style="fill:#FFFFFF;" width="29.169" height="4.082"/>
							</g>
							<g>
								<rect x="100.729" y="367.092" style="fill:#FFFFFF;" width="29.169" height="4.082"/>
							</g>
							<g>
								<rect x="100.729" y="374.892" style="fill:#FFFFFF;" width="29.169" height="4.086"/>
							</g>
							<g>
								<rect x="100.729" y="382.693" style="fill:#FFFFFF;" width="29.169" height="4.084"/>
							</g>
							<g>
								<rect x="100.729" y="390.495" style="fill:#FFFFFF;" width="29.169" height="4.084"/>
							</g>
							<g>
								<rect x="100.729" y="398.299" style="fill:#FFFFFF;" width="29.169" height="4.08"/>
							</g>
						</g>
						<g>
							<rect x="106.941" y="261.968" style="fill:#FFFFFF;" width="5.184" height="5.181"/>
							<rect x="116.005" y="268.765" style="fill:#FFFFFF;" width="5.18" height="5.181"/>
							<rect x="100.99" y="276.799" style="fill:#FFFFFF;" width="5.184" height="5.184"/>
						</g>
					</g>
					<rect x="89.993" y="246.526" style="fill:#70AAE3;" width="4.929" height="168.934"/>
				</g>
				<g>
					<polygon style="fill:#96C0F1;" points="237.361,415.46 265.507,415.46 265.507,271.341 237.361,257.27 					"/>
					<polygon style="fill:#70AAE3;" points="237.361,415.46 209.219,415.46 209.219,271.341 237.361,257.27 					"/>
					<g>
						<polygon style="fill:#5091CD;" points="211.519,279.518 233.026,268.819 233.026,266.231 211.519,276.93 						"/>
						<polygon style="fill:#5091CD;" points="211.519,287.082 233.026,276.385 233.026,273.794 211.519,284.494 						"/>
						<polygon style="fill:#5091CD;" points="211.519,294.645 233.026,283.947 233.026,281.359 211.519,292.057 						"/>
						<polygon style="fill:#5091CD;" points="211.519,302.21 233.026,291.511 233.026,288.924 211.519,299.619 						"/>
						<polygon style="fill:#5091CD;" points="211.519,309.774 233.026,299.074 233.026,296.485 211.519,307.184 						"/>
						<polygon style="fill:#5091CD;" points="211.519,317.337 233.026,306.637 233.026,304.048 211.519,314.748 						"/>
						<polygon style="fill:#5091CD;" points="211.519,324.901 233.026,314.201 233.026,311.613 211.519,322.311 						"/>
						<polygon style="fill:#5091CD;" points="211.519,332.465 233.026,321.766 233.026,319.178 211.519,329.875 						"/>
						<polygon style="fill:#5091CD;" points="211.519,340.028 233.026,329.33 233.026,326.742 211.519,337.44 						"/>
						<polygon style="fill:#5091CD;" points="211.519,347.593 233.026,336.894 233.026,334.306 211.519,345.006 						"/>
						<polygon style="fill:#5091CD;" points="211.519,355.157 233.026,344.457 233.026,341.87 211.519,352.568 						"/>
						<polygon style="fill:#5091CD;" points="211.519,362.721 233.026,352.023 233.026,349.435 211.519,360.132 						"/>
					</g>
					<g>
						<g>
							<polygon style="fill:#FFFFFF;" points="259.394,278.281 263.165,280.001 263.165,275.215 259.394,273.493 							"/>
							<polygon style="fill:#FFFFFF;" points="254.323,275.826 258.094,277.547 258.094,272.758 254.323,271.038 							"/>
							<polygon style="fill:#FFFFFF;" points="248.75,279.211 252.521,280.932 252.521,276.145 248.75,274.424 							"/>
							<polygon style="fill:#FFFFFF;" points="244.27,271.147 248.041,272.869 248.041,268.081 244.27,266.36 							"/>
							<polygon style="fill:#FFFFFF;" points="253.529,292.751 257.3,294.474 257.3,289.685 253.529,287.964 							"/>
							<polygon style="fill:#FFFFFF;" points="241.779,297.232 245.549,298.952 245.549,294.166 241.779,292.445 							"/>
							<polygon style="fill:#FFFFFF;" points="246.558,304.701 250.328,306.42 250.328,301.632 246.558,299.912 							"/>
							<polygon style="fill:#FFFFFF;" points="251.536,307.189 255.307,308.909 255.307,304.122 251.536,302.398 							"/>
						</g>
						<g>
							<polygon style="fill:#FFFFFF;" points="259.394,328.26 263.165,329.981 263.165,325.192 259.394,323.471 							"/>
							<polygon style="fill:#FFFFFF;" points="248.75,329.191 252.521,330.911 252.521,326.123 248.75,324.401 							"/>
							<polygon style="fill:#FFFFFF;" points="244.27,321.127 248.041,322.849 248.041,318.061 244.27,316.339 							"/>
							<polygon style="fill:#FFFFFF;" points="242.127,338.85 245.895,340.571 245.895,335.782 242.127,334.063 							"/>
							<polygon style="fill:#FFFFFF;" points="259.013,353.507 262.782,355.226 262.782,350.44 259.013,348.718 							"/>
							<polygon style="fill:#FFFFFF;" points="246.558,354.681 250.328,356.401 250.328,351.614 246.558,349.894 							"/>
							<polygon style="fill:#FFFFFF;" points="251.536,357.167 255.307,358.889 255.307,354.101 251.536,352.38 							"/>
						</g>
					</g>
				</g>
			</g>
		</g>
		<g>
			<g>
				<path style="fill:#BCBEC0;" d="M632.323,416.854c0,1.011-54.318,1.833-121.325,1.833c-67.006,0-121.326-0.822-121.326-1.833
					c0-1.012,54.32-1.831,121.326-1.831C578.005,415.023,632.323,415.843,632.323,416.854z"/>
				<g>
					<g>
						<g>
							<g>
								<g>
									<path style="fill:#FFE100;" d="M419.711,304.639c0,0-0.508-9.139-2.219-11.172c-1.698-2.033-10.508-2.497-17.061-1.161
										c-6.559,1.332-6.973,0.882-6.973,3.717c0,2.834-1.303,5.323,3.064,5.814C400.89,302.337,419.711,304.639,419.711,304.639z"
										/>
								</g>
								<path style="opacity:0.4;fill:#FFE100;" d="M417.492,293.467c-1.222-1.465-6.13-2.1-11.23-1.852
									c8.604,1.031,9.605,5.951,7.813,8.865c-1.797,2.921-13.379,0.564-16.971,0.451c-3.598-0.115-3.677-4.185-3.677-4.185l0,0
									c-0.159,2.523-0.894,4.64,3.097,5.09c4.366,0.5,23.188,2.802,23.188,2.802S419.203,295.5,417.492,293.467z"/>
							</g>
							<g>
								<g>
									<path style="fill:#FFE100;" d="M592.339,304.639c0,0,0.509-9.139,2.217-11.172c1.698-2.033,10.509-2.497,17.061-1.161
										c6.563,1.331,6.972,0.882,6.972,3.716c0,2.835,1.305,5.324-3.06,5.815C611.16,302.337,592.339,304.639,592.339,304.639z"/>
								</g>
								<path style="opacity:0.4;fill:#FFE100;" d="M594.556,293.467c1.228-1.465,6.134-2.102,11.229-1.852
									c-8.603,1.031-9.602,5.951-7.807,8.865c1.796,2.921,13.372,0.564,16.969,0.451c3.593-0.115,3.674-4.186,3.674-4.186l0,0
									c0.162,2.525,0.894,4.642-3.093,5.092c-4.368,0.5-23.189,2.802-23.189,2.802S592.848,295.5,594.556,293.467z"/>
							</g>
						</g>
						<g>
							<path style="fill:#414042;" d="M480.5,264.802c0,0,5.521-8.15,7.495-10.633c1.709-2.156,3.662-2.535,5.73-2.535
								c1.724,0,9.38-0.131,11.893-0.172v-0.014c0,0,0.156,0.005,0.415,0.008c0.246-0.003,0.404-0.008,0.404-0.008v0.014
								c2.513,0.041,10.171,0.172,11.893,0.172c2.055,0,4.028,0.379,5.733,2.535c1.977,2.482,7.49,10.633,7.49,10.633H480.5z"/>
							<path style="opacity:0.3;fill:#414042;" d="M480.5,264.802h51.055c0,0-5.514-8.15-7.49-10.633
								c-1.704-2.156-3.678-2.535-5.733-2.535c-1.045,0-4.265-0.049-7.203-0.096c0.008,0,0.008,0,0.008,0
								c12.561,0.942,12.472,6.988,9.172,8.059c-3.295,1.069-27.62,0.891-31.805,0.623c-4.106-0.263-0.884-5.523-0.757-5.73
								C485.616,257.249,480.5,264.802,480.5,264.802z"/>
						</g>
						<g>
							<path style="fill:#231F20;" d="M428.318,412.944c0,2.27-1.858,4.127-4.125,4.127H409.06c-2.269,0-4.128-1.857-4.128-4.127
								v-41.262c0-2.27,1.859-4.13,4.128-4.13h15.134c2.267,0,4.125,1.86,4.125,4.13V412.944z"/>
							<path style="fill:#231F20;" d="M607.127,412.944c0,2.27-1.86,4.127-4.128,4.127h-15.134c-2.267,0-4.125-1.857-4.125-4.127
								v-41.262c0-2.27,1.858-4.13,4.125-4.13h15.134c2.268,0,4.128,1.86,4.128,4.13V412.944z"/>
						</g>
						<g>
							<path style="fill:#FFE100;" d="M606.662,315.785c-8.166-7.819-37.653-44.945-40.016-47.023
								c-6.097-5.879-14.265-6.852-29.407-6.852c-15.14,0-31.212,0-31.212,0s-20.278,0-35.418,0c-15.145,0-22.761,2.362-26.734,5.94
								c-5.168,2.783-30.31,40.115-38.476,47.935c-8.268,7.923-10.843,38.782-9.349,57.525c1.537,19.274,7.828,18.013,23.724,21.169
								c15.969,3.169,86.253,4.438,86.253,4.438s70.286-1.269,86.26-4.438c15.895-3.156,22.185-1.895,23.72-21.169
								C617.502,354.567,614.926,323.708,606.662,315.785z"/>
							<path style="opacity:0.3;fill:#FFE100;" d="M616.007,373.311c1.495-18.743-1.081-49.603-9.345-57.525
								c-4.525-4.331-15.578-17.645-24.953-29.019l0,0c0,0,21.749,28.452,20.185,36.841c-0.445,2.389-16.643,5.916-20.663,9.194
								c-10.102,8.23-13.609,16.913-13.609,16.913s34.947-2.006,41.006-0.199c6.06,1.804,4.393,15.845-2.182,16.877
								c-6.578,1.033-25.281,6.975-29.615,9.978c-4.335,3.005-10.669,7.781-24.006,9.889c-13.333,2.114-68.462,1.113-87.134-0.331
								c-18.67-1.445-16.009,2.445-21.009,6.337c-5.002,3.89-9.224,1.669-19.783-0.113c-10.556-1.774-17.692-7.497-17.692-7.497
								c-5.342-8.483,22.739-8.841,22.739-8.841c-5.856-4.754-14.961-6.557-22.87-8.962c-7.906-2.403-6.819-11.331-4.291-15.281
								c2.532-3.95,8.14-2.068,16.737-1.035c8.594,1.03,24.406-0.899,24.406-0.899s-5.563-13.647-8.248-15.375
								c-2.686-1.731-25.583-9.746-27.583-11.876c-1.998-2.13,1.099-4.347,3.848-8.131c2.718-3.741,27.873-42.232,28.383-43.015
								c-8.761,9.911-27.973,37.886-34.928,44.545c-8.268,7.923-10.843,38.782-9.349,57.525
								c1.537,19.274,7.828,18.013,23.724,21.169c15.969,3.169,86.253,4.438,86.253,4.438s70.286-1.269,86.26-4.438
								C608.183,391.323,614.472,392.585,616.007,373.311z"/>
						</g>
						<g>
							<path style="fill:#FDBB30;" d="M587.583,301.793c-1.255-4.117-16.446-22.902-21.691-27.554
								c-5.248-4.652-9.955-5.369-18.627-6.08c-8.688-0.717-37.083-1.789-41.24-1.789c-4.158,0-32.551,1.072-41.231,1.789
								c-8.678,0.711-13.388,1.429-18.625,6.08c-5.246,4.651-20.439,23.436-21.703,27.554c-1.256,4.109,1.628,6.256,12.299,5.006
								c10.669-1.25,69.261-1.068,69.261-1.068s58.6-0.182,69.264,1.068C585.956,308.049,588.849,305.902,587.583,301.793z"/>
							<g>
								<path style="fill:#A9B4B8;" d="M585.021,301.935c-1.227-3.948-15.94-21.994-21.016-26.461
									c-5.081-4.468-9.635-5.152-18.045-5.842c-8.403-0.686-35.903-1.721-39.933-1.721c-4.031,0-31.521,1.034-39.934,1.721
									c-8.409,0.69-12.96,1.374-18.04,5.842c-5.077,4.467-19.794,22.513-21.018,26.461c-1.229,3.955,1.578,6.015,11.911,4.814
									c10.333-1.204,67.08-1.033,67.08-1.033s56.751-0.172,67.087,1.033C583.446,307.949,586.248,305.89,585.021,301.935z"/>
								<path style="fill:#414042;" d="M573.111,306.749c10.333,1.2,13.137-0.859,11.903-4.814
									c-1.213-3.913-15.636-21.628-20.852-26.309c0.985,1.52,9.541,14.868,14.283,26.199c-6.229-1.063-12.863-1.983-19.825-2.766
									v-18.255c0-2.269-1.855-4.128-4.127-4.128h-16.545c-2.265,0-4.126,1.859-4.126,4.128v16.211
									c-8.955-0.489-18.254-0.756-27.814-0.756c-9.56,0-18.858,0.267-27.811,0.756v-16.211c0-2.269-1.861-4.128-4.127-4.128
									h-16.543c-2.274,0-4.13,1.859-4.13,4.128v18.255c-6.961,0.782-13.596,1.705-19.822,2.768
									c4.664-11.147,13.014-24.241,14.216-26.103c-5.289,4.803-19.551,22.322-20.754,26.21c-1.229,3.955,1.578,6.015,11.911,4.814
									c10.333-1.204,67.077-1.033,67.077-1.033S562.778,305.544,573.111,306.749z"/>
								<path style="opacity:0.2;fill:#00EBFF;" d="M585.021,301.935c-1.227-3.948-15.94-21.994-21.016-26.461
									c-5.081-4.468-9.635-5.152-18.045-5.842c-8.403-0.686-35.903-1.721-39.933-1.721c-4.031,0-31.521,1.034-39.934,1.721
									c-8.409,0.69-12.96,1.374-18.04,5.842c-5.077,4.467-19.794,22.513-21.018,26.461c-1.229,3.955,1.578,6.015,11.911,4.814
									c10.333-1.204,67.08-1.033,67.08-1.033s56.751-0.172,67.087,1.033C583.446,307.949,586.248,305.89,585.021,301.935z"/>
								<g>
									<defs>
										<path id="SVGID_1_" d="M585.021,301.935c-1.227-3.948-15.94-21.994-21.016-26.461c-5.081-4.468-9.635-5.152-18.045-5.842
											c-8.403-0.686-35.903-1.721-39.933-1.721c-4.031,0-31.521,1.034-39.934,1.721c-8.409,0.69-12.96,1.374-18.04,5.842
											c-5.077,4.467-19.794,22.513-21.018,26.461c-1.229,3.955,1.578,6.015,11.911,4.814c10.333-1.204,67.08-1.033,67.08-1.033
											s56.751-0.172,67.087,1.033C583.446,307.949,586.248,305.89,585.021,301.935z"/>
									</defs>
									<clipPath id="SVGID_00000050636066252495664930000014262329951269787567_">
										<use xlink:href="#SVGID_1_"  style="overflow:visible;"/>
									</clipPath>
									<g style="opacity:0.3;clip-path:url(#SVGID_00000050636066252495664930000014262329951269787567_);">
										<polygon style="fill:#FFFFFF;" points="477.924,308.215 412.727,308.215 451.137,263.74 516.337,263.74 										"/>
										<polygon style="fill:#FFFFFF;" points="499.541,308.215 483.033,308.215 521.449,263.74 537.952,263.74 										"/>
									</g>
								</g>
							</g>
						</g>
						<g>
							<path style="fill:#323232;" d="M568.709,396.787c-0.354-0.393-0.611-0.667-0.759-0.797
								c-6.101-5.877-14.266-6.848-29.409-6.848c-15.143,0-31.212,0-31.212,0s-20.276,0-35.418,0
								c-15.144,0-22.761,2.36-26.734,5.939c-0.45,0.243-1.102,0.831-1.829,1.554c26.441,1.604,63.981,2.282,63.981,2.282
								S542.473,398.28,568.709,396.787z"/>
							<g>
								<g>
									<g>
										<path style="fill:#323232;" d="M573.558,390.936c0,0,1.979-12.552,12.796-15.22c10.813-2.671,23.709-5.186,23.709-5.186
											s2.815-0.147,1.93,2.223c-0.894,2.372-1.063,10.523-5.426,13.188C602.209,388.607,572.572,395.574,573.558,390.936z"/>
										<path style="fill:#414042;" d="M599.595,381.651c0,3.23-2.616,5.845-5.849,5.845c-3.228,0-5.84-2.614-5.84-5.845
											c0-3.224,2.612-5.847,5.84-5.847C596.978,375.805,599.595,378.428,599.595,381.651z"/>
									</g>
									<g>
										<path style="fill:#323232;" d="M399.917,372.08c0,0,1.98,12.552,12.796,15.224c10.815,2.665,23.707,5.184,23.707,5.184
											s2.82,0.15,1.926-2.222c-0.889-2.372-1.059-10.518-5.421-13.191C428.567,374.409,398.928,367.447,399.917,372.08z"/>
										<path style="fill:#414042;" d="M425.95,381.367c0-3.228-2.616-5.847-5.847-5.847c-3.226,0-5.842,2.619-5.842,5.847
											c0,3.229,2.616,5.847,5.842,5.847C423.334,387.214,425.95,384.597,425.95,381.367z"/>
									</g>
								</g>
								<g>
									<path style="fill:#FDBB30;" d="M592.583,357.231c-8.362,1.714-19.686,4.009-27.773,11.155
										c-8.095,7.152-12.132,12.016-24.267,12.586c-12.137,0.574-34.519,1.516-34.519,1.516s-22.383-0.941-34.515-1.516
										c-12.131-0.57-16.172-5.434-24.27-12.586c-8.087-7.146-19.416-9.441-27.772-11.155c-8.357-1.72-20.762-7.438-20.762-7.438
										c4.586,5.15,19.422,10.299,32.085,12.873c12.678,2.572,23.732,17.169,31.282,20.309c7.548,3.148,43.951,2.577,43.951,2.577
										s36.406,0.571,43.952-2.577c7.552-3.143,18.609-17.736,31.279-20.309c12.675-2.574,27.503-7.723,32.091-12.875
										C613.347,349.791,600.94,355.511,592.583,357.231z"/>
									<g>
										<g>
											<path style="fill:#414042;" d="M514.269,360.039c-4.531,0.23-11.948,0.23-16.481,0l-36.484-0.853
												c-4.528-0.311-5.286,1.691-1.691,4.462c0,0,2.4,1.842,8.591,6.656c6.189,4.819,29.573,4.628,29.573,4.628
												c4.54-0.033,11.965-0.033,16.505,0c0,0,23.385,0.191,29.574-4.628c6.188-4.815,8.589-6.656,8.589-6.656
												c3.596-2.771,2.841-4.78-1.688-4.468L514.269,360.039z"/>
											<path style="opacity:0.3;fill:#414042;" d="M550.756,359.181l-36.486,0.858c-2.531,0.13-5.956,0.185-9.277,0.168
												c0.005,0.001,0.016,0.001,0.024,0.001c38.762,0.906,32.842,9.46,8.825,11.42c-24.017,1.958-47.302-2.615-47.302-2.615
												v0.003c0.526,0.408,1.062,0.822,1.663,1.289c6.189,4.819,29.573,4.628,29.573,4.628c4.54-0.033,11.965-0.033,16.505,0
												c0,0,23.385,0.191,29.574-4.628c6.188-4.815,8.589-6.656,8.589-6.656C556.04,360.878,555.285,358.868,550.756,359.181z"
												/>
										</g>
										<g>
											<g>
												<path style="fill:#FDBB30;" d="M506.024,334.707c-9.748-0.628-56.411,0.748-56.411,0.748
													c9.594,1.189,56.411,2.376,56.411,2.376s46.818-1.187,56.416-2.376C562.44,335.455,513.81,334.109,506.024,334.707z"/>
												<path style="fill:#FDBB30;" d="M506.024,344.068c-8.461-0.616-48.976,0.756-48.976,0.756
													c8.328,1.186,48.976,2.38,48.976,2.38s40.647-1.194,48.972-2.38C554.996,344.824,512.787,343.479,506.024,344.068z"/>
												<path style="fill:#FDBB30;" d="M506.024,349.791c-6.513-0.621-37.688,0.755-37.688,0.755
													c6.404,1.184,37.688,2.377,37.688,2.377s31.282-1.193,37.689-2.377C543.714,350.546,511.227,349.198,506.024,349.791z"
													/>
											</g>
											<g>
												<g>
													<path style="fill:#F6F6F6;" d="M565.546,347.211c0,0,6.569-11.796,10.827-12.948
														c3.244-0.885,26.549-8.251,26.549-8.251s3.091-0.261,2.576,2.835c-0.517,3.093-2.918,14.6-2.918,14.6
														s-0.838,2.027-3.115,2.978c-5.083,2.12-32.765,3.334-32.765,3.334S564.514,349.471,565.546,347.211z"/>
													<path style="fill:#CFE0F3;" d="M602.922,326.012c0,0-1.022,0.326-2.616,0.826c6.324,0.623,2.109,13.174-1.373,16.789
														c-3.483,3.619-26.518,4.154-29.197,2.546c-2.664-1.597,5.514-11.33,5.62-11.453c-4.213,2.451-9.81,12.491-9.81,12.491
														c-1.032,2.26,1.154,2.547,1.154,2.547s27.682-1.214,32.765-3.334c2.277-0.95,3.115-2.978,3.115-2.978
														s2.401-11.507,2.918-14.6C606.013,325.751,602.922,326.012,602.922,326.012z"/>
												</g>
												<g>
													<path style="fill:#F6F6F6;" d="M446.508,347.211c0,0-6.569-11.794-10.822-12.949c-3.246-0.884-26.554-8.25-26.554-8.25
														s-3.091-0.261-2.575,2.835c0.516,3.093,2.917,14.6,2.917,14.6s0.838,2.027,3.117,2.978
														c5.08,2.12,32.763,3.334,32.763,3.334S447.538,349.471,446.508,347.211z"/>
													<path style="fill:#CFE0F3;" d="M409.132,326.012c0,0,1.023,0.326,2.618,0.827c-6.327,0.623-2.11,13.173,1.37,16.788
														c3.482,3.619,26.519,4.154,29.198,2.546c2.664-1.597-5.516-11.33-5.619-11.453c4.209,2.453,9.809,12.491,9.809,12.491
														c1.03,2.26-1.154,2.547-1.154,2.547s-27.683-1.214-32.763-3.334c-2.279-0.95-3.117-2.978-3.117-2.978
														s-2.401-11.507-2.917-14.6C406.041,325.751,409.132,326.012,409.132,326.012z"/>
												</g>
											</g>
										</g>
									</g>
								</g>
							</g>
						</g>
					</g>
					<g>
						<path style="fill:#FC642B;" d="M505.453,189.832c-10.311,0-18.688,8.181-19.046,18.405h-0.036c0,0-2.462,11.075,18.998,31.739
							c9.617-9.261,14.424-16.592,16.805-21.868c1.503-2.726,2.363-5.858,2.363-9.194
							C524.537,198.373,515.992,189.832,505.453,189.832z M505.453,216.963c-4.448,0-8.049-3.602-8.049-8.049
							c0-4.445,3.601-8.05,8.049-8.05c4.447,0,8.05,3.605,8.05,8.05C513.503,213.361,509.9,216.963,505.453,216.963z"/>
					</g>
				</g>
			</g>
			<g>
				<path style="fill:#BCBEC0;" d="M392.94,416.854c0,1.011-34.828,1.833-77.791,1.833c-42.964,0-77.793-0.822-77.793-1.833
					c0-1.012,34.829-1.831,77.793-1.831C358.112,415.023,392.94,415.843,392.94,416.854z"/>
				<g>
					<g>
						<g>
							<g>
								<g>
									<path style="fill:#E6E7E8;" d="M384.733,395.997c0,8.316-6.803,15.121-15.118,15.121l-111.647-0.002
										c-8.317,0-15.121-6.803-15.121-15.119V160.492c0-8.317,6.804-15.121,15.121-15.119h111.647
										c8.315,0.001,15.118,6.805,15.118,15.122V395.997z"/>
								</g>
								<path d="M369.188,137.285l-110.794-0.003c-12.277-0.003-22.319,10.044-22.319,22.321V394.75
									c0,12.276,10.042,22.321,22.319,22.321h110.794c12.275,0,22.32-10.045,22.32-22.321V159.606
									C391.508,147.331,381.463,137.287,369.188,137.285z M384.733,395.997c0,8.316-6.803,15.121-15.118,15.121l-111.647-0.002
									c-8.317,0-15.121-6.803-15.121-15.119V160.492c0-8.317,6.804-15.121,15.121-15.119h14.752v3.387
									c0,6.053,4.952,11.003,11.006,11.003h60.13c6.054,0,11.009-4.952,11.009-11.003v-3.387h14.751
									c8.315,0.001,15.118,6.805,15.118,15.122V395.997z"/>
							</g>
							<g>
								<path style="fill:#414042;" d="M383.707,142.712c3.376,3.913,5.437,8.99,5.437,14.531v235.143
									c0,12.276-10.046,22.322-22.321,22.322H256.03c-5.538,0-10.607-2.058-14.52-5.425c4.101,4.756,10.149,7.787,16.883,7.787
									h110.794c12.275,0,22.32-10.045,22.32-22.321V159.606C391.508,152.867,388.471,146.814,383.707,142.712z"/>
							</g>
							<g>
								<path style="fill:#58595B;" d="M259.182,412.332h111.65c8.314,0,15.12-6.803,15.12-15.117V161.71
									c0-4.466-1.974-8.482-5.079-11.258c2.392,2.677,3.86,6.191,3.86,10.042v235.502c0,8.316-6.803,15.121-15.118,15.121
									l-111.647-0.002c-3.852,0-7.366-1.47-10.044-3.861C250.7,410.359,254.717,412.332,259.182,412.332z"/>
								<path style="fill:#58595B;" d="M237.288,395.966V160.821c0-12.279,10.043-22.325,22.322-22.324l110.792,0.005
									c5.832,0,11.14,2.284,15.128,5.979c-4.085-4.408-9.898-7.193-16.343-7.195l-110.794-0.003
									c-12.277-0.003-22.319,10.044-22.319,22.321V394.75c0,6.447,2.785,12.26,7.193,16.344
									C239.574,407.107,237.288,401.797,237.288,395.966z"/>
							</g>
						</g>
					</g>
					<g>
						<defs>
							<path id="SVGID_00000127736171280466751000000004958121063050826151_" d="M384.733,395.997
								c0,8.316-6.803,15.121-15.118,15.121l-111.647-0.002c-8.317,0-15.121-6.803-15.121-15.119V160.492
								c0-8.317,6.804-15.121,15.121-15.119h14.752v3.387c0,6.053,4.952,11.003,11.006,11.003h60.13
								c6.054,0,11.009-4.952,11.009-11.003v-3.387h14.751c8.315,0.001,15.118,6.805,15.118,15.122V395.997z"/>
						</defs>
						<clipPath id="SVGID_00000149372139470646155290000008627427246466822330_">
							<use xlink:href="#SVGID_00000127736171280466751000000004958121063050826151_"  style="overflow:visible;"/>
						</clipPath>
						<g style="clip-path:url(#SVGID_00000149372139470646155290000008627427246466822330_);">
							<g>
								<g>
									<g>
										<g>
											<g>
												<g>
													<polygon style="fill:#C8E0AE;" points="368.036,175.79 467.926,163.555 458.328,161.382 328.289,161.382 													
														"/>
													<polygon style="fill:#62DAAE;" points="335.535,226.221 388.456,216.41 508.344,291.964 484.863,302.385 
														421.189,251.438 													"/>
												</g>
												<g>
													<path style="fill:#A4D1FF;" d="M198.507,181.371l11.871-15.086c0,0,66.896-3.641,79.865-1.756
														c13.284,1.931,16.652-0.162,23.459,0c6.824,0.161,16.987,4.208,11.607,7.527c-6.553,3.917-12.529,3.954-23.158,2.698
														c-10.465-1.241-15.492-2.636-23.875-0.18C256.363,181.42,203.023,180.997,198.507,181.371z"/>
													<path style="fill:#A4C3E5;" d="M540.998,263.408c-8.205-3.447-17.705-3.935-23.213-9.645
														c-5.291-5.489-7.534-6.385-11.605-8.597c-4.009-2.179-8.991-0.367-16.972-2.61c-11.074-3.329-16.613-0.76-10.41,6.954
														c5.995,8.137,21.462,8.036,24.893,11.427c3.52,3.471,7.159,19.319,35.134,10.663
														C538.825,271.601,548.711,268.7,540.998,263.408z"/>
												</g>
												<g>
													<polygon style="fill:#BCBEC0;" points="507.358,343.378 465.164,368.135 438.666,355.309 488.018,327.726 
																											"/>
													<polygon style="opacity:0.6;fill:#EFEAE4;" points="584.152,456.857 482.746,415.905 498.545,386.096 472.518,372.93 
														512.196,348.332 575.259,398.535 													"/>
													<g>
														<polygon style="fill:#BCBEC0;" points="337.778,294.047 325.219,290.51 330.831,283.671 343.144,287.036 
																													"/>
														<polygon style="fill:#BCBEC0;" points="319.469,318.051 306.116,313.899 312.685,305.889 325.765,309.826 
																													"/>
													</g>
													<g>
														<polygon style="fill:#BCBEC0;" points="365.014,300.899 351.739,297.378 356.709,290.147 369.708,293.49 
																													"/>
														<polygon style="fill:#BCBEC0;" points="357.31,313.317 343.569,309.498 348.96,301.652 362.401,305.275 
																													"/>
														<polygon style="fill:#BCBEC0;" points="304.843,297.307 292.444,293.876 298.831,286.815 310.993,290.076 
																													"/>
														<polygon style="fill:#BCBEC0;" points="344.814,249.125 332.418,246.602 338.802,239.547 350.96,242.99 
																													"/>
														<polygon style="fill:#BCBEC0;" points="515.898,327.191 504.83,318.556 522.496,308.158 532.643,316.148 
																													"/>
														<polygon style="fill:#BCBEC0;" points="251.094,285.853 241.726,280.686 249.934,274.975 259.256,279.92 
																													"/>
														<polygon style="fill:#BCBEC0;" points="234.345,276.594 224.977,271.428 233.186,265.717 242.503,270.662 
																													"/>
														<polygon style="fill:#BCBEC0;" points="274.637,250.428 265.767,247.289 286.918,237.728 293.876,239.874 
																													"/>
														<polygon style="fill:#BCBEC0;" points="348.969,326.345 334.763,322.19 340.608,313.68 354.501,317.608 
																													"/>
													</g>
													<polygon style="fill:#BCBEC0;" points="465.835,178.826 516.465,171.515 524.571,174.787 558.914,171.786 
														559.452,176.659 479.271,184.121 													"/>
													<polygon style="fill:#BCBEC0;" points="459.148,173.263 438.53,176.091 434.662,174.947 455.204,172.157 													
														"/>
													<polygon style="fill:#BCBEC0;" points="494.296,167.794 473.684,170.624 469.816,169.48 490.357,166.69 													
														"/>
													<polygon style="fill:#BCBEC0;" points="532.684,161.121 512.065,163.951 508.205,162.805 528.744,160.013 
																											"/>
													<polygon style="fill:#BCBEC0;" points="422.632,178.518 400.702,181.532 396.979,180.314 418.826,177.341 
																											"/>
													<polygon style="fill:#BCBEC0;" points="315.763,182.131 335.151,183.115 332.754,185.033 312.799,183.903 
																											"/>
													<polygon style="fill:#BCBEC0;" points="284.325,180.472 303.439,181.447 300.725,183.343 281.071,182.227 
																											"/>
													<polygon style="fill:#BCBEC0;" points="230.639,223.155 273.691,217.583 277.202,223.88 230.99,232.208 													
														"/>
													<polygon style="fill:#BCBEC0;" points="334.215,209.36 365.598,203.725 369.414,207.002 336.556,213.941 													
														"/>
													<polygon style="fill:#BCBEC0;" points="462.188,198.687 472.71,198.399 479.869,203.435 469.289,203.751 													
														"/>
													<polygon style="fill:#BCBEC0;" points="419.689,189.069 427.36,187.965 433.866,192.501 424.248,192.926 													
														"/>
													<polygon style="fill:#BCBEC0;" points="491.495,198.117 500.938,197.77 509.105,202.823 499.773,203.246 													
														"/>
												</g>
												<g>
													<polygon style="fill:#62DAAE;" points="328.99,192.602 334.716,187.542 285.359,185.595 216.905,188.014 
														215.796,197.014 264.33,200.812 299.578,192.579 													"/>
													<polygon style="fill:#BCBEC0;" points="308.794,270.465 329.253,252.358 377.42,261.62 385.581,249.355 
														415.332,256.426 435.719,273.03 394.888,292.619 													"/>
													<polygon style="opacity:0.6;fill:#EFEAE4;" points="430.119,180.318 559.933,159.536 559.701,180.297 448.281,190.284 
																											"/>
													<polygon style="opacity:0.6;fill:#EFEAE4;" points="409.022,212.277 417.623,209.813 432.075,211.692 452.246,236.469 
																											"/>
												</g>
												<g>
													<path style="fill:#FFFFFF;" d="M383.051,178.84c0.689,0,25.392-3.15,70.967-9.044l13.333,3.698l-15.948,2.45h-0.003
														l-66.746,10.262c-1.038,0.158-1.658,0.768-1.387,1.36c0.227,0.502,1.019,0.835,1.881,0.835
														c0.167,0,0.339-0.012,0.513-0.041l19.561-3.046l12.029,10.015l-38.792,1.119c-1.128,0.032-2.027,0.613-2.008,1.301
														c0.02,0.673,0.911,1.2,2.01,1.2c0.037,0,0.073,0,0.106-0.003l95.256-2.782l28.316,18.563
														c0.685,0.448,1.553,0.694,2.307,0.694c0.413,0,0.787-0.076,1.07-0.231c0.788-0.44,0.563-1.357-0.5-2.041
														l-26.563-17.121l23.983-0.699l34.228,21.824c0.782,0.498,1.764,0.779,2.553,0.779c0.382,0,0.721-0.064,0.976-0.196
														c0.786-0.415,0.482-1.341-0.676-2.065l-32.618-20.474l36.587-0.874c1.09-0.032,1.534-0.599,0.981-1.26
														c-0.545-0.656-1.865-1.164-2.94-1.13l-86.723,2.314l-4.682-2.919l110.657-9.956c0.985-0.09,1.292-0.644,0.695-1.235
														c-0.593-0.584-1.862-0.982-2.838-0.897l-80.212,7.127l-22.261-8.984l104.87-16.974c0.839-0.129,1.02-0.627,0.41-1.106
														c-0.606-0.476-1.773-0.756-2.602-0.629l-87.065,14.141l-13.168-3.609c7.767-1.005,59.606-9.352,68.403-10.492
														c0.85-0.111,1.124-0.575,0.619-1.034c-0.51-0.457-1.604-0.737-2.446-0.63c-7.969,1.021-61.495,9.568-72.063,10.917
														c-0.007,0-0.015,0.002-0.02,0.002c-31.303,3.998-68.096,8.677-70.227,8.877c-0.919,0.053-1.644,0.474-1.66,0.989
														C381.206,178.389,382.025,178.84,383.051,178.84z M421.873,195.197l-12.85-10.474l20.648-3.217l20.337,12.877
														L421.873,195.197z M473.672,186.795l-26.928,2.432l-13.33-8.301l18.764-2.923L473.672,186.795z"/>
													<path style="fill:#FFFFFF;" d="M583.506,258.949c-1.523-1.084-3.496-1.529-4.439-1l-18.064,10.204l-45.583-25.643
														l30.269,4.876c0.217,0.037,0.429,0.054,0.63,0.054c0.574,0,1.044-0.146,1.317-0.422
														c0.363-0.374,0.347-0.938-0.056-1.534l-19.106-28.569c-0.566-0.839-2.025-1.519-3.28-1.529c-0.011,0-0.023,0-0.035,0
														c-1.23,0-1.795,0.659-1.259,1.49l16.912,26.132l-12.081-1.915l-12.91-17.236c-0.53-0.713-1.651-1.29-2.745-1.428
														l-32.694-4.01c-0.004-0.002-0.012-0.002-0.022-0.002l-37.686-4.625l-7.304-8.127c-0.62-0.693-1.947-1.025-2.98-0.745
														c-1.03,0.282-1.372,1.074-0.761,1.774l22.002,25.14c0.46,0.525,1.214,0.913,2.023,1.045l50.123,8.076l51.359,29.384
														l-70.852,40.02l-69.111-55.352c-0.315-0.25-0.688-0.447-1.102-0.567l-103.5-30.771
														c-1.089-0.323-2.599,0.086-3.367,0.924c-0.775,0.841-0.514,1.802,0.587,2.137l17.508,5.297l-34.145,27.27
														l-13.212-3.977l29.191-16.621c0.735-0.42,1.214-1.024,1.287-1.621c0.063-0.589-0.278-1.097-0.923-1.355l-18.841-7.544
														c-1.01-0.407-2.601-0.057-3.551,0.788c-0.959,0.847-0.925,1.877,0.096,2.294l16.145,6.599l-27.928,15.624
														c-0.185,0.102-0.35,0.208-0.505,0.326l-21.704-6.53c-0.611-0.186-1.437-0.122-2.261,0.178l-40.003,14.034l6.186-16.08
														c0.401-1.03-0.524-1.672-2.046-1.442c-1.529,0.229-3.109,1.246-3.526,2.284l-22.292,54.721
														c-0.013,0.02-0.025,0.039-0.037,0.063c-0.178,0.313-0.28,0.608-0.346,0.887l-71.124,174.646
														c-1.455,3.563-0.692,6.018,1.665,6.018c0.371,0,0.784-0.061,1.232-0.188c3.28-0.938,7.225-5.057,8.787-9.132
														l65.313-169.715l56.51-5.751c0.975-0.059,2.045-0.509,2.919-1.22l77.475-63.235l51.298,15.529l-6.909,10.19
														l-47.991-9.145c-1.066-0.205-2.328,0.18-3.104,0.951l-65.389,64.661c-0.896,0.88-1.423,1.969-1.433,2.936
														c-0.017,0.971,0.507,1.714,1.401,2.002l87.381,28.089c0.244,0.287,0.522,0.542,0.86,0.731
														c0.487,0.271,1.017,0.402,1.559,0.402c0.26,0,0.525-0.044,0.783-0.104l52.391,16.842
														c0.361,0.116,0.716,0.172,1.074,0.172c0.598,0,1.175-0.156,1.698-0.458l21.936-12.749
														c0.225-0.097,0.434-0.221,0.636-0.37l20.337-11.816c0.317-0.12,0.606-0.283,0.865-0.506l38.284-22.253l104.097,85.372
														c1.495,1.229,3.021,1.858,4.22,1.858c1.023,0,1.806-0.458,2.129-1.386c0.702-2.007-0.983-5.416-3.729-7.613
														l-101.475-81.274l92.018-53.484C585.539,261.38,585.04,260.045,583.506,258.949z M522.969,240.176l-28.156-4.468
														l-10.366-13.776l27.767,3.456L522.969,240.176z M475.47,232.637c-3.536-4.262-8.163-9.998-10.413-13.121l14.171,1.768
														l9.87,13.517L475.47,232.637z M445.646,217.104l14.29,1.778c1.869,2.941,6.659,9.049,9.679,12.828l-12.642-2.006
														L445.646,217.104z M250.372,251.425l38.013,11.68l-13.562,10.832l-38.229-17.426L250.372,251.425z M252.014,292.154
														l-55.023,5.604l12.191-31.682l20.033-6.843l40.395,18.865L252.014,292.154z M327.699,254.313l49.009,9.511
														c1.242,0.241,2.541-0.243,3.144-1.171l8.027-12.286l26.068,7.89l17.09,14.016l-36.605,17.364l-63.177-15.085
														c-0.249-0.097-0.517-0.168-0.794-0.189l-18.233-4.354L327.699,254.313z M322.548,332.397l32.69-46.508l20.98,5.116
														l-27.676,49.54L322.548,332.397z M293.709,323.363l36.768-43.507l18.938,4.615l-33.383,45.887L293.709,323.363z
														 M307.942,274.362l16.939,4.127l-37.354,42.933l-19.849-6.22L307.942,274.362z M402.764,357.538l-47.34-14.839
														l26.836-50.221l11.105,2.708l6.962,6.161l-12.083,27.357c-0.759,1.721-0.094,3.783,1.539,4.723l27.581,15.861
														L402.764,357.538z M424.998,344.977l-29.041-16.281l9.518-22.795l34.565,30.577L424.998,344.977z M446.206,332.998
														l-46.062-39.656l35.553-17.252l45.371,37.215L446.206,332.998z"/>
													<path style="fill:#FFFFFF;" d="M260.14,201.766l47.521,5.188c0.114,0.011,0.233,0.017,0.346,0.017
														c1.043,0,2.143-0.477,2.569-1.145c0.477-0.74-0.05-1.432-1.164-1.553l-39.917-4.294l29.902-6.208l29.215,0.022h0.007
														h0.011l51.447,0.039h0.003c1.116,0,2.029-0.535,2.042-1.191c0.014-0.65-0.873-1.176-1.973-1.178l-47.605-0.034
														l15.719-13.72c0.567-0.507,0.325-1.115-0.537-1.36c-0.858-0.244-2.017-0.035-2.592,0.466l-11.234,9.566l-27.922-1.094
														l11.525-6.648c0.781-0.45,0.847-1.076,0.153-1.398c-0.691-0.321-1.879-0.226-2.659,0.218l-13.471,7.654l-15.418-0.605
														c-0.085,0-0.173,0-0.266,0l-19.821,0.759l22.529-8.327c0.969-0.358,1.408-0.979,0.977-1.387
														c-0.426-0.402-1.541-0.446-2.507-0.093l-27.547,10.059l-52.311,1.98c-1.104,0.043-2.347,0.569-2.789,1.186
														c-0.438,0.617,0.108,1.089,1.229,1.043l79.13-3.025l46.672,1.85l-3.293,2.872l-27.981-0.021h-0.002
														c-0.246,0-0.501,0.028-0.755,0.078l-37.517,7.693l-64.449-5.16c-1.064-0.08-2.486,0.403-3.192,1.091
														c-0.711,0.688-0.421,1.32,0.647,1.402l54.455,4.417l-28.314,14.006c-1.295,0.64-1.907,1.588-1.357,2.116
														c0.241,0.225,0.658,0.339,1.161,0.339c0.662,0,1.473-0.195,2.216-0.567l30.966-15.534L260.14,201.766z"/>
												</g>
												<path style="fill:#FFD900;" d="M561.922,215.622L417.95,201.441c-0.691-0.077-1.391-0.059-2.049,0.052l-23.555,4.038
													l-13.497-7.953l10.21-7.044c0.813-0.561,1.163-1.3,0.969-2.021c-0.191-0.715-0.91-1.347-1.961-1.739l-59.945-22.835
													c-1.525-0.566-2.604-0.94-4.077-0.08c-1.497,0.874-0.491,1.182,1.044,1.758l54.018,23.795l-8.859,5.851l-157.251,16.996
													c-2.983,0.337-7.8,3.844-8.878,5.682c-0.968,1.651-1.446,4.721,1.006,4.721c0.32,0,0.668-0.022,1.033-0.066
													l164.679-21.747l10.939,6.722l-190.994,36.856c-3.631,0.725-7.42,3.204-8.465,5.581
													c-0.855,1.96-1.692,5.769,0.868,5.769c0.596,0,1.258-0.071,1.985-0.221l204.723-42.994l321.821,202.204
													c3.853,2.396,7.3,3.595,9.777,3.595c2.638,0,7.507-3.691,7.19-6.341c-0.592-5.036-0.571-12.749-8.29-17.248
													L400.851,210.539l17.461-3.091l150.316,18.219c3.189,0.362,3.65-2.261,2.465-4.2
													C569.935,219.561,564.943,215.952,561.922,215.622z"/>
											</g>
											<g>
												<path style="fill:#FFFFFF;" d="M560.744,464.671c-0.959,0-2.033-0.216-3.143-0.669L179.451,317.48
													c-1.844-0.746-1.891-2.54-0.134-3.993c1.725-1.431,4.585-2.009,6.405-1.293l374.948,142.257
													c3.716,1.457,4.548,3.967,4.384,6.972C564.938,463.589,563.078,464.671,560.744,464.671z"/>
											</g>
										</g>
										<g>
											<polygon style="fill:#FFFFFF;" points="240.907,336.806 234.552,334.928 247.401,294.216 253.757,296.091 											"/>
										</g>
									</g>
									<polygon style="fill:#62DAAE;" points="200.098,335.091 445.345,433.577 158.18,444.163 									"/>
								</g>
							</g>
							<g>
								<g>
									<g>
										<path style="fill:#FCA82B;" d="M322.528,364.702l-82.674-32.069l11.169-34.578l83.756-67.812l-14.841-5.801l75.746-15.956
											l-16.83-9.69l100.108-3.436c0,0-1.922-1.544-1.943-1.544l-107.659,2.396l17.084,10.947l-79.221,15.698l20.034,8.34
											l-79.667,65.934l-12.513,37.697l82.256,33.777L322.528,364.702z"/>
									</g>
								</g>
							</g>
						</g>
					</g>
					<g>
						<path style="fill:#FC642B;" d="M317.695,280.211c-18.33,0-33.226,14.538-33.862,32.716h-0.066c0,0-4.37,19.688,33.775,56.423
							c17.098-16.462,25.641-29.494,29.876-38.873c2.669-4.848,4.199-10.414,4.199-16.344
							C351.617,295.397,336.433,280.212,317.695,280.211z M317.695,328.442c-7.908,0-14.313-6.403-14.313-14.31
							c0-7.904,6.404-14.31,14.313-14.31c7.904,0,14.309,6.405,14.309,14.31C332.004,322.039,325.6,328.442,317.695,328.442z"/>
					</g>
					<path style="fill:#6D6E71;" d="M373.412,145.878h-18.548v2.882c0,6.051-4.955,11.003-11.009,11.003h-60.13
						c-6.054,0-11.006-4.95-11.006-11.003v-2.882h-18.554c-6.489,1.698-11.319,7.611-11.319,14.614v12.331h141.887v-12.328
						C384.733,153.491,379.901,147.577,373.412,145.878z"/>
					<path d="M338.168,406.201c0,0.584-0.483,1.065-1.066,1.065H290.48c-0.586,0-1.065-0.481-1.065-1.065v-0.007
						c0-0.584,0.479-1.065,1.065-1.065h46.621c0.584,0,1.066,0.482,1.066,1.065V406.201z"/>
				</g>
			</g>
			<g>
				<path style="fill:#BCBEC0;" d="M120.491,415.781c2.803-0.38,3.239-0.214,14.122-0.996c6.225-0.448,9.55-0.11,18.526,0.829
					c8.976,0.942,14.363,0.16,21.384-2.587c7.021-2.748,9.449-1.897,14.334-1.897c4.885,0,3.447,1.128,11.629,0.747
					c3.072-0.144,5.234-1.162,12.808-0.227c13.639,1.684,22.437,3.838,20.149,4.579c-10.388,3.365-14.848,3.206-23.07,0.05
					c-7.498-2.879-18.894-2.259-25.868,0.311c-14.204,5.233-15.825-0.067-25.635,1.683
					C149.06,420.023,106.437,417.685,120.491,415.781z"/>
				<g>
					<g>
						<g>
							<g>
								<g>
									<path style="fill:#414042;" d="M135.933,409.439c0.464,2.791-1.426,5.426-4.209,5.884c-2.79,0.455-5.421-1.431-5.888-4.216
										c-0.453-2.786,1.432-5.416,4.218-5.881C132.839,404.771,135.476,406.654,135.933,409.439z"/>
									<path style="fill:#343132;" d="M134.186,409.745c0.239,1.44-0.742,2.806-2.181,3.042c-1.442,0.233-2.802-0.742-3.042-2.178
										c-0.232-1.447,0.743-2.805,2.182-3.04C132.582,407.33,133.943,408.301,134.186,409.745z"/>
								</g>
								<polygon style="fill:#A7A9AC;" points="147.469,358.375 146.006,357.896 156.123,327.849 157.588,328.33 								"/>
								<polygon style="fill:#A7A9AC;" points="156.149,359.944 154.677,359.469 164.804,329.424 166.27,329.899 								"/>
								<path style="fill:#59595B;" d="M169.849,328.284c-0.067,1.297-1.548,2.283-3.296,2.198l-11.293-0.554
									c-1.741-0.084-3.117-1.22-3.052-2.516c0.063-1.294,1.548-2.281,3.296-2.194l11.295,0.553
									C168.535,325.86,169.91,326.983,169.849,328.284z"/>
								<path style="fill:#663700;" d="M120.637,392.523c0,0-1.635,14.187,3.637,16.86c5.268,2.689,19.588,4.301,26.738,1.985
									c7.144-2.312,7.424-4.063,10.618-10.553c3.188-6.489,5.963-26.689,6.593-31.48c0.636-4.791-2.339-8.991-7.282-11.44
									c-4.936-2.446-17.888-4.287-21.135-4.177c-3.246,0.107-10.629,2.74-13.252,12.688
									C123.94,376.353,121.803,387.498,120.637,392.523z"/>
								<path style="opacity:0.4;fill:#663700;" d="M160.94,357.896c-4.936-2.446-17.888-4.287-21.135-4.177
									c-0.363,0.011-0.793,0.063-1.255,0.145c7.729-0.486,15.119,4.663,16.834,8.219c1.722,3.552-0.253,26.03-4.86,39.426
									c-3.802,11.045-14.358,10.675-17.954,10.197c6.23,1.011,13.827,1.16,18.441-0.336c7.144-2.312,7.424-4.063,10.618-10.553
									c3.188-6.489,5.963-26.689,6.593-31.48C168.858,364.545,165.884,360.345,160.94,357.896z"/>
								<g>
									<path style="fill:#414042;" d="M159.311,411.126c0.455,2.782-1.427,5.415-4.22,5.877c-2.786,0.458-5.415-1.425-5.872-4.216
										c-0.46-2.791,1.424-5.417,4.214-5.877C156.22,406.454,158.852,408.334,159.311,411.126z"/>
									<path style="fill:#343132;" d="M157.551,411.424c0.24,1.445-0.733,2.804-2.172,3.043c-1.438,0.233-2.795-0.736-3.038-2.178
										c-0.239-1.442,0.732-2.804,2.178-3.037C155.958,409.016,157.317,409.987,157.551,411.424z"/>
								</g>
							</g>
						</g>
						<g>
							<path style="fill:#E9814F;" d="M151.763,366.816c-0.063,0.306-0.398,0.5-0.74,0.42l-19.248-3.961
								c-0.343-0.066-0.572-0.376-0.503-0.679c0.061-0.301,0.386-0.489,0.733-0.42l19.25,3.966
								C151.6,366.219,151.824,366.522,151.763,366.816z"/>
							<path style="fill:#E9814F;" d="M150.858,370.302c-0.061,0.301-0.389,0.492-0.73,0.425l-19.248-3.971
								c-0.345-0.07-0.576-0.375-0.514-0.676c0.058-0.3,0.389-0.489,0.74-0.418l19.242,3.956
								C150.699,369.694,150.921,369.999,150.858,370.302z"/>
							<path style="fill:#E9814F;" d="M149.803,373.727c-0.066,0.303-0.399,0.488-0.741,0.42l-19.243-3.963
								c-0.344-0.076-0.577-0.38-0.513-0.683c0.063-0.298,0.392-0.487,0.732-0.42l19.251,3.971
								C149.635,373.123,149.868,373.426,149.803,373.727z"/>
						</g>
					</g>
					<g>
						<g>
							<g>
								<g>
									<g>
										<path style="fill:#FCB378;" d="M208.498,395.33l7.195,0.045c0,0-0.105,6.473-0.211,7.731
											c-0.106,1.257-3.831,4.162-5.823,2.761L208.498,395.33z"/>
										<path style="opacity:0.4;fill:#FCB378;" d="M215.693,395.375c0,0-0.043,2.806-0.105,5.079l0,0c0,0-5.45-0.147-6.323,1.846
											l-0.767-6.97L215.693,395.375z"/>
									</g>
									<g>
										<g>
											<g>
												<path style="fill:#323232;" d="M209.447,403.956c0,0,0,1.2,1.177,0.999c1.702-0.281,3.387-3.296,6.032-2.775
													c2.646,0.516,6.13,4.926,7.611,6.475c1.476,1.545,3.672,2.936,3.434,5.144c-0.24,2.205-8.153,3.57-11.066,2.344
													c-2.915-1.22-6.472-3.957-7.106-4.111c-0.639-0.16-0.963-4.201-1.097-5.855
													C208.301,404.517,209.447,403.956,209.447,403.956z"/>
												<g>
													<g>
														<path style="fill:#FFFFFF;" d="M217.92,410.477c-0.192,0.029-0.39-0.051-0.503-0.221
															c-0.152-0.23-0.081-0.541,0.148-0.69c0.08-0.052,2.068-1.32,5.146-1.736c0.272-0.042,0.522,0.153,0.561,0.425
															c0.035,0.272-0.166,0.514-0.428,0.561c-2.872,0.38-4.719,1.574-4.738,1.587
															C218.048,410.44,217.981,410.465,217.92,410.477z"/>
													</g>
													<g>
														<path style="fill:#FFFFFF;" d="M216.491,408.591c-0.196,0.036-0.401-0.048-0.51-0.23
															c-0.141-0.235-0.066-0.542,0.171-0.685c0.087-0.05,2.107-1.241,5.209-1.54c0.274-0.026,0.515,0.173,0.545,0.447
															c0.028,0.271-0.13,0.522-0.447,0.544c-2.889,0.279-4.774,1.392-4.791,1.402
															C216.609,408.565,216.551,408.586,216.491,408.591z"/>
													</g>
													<g>
														<path style="fill:#FFFFFF;" d="M214.96,407.207c-0.192,0.037-0.396-0.05-0.501-0.223
															c-0.146-0.232-0.079-0.542,0.152-0.689c0.083-0.054,2.059-1.3,5.17-1.668c0.274-0.034,0.52,0.164,0.556,0.434
															c0.032,0.276-0.151,0.542-0.438,0.558c-2.882,0.352-4.735,1.51-4.755,1.52
															C215.085,407.179,215.021,407.198,214.96,407.207z"/>
													</g>
												</g>
											</g>
											<path style="opacity:0.4;fill:#323232;" d="M209.447,403.956c0,0,0,1.2,1.177,0.999c1.396-0.23,2.782-2.302,4.704-2.75
												c-1.304,0.482-2.878,2.661-4.121,3.352c-1.484,0.811-1.037,1.848-0.964,3.179c0.071,1.326,0.964,1.628,3.181,3.4
												c2.219,1.775,5.322,2.422,10.205,1.478c3.607-0.698,3.628-1.663,3.395-2.118c0.475,0.679,0.771,1.423,0.679,2.303
												c-0.24,2.205-8.153,3.57-11.066,2.344c-2.915-1.22-6.472-3.957-7.106-4.111c-0.639-0.16-0.963-4.201-1.097-5.855
												C208.301,404.517,209.447,403.956,209.447,403.956z"/>
										</g>
										<path style="fill:#E6E7E8;" d="M208.945,410.574c0,0,0.584,0.337,2.096,0.814c1.915,0.596,2.649,3.119,7.237,3.168
											c4.589,0.045,6.858-0.242,8.162-0.868c1.307-0.624,1.307-0.624,1.307-0.624s1.52,2.064,0.666,3.071
											c-0.862,1.006-5.991,2.749-11.478,1.263c-3.097-0.838-4.343-2.281-5.724-2.586
											C209.832,414.503,208.292,413.608,208.945,410.574z"/>
									</g>
								</g>
								<g>
									<g>
										<path style="fill:#FCB378;" d="M186.846,395.967l-7.198,0.043c0,0,0.108,6.473,0.216,7.73
											c0.105,1.26,3.834,4.163,5.82,2.761L186.846,395.967z"/>
										<path style="opacity:0.4;fill:#FCB378;" d="M179.647,396.01c0,0,0.048,2.805,0.108,5.077l0,0c0,0,5.447-0.148,6.321,1.845
											l0.769-6.965L179.647,396.01z"/>
									</g>
									<g>
										<g>
											<g>
												<path style="fill:#323232;" d="M185.896,404.59c0,0,0,1.197-1.178,0.998c-1.697-0.282-3.386-3.292-6.035-2.772
													c-2.645,0.514-6.123,4.925-7.604,6.472c-1.48,1.546-3.675,2.935-3.435,5.148c0.238,2.202,8.152,3.567,11.063,2.342
													c2.916-1.222,6.47-3.958,7.107-4.116c0.637-0.157,0.959-4.195,1.094-5.852
													C187.045,405.15,185.896,404.59,185.896,404.59z"/>
												<g>
													<g>
														<path style="fill:#FFFFFF;" d="M177.424,411.108c0.193,0.029,0.389-0.048,0.504-0.218
															c0.149-0.23,0.081-0.544-0.149-0.691c-0.079-0.053-2.07-1.321-5.148-1.733c-0.271-0.043-0.521,0.149-0.558,0.426
															c-0.037,0.27,0.165,0.511,0.428,0.559c2.867,0.378,4.717,1.575,4.736,1.585
															C177.293,411.075,177.36,411.099,177.424,411.108z"/>
													</g>
													<g>
														<path style="fill:#FFFFFF;" d="M178.852,409.228c0.195,0.035,0.398-0.051,0.506-0.234
															c0.145-0.234,0.07-0.542-0.168-0.682c-0.082-0.052-2.108-1.245-5.209-1.545c-0.274-0.025-0.52,0.178-0.545,0.45
															c-0.028,0.271,0.135,0.522,0.445,0.542c2.89,0.282,4.778,1.395,4.795,1.406
															C178.729,409.197,178.791,409.221,178.852,409.228z"/>
													</g>
													<g>
														<path style="fill:#FFFFFF;" d="M180.385,407.845c0.189,0.032,0.393-0.053,0.503-0.227
															c0.145-0.23,0.08-0.543-0.154-0.689c-0.083-0.055-2.06-1.301-5.171-1.668c-0.27-0.034-0.521,0.164-0.555,0.434
															c-0.035,0.275,0.15,0.542,0.438,0.557c2.881,0.351,4.732,1.511,4.75,1.52
															C180.26,407.81,180.321,407.83,180.385,407.845z"/>
													</g>
												</g>
											</g>
											<path style="opacity:0.4;fill:#323232;" d="M185.896,404.59c0,0,0,1.197-1.178,0.998
												c-1.398-0.23-2.786-2.302-4.702-2.749c1.301,0.482,2.873,2.659,4.119,3.352c1.485,0.813,1.041,1.848,0.964,3.18
												c-0.072,1.328-0.964,1.627-3.179,3.403c-2.219,1.772-5.325,2.421-10.208,1.473c-3.611-0.695-3.629-1.659-3.395-2.116
												c-0.474,0.679-0.773,1.423-0.674,2.306c0.238,2.202,8.152,3.567,11.063,2.342c2.916-1.222,6.47-3.958,7.107-4.116
												c0.637-0.157,0.959-4.195,1.094-5.852C187.045,405.15,185.896,404.59,185.896,404.59z"/>
										</g>
										<path style="fill:#E6E7E8;" d="M186.402,411.21c0,0-0.588,0.338-2.103,0.814c-1.911,0.593-2.645,3.117-7.232,3.166
											c-4.595,0.043-6.859-0.242-8.168-0.869c-1.307-0.624-1.307-0.624-1.307-0.624s-1.518,2.063-0.661,3.075
											c0.855,1.004,5.983,2.747,11.473,1.258c3.101-0.836,4.347-2.28,5.725-2.584
											C185.511,415.138,187.051,414.245,186.402,411.21z"/>
									</g>
								</g>
							</g>
							<g>
								<path style="fill:#67652F;" d="M181.541,318.524c0,0-2.514,38.936-2.834,50.333c-0.32,11.398-1.271,29.76-1.271,29.76
									l11.399,0.949c0,0,4.114-32.612,6.331-43.689c2.212-11.08,4.747-16.458,4.747-16.458s6.5,59.335,6.331,59.832
									c-0.316,0.951,10.171,0.374,12.073-0.574l-2.893-56.728l-2.547-25.642C212.879,316.308,194.207,321.061,181.541,318.524z"/>
								<path style="opacity:0.2;fill:#67652F;" d="M195.167,355.878c-2.217,11.076-6.331,43.689-6.331,43.689l-11.399-0.949
									c0,0,0.95-18.362,1.271-29.76c0.32-11.397,2.834-50.333,2.834-50.333c5.455,1.091,12.019,0.827,17.728,0.179
									c2.253,0.144,3.813,0.255,3.968,0.294c0.633,0.156,11.077,0.792,5.22,5.206c-5.858,4.417-22.789,2.867-24.532,4.292
									c-1.743,1.426-2.692,18.994-3.955,37.832c-1.265,18.841,2.215,30.39,5.225,30.231c3.006-0.159,2.686-5.223,4.269-16.304
									c1.585-11.081,5.54-36.247,6.648-38.94c1.112-2.694-3.797-4.904-3.797-4.904s2.689,1.107,7.278,0.79
									c4.59-0.314,5.385-1.739,5.385-1.739s-1.587,2.849-1.74,5.538c-0.155,2.69,2.689,33.875,3.64,43.528
									c0.948,9.653,4.588,13.296,7.911,13.138c3.314-0.152,3.293-3.628,3.293-3.653l0.238,4.665
									c-1.902,0.948-12.39,1.525-12.073,0.574c0.169-0.497-6.331-59.832-6.331-59.832S197.379,344.798,195.167,355.878z"/>
							</g>
						</g>
						<g>
							<path style="fill:#FDCBA3;" d="M177.096,278.973c0,0-7.241-3.861-8.849-2.572c-1.614,1.288-6.362,15.84-7.171,20.99
								c-0.803,5.149-2.991,22.565-3.329,24.057c0,0-1.294,3.876-1.501,5.031c-0.203,1.158-0.679,4.086,0.139,4.425
								c0.816,0.336,1.357,0.135,2.106,0.204c0.749,0.066,1.358-0.072,1.837,0.337c0.478,0.406,1.697,0.548,2.447,0.069
								c0.751-0.478,1.908-0.616,2.586-0.681c0.681-0.07,1.292-1.022,1.499-2.313c0.2-1.292,0.133-3.197-0.207-4.489
								c-0.341-1.291-1.087-3.737-1.087-3.737s2.119-18.272,3.551-21.336C170.544,295.899,175.902,283.567,177.096,278.973z"/>
							<g>
								<path style="fill:#FDCBA3;" d="M252.182,276.104c0,0,0.57-0.832,1.045-2.85c0.477-2.02-0.705-2.309-1.305-1.662
									C251.318,272.238,249.233,277.174,252.182,276.104z"/>
								<g>
									<path style="fill:#6D6E71;" d="M238.068,278.679c-0.479,0.681-0.246,1.536,0.517,1.881l5.874,2.702
										c0.752,0.348,1.768,0.068,2.241-0.617l9.765-14.101c0.483-0.69,0.251-1.536-0.515-1.885l-5.866-2.703
										c-0.764-0.347-1.77-0.073-2.246,0.617L238.068,278.679z"/>
									<path style="fill:#FDCBA3;" d="M220.132,277.341c0,0,7.78,13.106,8.198,13.911c0.413,0.802,12.182-10.295,12.182-10.295
										s-0.993-0.449-1.514-1.107c-0.533-0.689-0.901-1.722-0.374-2.712c0.52-0.992,1.499-0.583,1.844-1.474
										c0.994-2.577,1.576-1.052,2.446-2.478c1.223-1.991,1.164-1.098,2.195-1.651c0.418-0.22,0.851-1.108,1.274-1.217
										c0.613-0.154,1.227-0.095,1.826,0.429c1.021,0.875,2.418,2.081,3.182,4.403c0.771,2.323,1.817,3.681-1.53,6.662
										c-3.35,2.988-5.026,2.874-6.02,3.897c-0.995,1.023-9.889,13.117-13.585,15.763c-2.474,1.775-5.688,2.993-9.533-2.315
										c-3.847-5.309-9.283-16.146-9.283-16.146L220.132,277.341z"/>
								</g>
							</g>
							<g>
								<path style="fill:#D26C00;" d="M214.26,299.536c-0.482,8.498,2.855,20.916,2.855,20.916s-21.529,12.947-39.258,0.767
									c0,0,2.532-11.583,2.214-19.896c-0.318-8.321-1.685-17.081-1.685-17.081l-3.058,4.405l-12.841-5.652
									c0,0,5.111-9.391,11.438-14.74c6.333-5.345,15.814-6.531,15.814-6.531l12.459-0.315c0,0,5.657,0.541,9.775,3.514
									c4.119,2.969,11.148,12.342,11.148,12.342l-10.129,6.827C212.995,284.091,214.564,294.193,214.26,299.536z"/>
								<path style="opacity:0.3;fill:#D26C00;" d="M177.857,321.219c0,0,2.532-11.583,2.214-19.896
									c-0.318-8.321-1.685-17.081-1.685-17.081l-3.058,4.405l-12.841-5.652c0,0,0.601-1.1,1.627-2.742
									c-0.656,3.68,7.694,5.846,11.294,3.972c3.599-1.876,3.599-8.125,3.599-8.125s3.27,9.065,3.27,16.56
									c0,7.504-2.779,26.879,2.943,29.698c5.725,2.81,24.858-0.313,27.148-2.975c2.289-2.66-0.977-6.718-1.308-12.501
									c-0.332-5.785,0.33-9.688,1.146-14.69c0.815-5.004-3.762-17.813-3.762-17.813c1.96,1.879,4.577,7.19,4.577,7.19
									s5.235-3.281,6.706-4.531c1.469-1.251-5.464-10.114-5.52-10.181c4.018,3.885,8.915,10.408,8.915,10.408l-10.129,6.827
									c0,0,1.569,10.103,1.265,15.445c-0.482,8.498,2.855,20.916,2.855,20.916S195.586,333.399,177.857,321.219z"/>
							</g>
							<g>
								<path style="fill:#FDCBA3;" d="M190.541,252.152c0,0,0.607,8.217-1.29,11.437c0,0,6.704,8.146,13.932-0.438
									c0,0-2.867-1.441-0.96-6.357C202.223,256.793,194.2,256.921,190.541,252.152z"/>
								<path style="opacity:0.3;fill:#FDCBA3;" d="M202.223,256.793c-0.161,0.414-0.248,0.779-0.345,1.146
									c-0.905,0.463-2.394,1.021-3.183,1.021c-2.623,0-5.736-2.552-8.117-6.104c-0.018-0.403-0.037-0.703-0.037-0.703
									C194.2,256.921,202.223,256.793,202.223,256.793z"/>
								<g>
									<path style="fill:#FDCBA3;" d="M186.136,240.725c0.548-0.154,1.175,0.068,1.748,0.517
										c0.349-8.444,5.217-15.324,11.23-15.153c9.429,0.265,10.698,7.072,10.698,15.956c0,8.883-6.555,16.217-10.698,16.217
										c-3.535,0-9.066-4.514-10.613-10.771c-1.149,0.232-2.589-0.984-3.241-2.807C184.58,242.82,184.973,241.04,186.136,240.725z
										"/>
									<g>
										<g>
											<g>
												<path style="fill:#572700;" d="M196.201,243.289c-0.008,0.83,0.322,1.492,0.738,1.478
													c0.409-0.012,0.758-0.688,0.765-1.514c0.005-0.837-0.329-1.492-0.747-1.476
													C196.548,241.787,196.203,242.467,196.201,243.289z"/>
												<g>
													<path style="fill:#572700;" d="M194.427,240.24c0.035,0,0.068-0.01,0.102-0.03c2.322-1.161,3.594-0.095,3.608-0.082
														c0.1,0.082,0.256,0.07,0.342-0.029c0.092-0.1,0.083-0.256-0.012-0.347c-0.069-0.051-1.543-1.276-4.148,0.021
														c-0.117,0.061-0.171,0.213-0.108,0.333C194.257,240.188,194.339,240.24,194.427,240.24z"/>
												</g>
											</g>
											<g>
												<path style="fill:#572700;" d="M204.545,243.096c-0.008,0.712,0.301,1.277,0.691,1.264
													c0.39-0.014,0.704-0.59,0.712-1.296c0-0.707-0.308-1.266-0.702-1.263C204.865,241.806,204.545,242.386,204.545,243.096z
													"/>
												<g>
													<path style="fill:#572700;" d="M203.645,240.099c0.039,0,0.074-0.011,0.11-0.022c2.318-1.174,3.595-0.112,3.613-0.102
														c0.092,0.083,0.243,0.074,0.338-0.025c0.088-0.107,0.086-0.252-0.026-0.339c-0.061-0.059-1.533-1.283-4.137,0.027
														c-0.122,0.06-0.169,0.21-0.109,0.327C203.477,240.056,203.559,240.104,203.645,240.099z"/>
												</g>
											</g>
										</g>
										<path style="fill:#FFFFFF;" d="M204.239,248.902c0,0-3.897,0.86-7.083-0.291c0,0-0.43,3.349,3.268,3.803
											C202.936,252.72,203.486,251.503,204.239,248.902z"/>
										<path style="fill:#FBB480;" d="M201.047,244.766c0,0,0.05,0.838,0.698,1.082c0.853,0.333,0.861,1.026,0.529,1.374
											c-0.37,0.392-1.139,0.288-1.139,0.288s1.361,0.493,1.705-0.631C203.194,245.752,201.468,246.182,201.047,244.766z"/>
									</g>
								</g>
								<path style="fill:#572700;" d="M187.884,241.241c0,0,3.595-1.6,3.31-6.31c-0.131-2.213,2.998-1.571,6.854,0.569
									c2.078,1.154,10.515,2.751,9.565,2.143c-2.412-1.557-3.686-1.467-4.567-2.43c0,0,3.519,0.819,8.708,3.857
									c0,0,2.712-10.566-5.997-14.992c-9.039-4.593-15.354,0.197-15.354,0.197s-0.444-1.597,3.612-3.091
									c0,0-5.419,0.331-6.37,5.161c0,0-2.482-0.492-3.773,3.734c-1.296,4.226-0.015,7.774,2.265,10.645
									C186.136,240.725,186.915,240.096,187.884,241.241z"/>
							</g>
						</g>
					</g>
				</g>
			</g>
		</g>
	</g>
</g>
</svg>
