<?xml version="1.0" encoding="utf-8"?>
<!-- Generator: Adobe Illustrator 27.5.0, SVG Export Plug-In . SVG Version: 6.00 Build 0)  -->
<svg version="1.1" xmlns="http://www.w3.org/2000/svg" xmlns:xlink="http://www.w3.org/1999/xlink" x="0px" y="0px"
	 viewBox="0 0 750 500" style="enable-background:new 0 0 750 500;" xml:space="preserve">
<g id="BACKGROUND">
</g>
<g id="OBJECTS">
	<g>
		<polygon style="fill:#E8E8E8;" points="60.756,356.155 60.756,211.837 111.751,189.345 111.751,88.637 168.743,88.637 
			168.743,181.464 249.087,181.464 249.087,257.305 312.459,257.305 312.459,169.066 389.488,127.397 389.488,241.795 
			431.89,241.795 431.89,300.546 454.922,300.546 454.922,265.484 561.818,265.484 561.818,364.801 		"/>
		<g>
			<rect x="38.388" y="350.948" style="fill:#ACC152;" width="673.224" height="27.706"/>
			<rect x="38.388" y="377.873" style="fill:#6077A0;" width="673.224" height="54.75"/>
			<path style="opacity:0.24;fill:#FFFFFF;" d="M157.756,410.691H93.943v-10.886h63.813V410.691z M282.331,399.806h-63.813v10.886
				h63.813V399.806z M406.907,399.806h-63.813v10.886h63.813V399.806z M531.482,399.806h-63.813v10.886h63.813V399.806z
				 M656.057,399.806h-63.813v10.886h63.813V399.806z"/>
		</g>
		<g>
			<g>
				<path style="fill:#222251;" d="M680.002,366.722H538.185c-2.719,0-5.208-0.989-7.125-2.627c-2.357-2.013-3.851-5.007-3.851-8.35
					V99.613c0-3.343,1.494-6.337,3.851-8.35c1.917-1.638,4.406-2.627,7.125-2.627h141.817c3.031,0,5.775,1.229,7.762,3.215
					c1.986,1.986,3.215,4.731,3.215,7.762v256.132c0,3.031-1.229,5.775-3.215,7.762
					C685.777,365.494,683.033,366.722,680.002,366.722z"/>
				<circle style="fill:#3088D8;" cx="609.093" cy="353.695" r="5.37"/>
				<g>
					<g>
						<rect x="538.858" y="102.988" style="fill:#EAEAEA;" width="140.471" height="238.426"/>
						<path style="fill:#FFFFFF;" d="M679.329,303.901l-41.501,1.557v-54.156l16.825-16.825v24.535h3v-25.012l-0.075-2.448
							l8.597-8.597l0.096-0.424c0.043-0.192,4.37-19.473,8.304-38.722c2.227-10.896,3.746-18.876,4.755-24.744v-15.572l-0.806,1.264
							c-0.301-0.191-0.427-0.449-0.45-0.531c0.788,2.797-3.884,27.065-8.906,50.882H633.19l-15.205-51.932l-2.879,0.843
							l15.836,54.089h37.59c-1.753,8.253-3.522,16.34-5.093,23.34l-28.61,28.61v23.008h-29.606v-66.186l-37.101-58.772l-2.537,1.602
							l25.062,39.699l-22.948,16.357l-8.9-15.627l-2.607,1.484l9.051,15.893l-26.384,18.805v3.685l53.393-38.056l9.972,15.796
							v32.997h-17.365v3h17.365v32.321h32.606v29.503l-40.861,1.533l-3.488-24.529l-1.339,0.038
							c-0.461,0.013-27.484,0.765-50.282,1.383v3.001c6.419-0.174,13.174-0.359,19.583-0.535v18.662h3v-18.745
							c12.223-0.336,22.722-0.628,26.444-0.731l3.492,24.555l43.451-1.63v32.842h3V308.46l29.3-1.099v8.702h3v-8.815l9.201-0.345
							V303.901z"/>
						<rect x="630.665" y="202.277" style="opacity:0.46;fill:#B3CEA5;" width="28.183" height="12.786"/>
						
							<rect x="567.282" y="205.444" transform="matrix(0.8149 -0.5796 0.5796 0.8149 -15.1715 376.1656)" style="opacity:0.46;fill:#A6C3CC;" width="28.183" height="12.786"/>
					</g>
					<g>
						<rect x="538.858" y="102.988" style="fill:#3088D8;" width="140.471" height="66.077"/>
						<rect x="538.858" y="102.988" style="fill:#1E4B9B;" width="140.471" height="10.647"/>
					</g>
				</g>
			</g>
			<g>
				<g>
					<circle style="fill:#FFFFFF;" cx="648.526" cy="143.493" r="20.101"/>
					<path style="fill:#222251;" d="M664.807,155.25c-1.938-1.803-5.755-4.815-9.605-4.774l-8.603,1.235
						c0,0-6.211,2.134-7.652,4.193c-1.405,2.008-2.118,3.799-2.153,3.888c3.304,2.382,7.348,3.802,11.732,3.802
						C655.232,163.594,661.155,160.297,664.807,155.25z"/>
					<path style="fill:#3088D8;" d="M648.726,157.253l-5.505,2.319c0,0,1.043-4.618,2.131-7.397l1.247-0.464l8.603-1.235
						c0,0,1.228,0.044,1.865,0.206c0,0-0.234,6.007-2.411,8.891C654.656,159.573,650.957,157.655,648.726,157.253z"/>
					<path style="fill:#222251;" d="M642.078,138.251c0,0-2.556-1.402-2-3.624c0,0-2.491-2.778-0.079-5.333
						c2.412-2.555,7.301-3.222,11.746-2.111s5.473,5.428,5.473,5.428s2.46,3.048,1.337,7.968c-1.057,4.631-6.588,6.048-6.588,6.048
						L642.078,138.251z"/>
					<path style="fill:#FFBE92;" d="M653.265,134.178c0,0-0.378,3.404,0.63,5.926c0,0,1.261-0.883,2.017,0.883
						c0.757,1.765-0.378,3.909-1.891,3.152l-0.126,1.513l-0.7,1.009l2.007,3.814c0,0-2.19,5.769-6.477,6.777
						c0,0-2.001-2.894-2.127-5.542c0,0,1.721-1.324,1.496-2.78c0,0-3.571,0.501-5.128-1.577c-2.27-3.026-1.68-10.906-1.302-13.176
						C641.665,134.178,645.625,129.828,653.265,134.178z"/>
				</g>
				<g>
					<polygon style="fill:#F7C906;" points="557.495,148.91 558.831,151.617 561.818,152.051 559.656,154.158 560.167,157.134 
						557.495,155.729 554.823,157.134 555.333,154.158 553.171,152.051 556.159,151.617 					"/>
					<polygon style="fill:#F7C906;" points="571.176,148.91 572.512,151.617 575.5,152.051 573.338,154.158 573.848,157.134 
						571.176,155.729 568.504,157.134 569.014,154.158 566.853,152.051 569.84,151.617 					"/>
					<polygon style="fill:#F7C906;" points="584.858,148.91 586.194,151.617 589.181,152.051 587.02,154.158 587.53,157.134 
						584.858,155.729 582.186,157.134 582.696,154.158 580.534,152.051 583.522,151.617 					"/>
					<polygon style="fill:#F7C906;" points="598.539,148.91 599.876,151.617 602.863,152.051 600.701,154.158 601.212,157.134 
						598.539,155.729 595.867,157.134 596.378,154.158 594.216,152.051 597.203,151.617 					"/>
					<polygon style="fill:#F7C906;" points="612.221,148.91 613.557,151.617 616.545,152.051 614.383,154.158 614.893,157.134 
						612.221,155.729 609.549,157.134 610.059,154.158 607.898,152.051 610.885,151.617 					"/>
				</g>
				<g>
					<g>
						<path style="fill:#FFFFFF;" d="M557.361,129.32l1.879-3.54h0.884l-2.352,4.322v2.738h-0.821v-2.699l-2.356-4.36h0.898
							L557.361,129.32z"/>
						<path style="fill:#FFFFFF;" d="M565.532,130.184c0,0.435-0.057,0.822-0.169,1.164s-0.275,0.629-0.487,0.864
							c-0.213,0.235-0.47,0.415-0.771,0.539s-0.642,0.186-1.021,0.186c-0.354,0-0.679-0.062-0.973-0.186
							c-0.295-0.124-0.549-0.303-0.764-0.539c-0.214-0.235-0.38-0.523-0.497-0.864s-0.176-0.729-0.176-1.164
							c0-0.58,0.098-1.073,0.294-1.48s0.478-0.718,0.843-0.932s0.801-0.321,1.307-0.321c0.482,0,0.905,0.108,1.268,0.324
							s0.644,0.527,0.845,0.935S565.532,129.608,565.532,130.184z M561.505,130.184c0,0.425,0.057,0.793,0.169,1.105
							c0.113,0.313,0.287,0.554,0.521,0.725c0.235,0.17,0.538,0.256,0.908,0.256c0.367,0,0.669-0.085,0.905-0.256
							s0.411-0.412,0.524-0.725c0.112-0.312,0.169-0.681,0.169-1.105c0-0.422-0.057-0.787-0.169-1.094
							c-0.113-0.308-0.287-0.545-0.521-0.712c-0.235-0.167-0.54-0.251-0.913-0.251c-0.551,0-0.954,0.182-1.21,0.545
							S561.505,129.54,561.505,130.184z"/>
						<path style="fill:#FFFFFF;" d="M571.288,127.547v5.292h-0.656l-0.116-0.744h-0.043c-0.109,0.184-0.251,0.338-0.425,0.463
							c-0.174,0.126-0.37,0.22-0.587,0.283c-0.218,0.063-0.448,0.094-0.693,0.094c-0.418,0-0.77-0.068-1.053-0.203
							c-0.283-0.135-0.496-0.344-0.64-0.627s-0.215-0.647-0.215-1.091v-3.467h0.812v3.409c0,0.441,0.1,0.77,0.299,0.987
							c0.2,0.218,0.504,0.326,0.913,0.326c0.393,0,0.706-0.074,0.939-0.222s0.401-0.366,0.504-0.654
							c0.104-0.288,0.155-0.642,0.155-1.06v-2.786H571.288z"/>
						<path style="fill:#FFFFFF;" d="M575.387,127.451c0.106,0,0.217,0.006,0.333,0.017s0.219,0.026,0.309,0.046l-0.101,0.744
							c-0.087-0.022-0.184-0.041-0.29-0.053s-0.206-0.019-0.3-0.019c-0.212,0-0.412,0.042-0.601,0.128
							c-0.188,0.085-0.354,0.208-0.495,0.367c-0.142,0.16-0.253,0.351-0.333,0.575c-0.081,0.224-0.121,0.473-0.121,0.746v2.839
							h-0.807v-5.292h0.667l0.087,0.976h0.033c0.109-0.196,0.242-0.376,0.396-0.539c0.154-0.163,0.334-0.292,0.538-0.389
							S575.136,127.451,575.387,127.451z"/>
						<path style="fill:#FFFFFF;" d="M581.477,132.936c-0.67,0-1.2-0.229-1.592-0.686c-0.391-0.457-0.586-1.136-0.586-2.038
							c0-0.911,0.199-1.599,0.599-2.064c0.399-0.465,0.93-0.698,1.594-0.698c0.279,0,0.524,0.037,0.733,0.111
							s0.39,0.173,0.541,0.297s0.278,0.265,0.382,0.422h0.058c-0.013-0.1-0.025-0.236-0.039-0.41
							c-0.013-0.174-0.019-0.315-0.019-0.425v-2.12h0.802v7.514h-0.647l-0.121-0.753h-0.033c-0.101,0.158-0.227,0.301-0.379,0.43
							c-0.153,0.129-0.335,0.231-0.546,0.307C582.012,132.898,581.763,132.936,581.477,132.936z M581.602,132.27
							c0.567,0,0.968-0.161,1.203-0.483c0.234-0.322,0.353-0.8,0.353-1.434v-0.145c0-0.673-0.112-1.189-0.336-1.55
							c-0.224-0.361-0.63-0.541-1.22-0.541c-0.492,0-0.861,0.189-1.105,0.567c-0.245,0.378-0.367,0.894-0.367,1.548
							c0,0.65,0.122,1.152,0.365,1.506C580.737,132.093,581.107,132.27,581.602,132.27z"/>
						<path style="fill:#FFFFFF;" d="M588.048,127.451c0.106,0,0.217,0.006,0.333,0.017s0.219,0.026,0.309,0.046l-0.101,0.744
							c-0.087-0.022-0.184-0.041-0.29-0.053s-0.206-0.019-0.3-0.019c-0.212,0-0.412,0.042-0.601,0.128
							c-0.188,0.085-0.354,0.208-0.495,0.367c-0.142,0.16-0.253,0.351-0.333,0.575c-0.081,0.224-0.121,0.473-0.121,0.746v2.839
							h-0.807v-5.292h0.667l0.087,0.976h0.033c0.109-0.196,0.242-0.376,0.396-0.539c0.154-0.163,0.334-0.292,0.538-0.389
							S587.797,127.451,588.048,127.451z"/>
						<path style="fill:#FFFFFF;" d="M590.096,125.567c0.132,0,0.245,0.043,0.34,0.128c0.095,0.085,0.143,0.218,0.143,0.398
							c0,0.177-0.048,0.309-0.143,0.396s-0.208,0.13-0.34,0.13c-0.139,0-0.254-0.043-0.346-0.13s-0.138-0.219-0.138-0.396
							c0-0.18,0.046-0.313,0.138-0.398C589.842,125.61,589.958,125.567,590.096,125.567z M590.487,127.547v5.292h-0.802v-5.292
							H590.487z"/>
						<path style="fill:#FFFFFF;" d="M593.346,132.84l-2.009-5.292h0.859l1.164,3.202c0.08,0.219,0.162,0.46,0.246,0.724
							c0.084,0.264,0.142,0.477,0.174,0.638h0.034c0.038-0.161,0.103-0.375,0.192-0.64c0.091-0.266,0.173-0.506,0.247-0.722
							l1.163-3.202h0.859l-2.013,5.292H593.346z"/>
						<path style="fill:#FFFFFF;" d="M599.16,127.451c0.451,0,0.837,0.1,1.159,0.299c0.321,0.2,0.568,0.479,0.738,0.838
							c0.171,0.359,0.256,0.778,0.256,1.258v0.497h-3.655c0.01,0.622,0.164,1.095,0.464,1.42c0.299,0.325,0.721,0.487,1.265,0.487
							c0.335,0,0.631-0.03,0.889-0.091c0.258-0.062,0.525-0.151,0.802-0.271v0.705c-0.268,0.119-0.532,0.206-0.794,0.261
							c-0.263,0.055-0.572,0.082-0.93,0.082c-0.509,0-0.952-0.104-1.33-0.312c-0.379-0.208-0.673-0.513-0.882-0.915
							s-0.313-0.895-0.313-1.478c0-0.57,0.096-1.063,0.287-1.48c0.191-0.417,0.462-0.738,0.812-0.963
							C598.275,127.563,598.686,127.451,599.16,127.451z M599.15,128.107c-0.428,0-0.77,0.14-1.023,0.42
							c-0.255,0.28-0.406,0.671-0.454,1.173h2.801c-0.003-0.315-0.053-0.593-0.147-0.833s-0.239-0.427-0.432-0.56
							C599.701,128.174,599.453,128.107,599.15,128.107z"/>
						<path style="fill:#FFFFFF;" d="M605.081,127.451c0.106,0,0.217,0.006,0.333,0.017s0.219,0.026,0.309,0.046l-0.101,0.744
							c-0.087-0.022-0.184-0.041-0.29-0.053s-0.206-0.019-0.3-0.019c-0.212,0-0.412,0.042-0.601,0.128
							c-0.188,0.085-0.354,0.208-0.495,0.367c-0.142,0.16-0.253,0.351-0.333,0.575c-0.081,0.224-0.121,0.473-0.121,0.746v2.839
							h-0.807v-5.292h0.667l0.087,0.976h0.033c0.109-0.196,0.242-0.376,0.396-0.539c0.154-0.163,0.334-0.292,0.538-0.389
							S604.83,127.451,605.081,127.451z"/>
					</g>
				</g>
				<text transform="matrix(1 0 0 1 554.5947 140.25)"><tspan x="0" y="0" style="fill:#FFFFFF; font-family:'OpenSans'; font-size:4.2036px;">Lorem ipsum dolor sit amet</tspan><tspan x="0" y="5.044" style="fill:#FFFFFF; font-family:'OpenSans'; font-size:4.2036px;">consectetuer</tspan></text>
			</g>
			<g>
				<path style="fill:#3088D8;" d="M643.349,319.456h-68.512c-1.43,0-2.724-0.579-3.66-1.516c-0.937-0.937-1.516-2.231-1.516-3.661
					v-11.253c0-1.43,0.579-2.724,1.516-3.66c0.937-0.937,2.231-1.516,3.661-1.516h68.512c1.35,0,2.58,0.517,3.502,1.364
					c1.03,0.946,1.675,2.304,1.675,3.813v11.253c0,1.43-0.579,2.724-1.516,3.661C646.073,318.877,644.779,319.456,643.349,319.456z"
					/>
				<g>
					<g>
						<path style="fill:#FFFFFF;" d="M585.282,308.899c0,0.544-0.069,1.039-0.208,1.484c-0.138,0.446-0.344,0.829-0.615,1.149
							c-0.272,0.32-0.609,0.567-1.012,0.741s-0.869,0.261-1.4,0.261c-0.548,0-1.024-0.087-1.432-0.261s-0.745-0.422-1.015-0.743
							c-0.269-0.322-0.47-0.707-0.604-1.154s-0.2-0.943-0.2-1.487c0-0.722,0.119-1.354,0.357-1.897s0.6-0.968,1.084-1.271
							s1.092-0.454,1.823-0.454c0.698,0,1.287,0.15,1.765,0.449c0.479,0.3,0.84,0.721,1.087,1.263
							C585.159,307.522,585.282,308.161,585.282,308.899z M579.661,308.899c0,0.599,0.086,1.117,0.256,1.555
							c0.171,0.438,0.433,0.775,0.785,1.014s0.801,0.357,1.345,0.357c0.547,0,0.995-0.119,1.345-0.357s0.607-0.576,0.775-1.014
							c0.167-0.438,0.251-0.956,0.251-1.555c0-0.911-0.191-1.623-0.572-2.137c-0.382-0.514-0.977-0.771-1.784-0.771
							c-0.548,0-0.998,0.117-1.353,0.353c-0.354,0.235-0.617,0.569-0.789,1.002C579.747,307.779,579.661,308.296,579.661,308.899z"
							/>
						<path style="fill:#FFFFFF;" d="M588.758,305.378c0.58,0,1.059,0.071,1.437,0.215c0.379,0.144,0.661,0.361,0.848,0.654
							s0.28,0.666,0.28,1.12c0,0.374-0.067,0.686-0.203,0.935c-0.135,0.25-0.313,0.451-0.531,0.606
							c-0.219,0.154-0.452,0.273-0.7,0.357l1.937,3.172h-0.956l-1.729-2.945h-1.468v2.945h-0.821v-7.06H588.758z M588.711,306.088
							h-1.038v2.709h1.12c0.576,0,1-0.117,1.272-0.353c0.271-0.235,0.408-0.581,0.408-1.038c0-0.479-0.145-0.819-0.433-1.02
							C589.753,306.188,589.309,306.088,588.711,306.088z"/>
						<path style="fill:#FFFFFF;" d="M598.561,308.84c0,0.796-0.146,1.46-0.435,1.992c-0.29,0.533-0.709,0.934-1.258,1.202
							c-0.549,0.27-1.215,0.403-1.997,0.403h-1.917v-7.06h2.13c0.718,0,1.336,0.131,1.854,0.394c0.519,0.263,0.919,0.65,1.2,1.164
							C598.421,307.45,598.561,308.084,598.561,308.84z M597.697,308.869c0-0.634-0.105-1.157-0.316-1.569s-0.521-0.719-0.928-0.92
							s-0.905-0.302-1.494-0.302h-1.183v5.654h0.999c0.973,0,1.702-0.239,2.19-0.719
							C597.453,310.534,597.697,309.82,597.697,308.869z"/>
						<path style="fill:#FFFFFF;" d="M604.061,312.438h-3.931v-7.06h3.931v0.725h-3.109v2.284h2.931v0.714h-2.931v2.613h3.109
							V312.438z"/>
						<path style="fill:#FFFFFF;" d="M607.533,305.378c0.58,0,1.059,0.071,1.437,0.215c0.379,0.144,0.661,0.361,0.848,0.654
							s0.28,0.666,0.28,1.12c0,0.374-0.067,0.686-0.203,0.935c-0.135,0.25-0.313,0.451-0.531,0.606
							c-0.219,0.154-0.452,0.273-0.7,0.357l1.937,3.172h-0.956l-1.729-2.945h-1.468v2.945h-0.821v-7.06H607.533z M607.485,306.088
							h-1.038v2.709h1.12c0.576,0,1-0.117,1.272-0.353c0.271-0.235,0.408-0.581,0.408-1.038c0-0.479-0.145-0.819-0.433-1.02
							C608.527,306.188,608.084,306.088,607.485,306.088z"/>
						<path style="fill:#FFFFFF;" d="M619.818,312.438h-0.946l-3.849-5.93h-0.039c0.01,0.158,0.021,0.337,0.034,0.538
							s0.023,0.416,0.031,0.643s0.012,0.458,0.012,0.693v4.056h-0.763v-7.06h0.941l3.834,5.91h0.034
							c-0.007-0.112-0.015-0.272-0.024-0.48c-0.01-0.207-0.019-0.431-0.026-0.671c-0.008-0.239-0.012-0.463-0.012-0.669v-4.09h0.772
							V312.438z"/>
						<path style="fill:#FFFFFF;" d="M627.868,308.899c0,0.544-0.069,1.039-0.208,1.484c-0.138,0.446-0.344,0.829-0.615,1.149
							c-0.272,0.32-0.609,0.567-1.012,0.741s-0.869,0.261-1.4,0.261c-0.548,0-1.024-0.087-1.432-0.261s-0.745-0.422-1.015-0.743
							c-0.269-0.322-0.47-0.707-0.604-1.154s-0.2-0.943-0.2-1.487c0-0.722,0.119-1.354,0.357-1.897s0.6-0.968,1.084-1.271
							s1.092-0.454,1.823-0.454c0.698,0,1.287,0.15,1.765,0.449c0.479,0.3,0.84,0.721,1.087,1.263
							C627.745,307.522,627.868,308.161,627.868,308.899z M622.247,308.899c0,0.599,0.086,1.117,0.256,1.555
							c0.171,0.438,0.433,0.775,0.785,1.014s0.801,0.357,1.345,0.357c0.547,0,0.995-0.119,1.345-0.357s0.607-0.576,0.775-1.014
							c0.167-0.438,0.251-0.956,0.251-1.555c0-0.911-0.191-1.623-0.572-2.137c-0.382-0.514-0.977-0.771-1.784-0.771
							c-0.548,0-0.998,0.117-1.353,0.353c-0.354,0.235-0.617,0.569-0.789,1.002C622.333,307.779,622.247,308.296,622.247,308.899z"
							/>
						<path style="fill:#FFFFFF;" d="M637.458,305.378l-1.888,7.06h-0.826l-1.4-4.751c-0.042-0.136-0.081-0.271-0.118-0.408
							s-0.071-0.268-0.104-0.392s-0.059-0.233-0.08-0.328c-0.021-0.095-0.036-0.167-0.046-0.215
							c-0.006,0.048-0.019,0.119-0.036,0.213c-0.018,0.093-0.04,0.201-0.067,0.323s-0.06,0.253-0.097,0.391
							c-0.037,0.139-0.076,0.279-0.118,0.421l-1.362,4.746h-0.825l-1.874-7.06h0.855l1.135,4.428
							c0.038,0.148,0.074,0.294,0.108,0.438c0.033,0.144,0.064,0.282,0.092,0.418c0.027,0.135,0.052,0.267,0.074,0.396
							s0.044,0.254,0.063,0.377c0.016-0.126,0.037-0.257,0.063-0.394s0.054-0.276,0.085-0.418c0.03-0.142,0.063-0.285,0.101-0.43
							s0.077-0.29,0.119-0.435l1.27-4.38h0.845l1.323,4.414c0.045,0.151,0.087,0.301,0.126,0.448
							c0.038,0.148,0.073,0.293,0.104,0.433s0.058,0.273,0.082,0.4c0.024,0.128,0.046,0.247,0.065,0.36
							c0.022-0.158,0.05-0.324,0.082-0.498s0.07-0.355,0.113-0.545c0.044-0.19,0.091-0.387,0.143-0.59l1.135-4.423H637.458z"/>
					</g>
				</g>
			</g>
		</g>
		<g>
			<path style="fill:#222251;" d="M475.679,242.215c0,0-10.297,57.248-10.024,114.332h10.024c0,0,9.358-67.742,19.346-93.82
				c0,0,3.649,60.46,7.549,93.82h11.082c0,0,1.6-47.901,1.425-116.777l-14.644-12.887L475.679,242.215z"/>
			<g>
				<path style="fill:#F48908;" d="M541.289,299.218H520.84c-3.811,0-6.913-3.1-6.913-6.912V260.83c0-3.812,3.101-6.913,6.913-6.913
					h20.449c3.811,0,6.913,3.101,6.913,6.913v31.476C548.201,296.118,545.1,299.218,541.289,299.218z M520.84,257.065
					c-2.076,0-3.765,1.69-3.765,3.765v31.476c0,2.076,1.689,3.764,3.765,3.764h20.449c2.076,0,3.765-1.689,3.765-3.764V260.83
					c0-2.076-1.69-3.765-3.765-3.765H520.84z"/>
			</g>
			<path style="fill:#1E4B9B;" d="M551.633,312.438h-41.137c-0.522,0-1.01-0.145-1.425-0.398c-0.794-0.482-1.324-1.355-1.324-2.351
				v-32.373c0-0.602,0.194-1.16,0.522-1.613c0.5-0.689,1.311-1.137,2.227-1.137h41.137c0.759,0,1.446,0.308,1.944,0.805
				c0.497,0.497,0.805,1.185,0.805,1.944v32.373c0,0.759-0.308,1.447-0.805,1.944S552.392,312.438,551.633,312.438z"/>
			<path style="fill:#222251;" d="M452.281,163.988L452.281,163.988c-0.203,0.026-0.402,0.016-0.591-0.026
				c-0.671-0.147-1.216-0.686-1.34-1.399l-2.756-15.788c-0.099-0.567,0.089-1.116,0.457-1.501c0.262-0.274,0.616-0.465,1.022-0.52
				l8.437-1.14c0.467-0.063,0.917,0.066,1.268,0.327c0.352,0.261,0.605,0.654,0.68,1.119l2.788,17.313l-4.022,3.54L452.281,163.988z
				"/>
			<polygon style="fill:#3088D8;" points="449.017,147.094 451.765,161.951 460.828,160.539 458.154,145.591 			"/>
			<path style="fill:#FFBE92;" d="M459.169,169.066l1.473-1.316c0,0,3.071-4.969,2.361-6.779c-0.71-1.811-4.687-3.302-5.468-2.343
				s0.142,1.775,0.923,2.414c0.781,0.639,1.846,1.633,1.846,1.633l-8.024,1.314l1.317,3.761L459.169,169.066z"/>
			<path style="fill:#3088D8;" d="M485.779,173.894c0,0-5.298,2.13-7.743,4.95c-2.445,2.821-17.29,16.253-18.042,13.432
				c-0.752-2.821,0.649-24.527,0.649-24.527h-7.044c0,0-6.292,26.703-0.65,34.412c5.641,7.71,25.909-7.869,25.909-7.869
				l-3.178,47.921c0,0,24.735,6.017,39.402-2.445c0,0-2.633-38.549-3.385-45.694c0,0,10.342,11.659,12.975,29.711
				c1.82,12.482,1.128,26.702,1.128,26.702h7.71c0,0,5.903-25.44-4.137-48.515c-10.719-24.634-15.984-26.702-24.819-30.955
				l-8.464,8.202L485.779,173.894z"/>
			<path style="fill:#1E4B9B;" d="M509.769,236.169c-5.632,2.131-11.568,2.91-17.57,2.666c-3.329-0.135-6.651-0.545-9.912-1.226
				c-2.106-0.439-4.118-1.232-6.182-1.822l-0.426,6.427c0,0,24.735,6.017,39.402-2.445c0,0-0.154-2.26-0.398-5.771
				C513.079,234.798,511.446,235.534,509.769,236.169z"/>
			<path style="fill:#1E4B9B;" d="M460.321,173.229c0.174-3.186,0.321-5.479,0.321-5.479h-7.044c0,0-0.458,1.95-1.015,4.934
				C455.03,171.996,457.723,172.356,460.321,173.229z"/>
			<path style="fill:#1E4B9B;" d="M532.72,243.484c-2.151-0.435-4.586-0.595-6.792-0.058c0.009,4.235-0.128,7.063-0.128,7.063h7.71
				c0,0,0.57-2.46,1.055-6.539C533.949,243.766,533.33,243.607,532.72,243.484z"/>
			<path style="fill:#222251;" d="M505.669,149.152c0-5.673-3.095-7.091-3.095-7.091c-0.574-3.624-6.359-5.83-11.405-7.721
				c-4.958-1.858-13.234-1.733-14.337,2.837c-0.423,1.753-0.046,3.398,0.577,4.761c-1.289,1.803-1.83,4.232-1.716,6.394
				c0.198,3.748,2.66,7.164,6.577,7.499c0.992,0.085,1.825-1.078,1.518-1.992c-0.179-0.533-0.371-1.067-0.564-1.604
				c0.008-0.301-0.056-0.602-0.199-0.847c-0.06-0.102-0.127-0.192-0.2-0.272c-0.304-0.865-0.574-1.738-0.799-2.617
				c2.956,4.094,8.872,11.344,15.291,13.89C506.457,166.012,505.669,154.824,505.669,149.152z"/>
			<path style="fill:#FFBE92;" d="M498.083,145.591c0,0-0.588,5.293,0.98,9.213c0,0,1.96-1.372,3.136,1.372
				c1.176,2.744-0.588,6.077-2.94,4.901l-0.196,2.352l-1.088,1.568l3.12,5.93c0,0-3.404,8.968-10.069,10.536
				c0,0-3.11-4.499-3.306-8.616c0,0,2.675-2.058,2.326-4.322c0,0-6.792,1.465-9.213-1.764c-3.529-4.705-1.372-17.643-0.784-21.171
				C480.048,145.591,494.554,147.747,498.083,145.591z"/>
			<path style="fill:#1E4B9B;" d="M488.397,172.232c0,0,0.254,4.839,3.918,5.629c3.663,0.79,8.198-8.041,8.198-8.041
				s2.33-0.776,4.04,1.198c0,0-2.244,10.83-10.96,11.926c-6.243,0.785-9.337-5.13-8.422-8.79
				C485.171,174.155,486.716,171.604,488.397,172.232z"/>
			<path style="fill:#1E4B9B;" d="M465.655,356.547l-16.118,8.859c-0.3,0.165-0.403,0.467-0.352,0.741
				c0.057,0.306,0.307,0.575,0.69,0.575h24.898c0.191,0,0.364-0.076,0.491-0.2c0.127-0.124,0.207-0.296,0.211-0.486l0.205-9.489
				H465.655z"/>
			<path style="fill:#1E4B9B;" d="M502.574,356.547l-6.719,9.056c-0.172,0.231-0.175,0.511-0.063,0.733
				c0.112,0.222,0.338,0.386,0.627,0.386h16.363c0.237,0,0.447-0.118,0.574-0.298c0.078-0.111,0.125-0.245,0.127-0.39l0.174-9.487
				H502.574z"/>
			<path style="fill:#FFBE92;" d="M525.799,250.489c0,0-2.079,6.182-1.183,8.869c0.896,2.688,7.424,1.536,8.832,0.64
				s1.785-3.072,1.785-3.072s-1.785,0.128-2.041-1.792c-0.256-1.92,0.317-4.646,0.317-4.646S529.414,248.659,525.799,250.489z"/>
			<path style="fill:#3088D8;" d="M551.633,274.567h-41.137c-0.916,0-1.727,0.448-2.227,1.137c-0.328,0.453-0.522,1.01-0.522,1.613
				v8.981h46.635v-8.981c0-0.759-0.308-1.446-0.805-1.944C553.079,274.875,552.392,274.567,551.633,274.567z"/>
		</g>
		<g>
			<g>
				<g>
					<path style="fill:#F4E808;" d="M219.949,230.792c-0.426-0.892-1.026-1.664-1.748-2.285c-1.245-1.071-2.852-1.69-4.556-1.69
						H193.11h-1.703h-20.536c-1.492,0-2.91,0.475-4.076,1.312c-0.937,0.673-1.711,1.581-2.228,2.663l-9.18,19.221h36.019h1.703
						h36.019L219.949,230.792z"/>
					<path style="fill:#F7C906;" d="M60.756,375.746h324.261v-25.373c0-5.422-1.627-10.519-4.455-14.779
						c-3.918-5.904-10.142-10.201-17.537-11.536l-54.474-9.83L271.76,261.67c-3.44-4.914-7.65-9.125-12.406-12.517
						c-8.7-6.204-19.226-9.665-30.198-9.665h-87.824c-6.795,0-13.247,1.928-18.748,5.339c-7.02,4.353-12.488,11.121-15.136,19.379
						l-13.921,43.412l-19.47,7.814c-4.823,1.936-8.924,4.973-12.095,8.726c-6.03,7.134-8.706,16.854-6.621,26.511L60.756,375.746z"
						/>
					<path style="fill:#222251;" d="M193.342,304.222v-38.295c0-3.206,1.507-6.059,3.852-7.89c1.698-1.326,3.834-2.116,6.155-2.116
						h35.641c4.361,0,8.556,1.264,12.126,3.55c2.505,1.604,4.702,3.711,6.43,6.237l22.486,32.864
						c1.97,2.879,2.192,6.203,1.157,9.047c-1.353,3.717-4.856,6.611-9.415,6.611h-68.423
						C197.823,314.229,193.342,309.749,193.342,304.222z M181.285,265.927c0-2.512-0.926-4.808-2.454-6.565
						c-1.835-2.109-4.538-3.442-7.552-3.442h-27.776c-5.281,0-10.233,1.843-14.141,5.004c-3.351,2.711-5.935,6.391-7.298,10.709
						l-9.34,29.576c-1.371,4.343,0.364,8.74,3.709,11.15c1.623,1.169,3.624,1.87,5.834,1.87h49.012
						c5.527,0,10.007-4.48,10.007-10.007V265.927z"/>
					<path style="fill:#F48908;" d="M389.002,390.02H56.581c-0.804,0-1.515-0.401-1.942-1.014c-0.268-0.383-0.424-0.85-0.424-1.353
						v-14.744c0-0.503,0.157-0.969,0.424-1.353c0.428-0.613,1.138-1.014,1.942-1.014h332.422c0.98,0,1.822,0.596,2.181,1.446
						c0.12,0.283,0.186,0.594,0.186,0.921v14.744c0,0.594-0.218,1.136-0.579,1.552C390.356,389.704,389.716,390.02,389.002,390.02z"
						/>
					<rect x="54.214" y="343.815" style="fill:#EA2A4A;" width="9.765" height="19.828"/>
					<ellipse style="fill:#F48908;" cx="374.042" cy="353.045" rx="6.153" ry="11.623"/>
					<path style="fill:#FFF5AE;" d="M372.064,342.047c-2.427,1.558-4.175,5.888-4.175,10.998s1.748,9.44,4.175,10.998
						c2.427-1.557,4.175-5.888,4.175-10.998S374.49,343.605,372.064,342.047z"/>
					<path style="opacity:0.1;fill:#FFFFFF;" d="M156.916,314.229h-16.337l-22.097-31.26l3.58-11.336
						c0.463-1.467,1.077-2.852,1.804-4.159L156.916,314.229z M130.323,314.229h3.496l-17.424-24.649l-1.08,3.419L130.323,314.229z
						 M278.998,311.147l-39.012-55.19c-0.332-0.015-0.662-0.036-0.996-0.036h-15.366l41.217,58.308h6.932
						C274.724,314.229,277.229,313.011,278.998,311.147z M181.285,276.896v-10.969c0-2.512-0.926-4.808-2.454-6.565
						c-1.835-2.109-4.538-3.442-7.553-3.442h-4.82L181.285,276.896z M216.864,255.921h-3.496l41.216,58.308h3.496L216.864,255.921z
						 M193.342,270.843v23.111l14.332,20.275h16.337L193.342,270.843z M193.342,303.517v0.705c0,4.588,3.092,8.446,7.303,9.627
						L193.342,303.517z M181.285,291.405v-4.946l-21.587-30.539h-3.496L181.285,291.405z"/>
					<rect x="199.5" y="320.137" style="fill:#F48908;" width="24.511" height="6.364"/>
					<rect x="115.316" y="320.137" style="fill:#F48908;" width="24.511" height="6.364"/>
					<path style="fill:#222251;" d="M140.165,341.445h-9.471v9.471h9.471V341.445z M149.637,350.917h-9.472v9.471h9.472V350.917z
						 M159.108,341.445h-9.471v9.471h9.471V341.445z M168.579,350.917h-9.471v9.471h9.471V350.917z M178.051,341.445h-9.471v9.471
						h9.471V341.445z M187.522,350.917h-9.471v9.471h9.471V350.917z M196.994,341.445h-9.472v9.471h9.472V341.445z M206.465,350.917
						h-9.471v9.471h9.471V350.917z M215.937,341.445h-9.471v9.471h9.471V341.445z M225.408,350.917h-9.471v9.471h9.471V350.917z
						 M234.88,341.445h-9.472v9.471h9.472V341.445z M244.352,350.917h-9.471v9.471h9.471V350.917z M253.823,341.445h-9.471v9.471
						h9.471V341.445z M263.294,350.917h-9.471v9.471h9.471V350.917z M272.766,341.445h-9.471v9.471h9.471V341.445z"/>
				</g>
				<g>
					<g>
						
							<ellipse transform="matrix(0.1764 -0.9843 0.9843 0.1764 -286.3272 426.5732)" style="fill:#222251;" cx="111.75" cy="384.392" rx="30.663" ry="30.663"/>
						
							<ellipse transform="matrix(0.2298 -0.9732 0.9732 0.2298 -288.0333 404.8379)" style="fill:#F7C906;" cx="111.751" cy="384.392" rx="20.349" ry="20.349"/>
						<circle style="fill:#EFECCA;" cx="111.751" cy="384.392" r="16.794"/>
					</g>
					<g>
						
							<ellipse transform="matrix(0.2268 -0.9739 0.9739 0.2268 -132.7755 601.541)" style="fill:#222251;" cx="312.459" cy="384.392" rx="30.663" ry="30.663"/>
						
							<ellipse transform="matrix(0.2278 -0.9737 0.9737 0.2278 -132.9969 601.0864)" style="fill:#F7C906;" cx="312.459" cy="384.392" rx="20.349" ry="20.349"/>
						<circle style="fill:#EFECCA;" cx="312.459" cy="384.392" r="16.794"/>
					</g>
				</g>
			</g>
			<g>
				<path style="fill:#1E4B9B;" d="M201.73,215.211l-26.445-26.445c-7.158-7.158-10.808-16.496-10.95-25.877
					c-0.147-9.759,3.503-19.566,10.95-27.013h0c6.943-6.943,15.936-10.585,25.03-10.927c10.037-0.378,20.197,3.265,27.86,10.927h0
					c5.841,5.841,9.346,13.134,10.515,20.716c1.754,11.378-1.751,23.409-10.515,32.174L201.73,215.211z"/>
				<circle style="fill:#FFFFFF;" cx="201.73" cy="162.241" r="20.462"/>
			</g>
		</g>
		<g>
			<path style="fill:#3088D8;" d="M638.947,257.754l-12.983-12.983c-3.514-3.514-5.306-8.098-5.375-12.704
				c-0.072-4.791,1.719-9.605,5.375-13.261h0c3.408-3.408,7.823-5.197,12.288-5.365c4.927-0.185,9.915,1.603,13.677,5.365l0,0
				c2.867,2.868,4.588,6.448,5.162,10.17c0.861,5.586-0.86,11.492-5.162,15.795L638.947,257.754z"/>
			
				<ellipse transform="matrix(0.1941 -0.981 0.981 0.1941 287.5894 813.5646)" style="fill:#FFFFFF;" cx="638.947" cy="231.749" rx="10.045" ry="10.045"/>
		</g>
	</g>
</g>
</svg>
