<?xml version="1.0" encoding="utf-8"?>
<!-- Generator: Adobe Illustrator 27.5.0, SVG Export Plug-In . SVG Version: 6.00 Build 0)  -->
<svg version="1.1" xmlns="http://www.w3.org/2000/svg" xmlns:xlink="http://www.w3.org/1999/xlink" x="0px" y="0px"
	 viewBox="0 0 750 500" style="enable-background:new 0 0 750 500;" xml:space="preserve">
<g id="BACKGROUND">
	<polygon style="fill:#FFFFFF;" points="375,0 0,0 0,250 0,500 375,500 750,500 750,250 750,0 	"/>
</g>
<g id="OBJECTS">
	<g>
		<g>
			<rect x="136.013" y="111.704" style="fill:#DFCAEF;" width="86.203" height="259.527"/>
			<rect x="92.912" y="185.289" style="fill:#DFCAEF;" width="23.768" height="247.844"/>
			<rect x="185.872" y="190.939" style="fill:#DFCAEF;" width="166.158" height="236.161"/>
			<rect x="49.988" y="303.37" style="fill:#DFCAEF;" width="202.523" height="113.039"/>
			<polygon style="fill:#DFCAEF;" points="317.467,314.121 246.322,314.121 246.322,53.079 317.467,94.872 			"/>
			<polygon style="fill:#DFCAEF;" points="298.462,286.742 265.327,286.742 265.327,25.701 298.462,67.494 			"/>
			<polygon style="fill:#DFCAEF;" points="379.513,348.363 346.377,348.363 346.377,87.321 379.513,129.115 			"/>
			<rect x="77.188" y="215.55" style="fill:#DFCAEF;" width="97.016" height="186.94"/>
			<rect x="98.137" y="134.8" style="fill:#DFCAEF;" width="6.659" height="66.668"/>
			<rect x="144.618" y="72.53" style="fill:#DFCAEF;" width="6.632" height="71.785"/>
			<rect x="172.012" y="57.922" style="fill:#DFCAEF;" width="36.638" height="70.271"/>
			<rect x="179.115" y="49.513" style="fill:#DFCAEF;" width="22.327" height="18.018"/>
			<rect x="340.101" y="144.316" style="fill:#DFCAEF;" width="18.193" height="26.44"/>
			<rect x="241.648" y="108.762" style="fill:#DFCAEF;" width="79.316" height="9.262"/>
			<rect x="360.589" y="242.924" style="fill:#DFCAEF;" width="143.749" height="117.628"/>
			<rect x="466.49" y="295.537" style="fill:#DFCAEF;" width="213.264" height="116.163"/>
			<rect x="371.621" y="215.55" style="fill:#DFCAEF;" width="15.297" height="42.246"/>
		</g>
		<g>
			<g>
				<rect x="100.592" y="263.008" style="fill:#CFAFE7;" width="57.217" height="139.628"/>
				<polygon style="fill:#CFAFE7;" points="173.226,384.867 116.009,384.867 116.009,245.239 173.226,223.734 				"/>
				<rect x="126.692" y="162.724" style="fill:#CFAFE7;" width="52.423" height="230.099"/>
				<polygon style="fill:#CFAFE7;" points="305.949,364.566 174.204,364.566 174.204,236.673 286.491,236.673 				"/>
				<rect x="254.995" y="208.251" style="fill:#CFAFE7;" width="13.955" height="64.476"/>
				<rect x="222.146" y="217.842" style="fill:#CFAFE7;" width="24.176" height="48.159"/>
				<rect x="259.947" y="176.327" style="fill:#CFAFE7;" width="2.026" height="47.407"/>
			</g>
			<rect x="152.903" y="147.094" style="fill:#CFAFE7;" width="19.109" height="36.506"/>
			<rect x="159.632" y="219.588" style="fill:#CFAFE7;" width="26.24" height="34.17"/>
			<rect x="201.442" y="222.886" style="fill:#CFAFE7;" width="5.383" height="27.114"/>
			<rect x="305.949" y="211.09" style="fill:#CFAFE7;" width="28.428" height="126.535"/>
			<rect x="558.09" y="361.895" style="fill:#CFAFE7;" width="76.81" height="38.405"/>
			<rect x="348.513" y="278.082" style="fill:#CFAFE7;" width="73.034" height="87.926"/>
			<rect x="573.6" y="274.894" style="fill:#CFAFE7;" width="27.236" height="102.806"/>
			<rect x="360.589" y="242.924" style="fill:#CFAFE7;" width="14.411" height="41.46"/>
			<rect x="320.384" y="292.824" style="fill:#CFAFE7;" width="47.886" height="47.886"/>
			<rect x="320.963" y="162.724" style="fill:#CFAFE7;" width="2.772" height="61.01"/>
			<rect x="278.51" y="252.268" style="fill:#CFAFE7;" width="38.957" height="67.342"/>
			<rect x="303.098" y="223.734" style="fill:#CFAFE7;" width="33.3" height="10.326"/>
		</g>
		<path style="fill:#B98ADC;" d="M713.209,413.6c0,26.312-151.421,47.642-338.209,47.642S36.791,439.912,36.791,413.6
			C36.791,387.288,713.209,387.288,713.209,413.6z"/>
		<path style="opacity:0.35;fill:#251360;" d="M437.2,425.086c0,8.826-78.363,15.981-175.029,15.981
			c-96.666,0-175.029-7.155-175.029-15.981C87.141,416.26,437.2,416.26,437.2,425.086z"/>
		<g>
			<path style="fill:#251360;" d="M569.7,405.957H409.907c-6.244,0-11.306-5.062-11.306-11.306V83.837
				c0-6.244,5.062-11.306,11.306-11.306H569.7c6.244,0,11.306,5.062,11.306,11.306v310.814
				C581.006,400.896,575.944,405.957,569.7,405.957z"/>
			<path style="fill:#FFFFFF;" d="M564.565,393.94H415.042c-1.969,0-3.566-1.596-3.566-3.566V98.438
				c0-1.969,1.596-3.566,3.566-3.566h149.523c1.969,0,3.566,1.596,3.566,3.566v291.936
				C568.131,392.344,566.534,393.94,564.565,393.94z"/>
			<path style="fill:#B98ADC;" d="M514.529,85.068h-49.451c-0.965,0-1.748-0.783-1.748-1.748v-1.016
				c0-0.965,0.783-1.748,1.748-1.748h49.451c0.966,0,1.748,0.783,1.748,1.748v1.016C516.277,84.286,515.494,85.068,514.529,85.068z"
				/>
			<rect x="422.643" y="111.157" style="fill:#FC9E41;" width="134.32" height="13.734"/>
			<rect x="422.643" y="137.307" style="fill:#B98ADC;" width="134.32" height="107.1"/>
			<g>
				<rect x="461.333" y="266.1" style="fill:#58C7ED;" width="95.63" height="13.734"/>
				<rect x="422.643" y="257.906" style="fill:#58C7ED;" width="30.122" height="30.122"/>
			</g>
			<g>
				<rect x="461.333" y="304.37" style="fill:#65E99A;" width="95.63" height="13.734"/>
				<rect x="422.643" y="296.176" style="fill:#65E99A;" width="30.122" height="30.122"/>
			</g>
			<g>
				<rect x="461.333" y="342.638" style="fill:#F3B185;" width="95.63" height="13.734"/>
				<rect x="422.643" y="334.445" style="fill:#F3B185;" width="30.122" height="30.122"/>
			</g>
			<rect x="523.503" y="372.593" style="fill:#251360;" width="32.039" height="12.053"/>
			<rect x="479.792" y="372.593" style="fill:#251360;" width="32.039" height="12.053"/>
			<path style="fill:#FFFFFF;" d="M489.804,149.357c-12.876,0-23.313,10.438-23.313,23.314c0,12.876,16.997,45.55,23.313,45.168
				c7.734-0.468,23.313-32.292,23.313-45.168C513.117,159.795,502.679,149.357,489.804,149.357z M489.804,185.289
				c-8.027,0-14.534-6.507-14.534-14.534c0-8.027,6.507-14.534,14.534-14.534c8.027,0,14.534,6.507,14.534,14.534
				C504.337,178.782,497.831,185.289,489.804,185.289z"/>
			<path style="opacity:0.35;fill:#251360;" d="M503.786,227.424c0-2.038-6.26-3.69-13.982-3.69s-13.982,1.652-13.982,3.69
				c0,2.038,6.26,3.69,13.982,3.69S503.786,229.462,503.786,227.424z"/>
			<path style="fill:#FFFFFF;" d="M434.863,117.92c0,2.004-1.625,3.629-3.629,3.629c-2.004,0-3.629-1.625-3.629-3.629
				c0-2.004,1.625-3.629,3.629-3.629C433.238,114.292,434.863,115.916,434.863,117.92z"/>
			<path style="fill:#FFFFFF;" d="M447.443,117.92c0,2.004-1.625,3.629-3.629,3.629c-2.004,0-3.629-1.625-3.629-3.629
				c0-2.004,1.625-3.629,3.629-3.629C445.819,114.292,447.443,115.916,447.443,117.92z"/>
			<path style="fill:#FFFFFF;" d="M437.534,321.291l-9.222-8.214c-0.798-0.711-0.869-1.935-0.158-2.734
				c0.712-0.798,1.935-0.87,2.733-0.158l5.887,5.244l7.421-11.195c0.59-0.891,1.792-1.134,2.683-0.543
				c0.891,0.59,1.135,1.792,0.544,2.683L437.534,321.291z"/>
		</g>
		<g>
			<g>
				<g>
					
						<rect x="208.65" y="272.727" transform="matrix(-1 -1.224647e-16 1.224647e-16 -1 461.134 566.0205)" style="fill:#FFFAD9;" width="43.834" height="20.567"/>
					
						<rect x="208.65" y="272.727" transform="matrix(-1 -1.224647e-16 1.224647e-16 -1 428.6062 566.0205)" style="fill:#F3E1C3;" width="11.306" height="20.567"/>
					
						<ellipse transform="matrix(0.7071 -0.7071 0.7071 0.7071 -227.433 242.5894)" style="fill:#090907;" cx="179.115" cy="395.831" rx="33.936" ry="33.936"/>
					
						<ellipse transform="matrix(0.7071 -0.7071 0.7071 0.7071 -163.6508 396.5732)" style="fill:#090907;" cx="396.881" cy="395.831" rx="33.936" ry="33.936"/>
					<path style="fill:#FCE100;" d="M456.511,411.667c0,0-281.771,0-323.729,0s-51.829,0.823-58.411-5.759
						c-6.582-6.582-14.397-27.149-16.042-36.198c-1.645-9.05,8.227-32.908,13.574-37.432c5.347-4.525,34.964-6.17,34.964-6.17
						c16.865-7.816,41.134-32.908,83.092-36.61c41.957-3.702,92.141-2.057,109.007,4.936c16.865,6.993,53.064,29.073,64.581,36.787
						c7.907,1.917,46.071,4.113,60.468,9.461c14.397,5.348,33.319,16.688,35.787,25.326
						C462.27,374.646,463.504,407.965,456.511,411.667z"/>
					<path style="fill:#3B3B39;" d="M452.809,366.008h-31.262c0,0-0.758,19.687,16.107,19.687
						C454.52,385.695,452.809,366.008,452.809,366.008z"/>
					<path style="fill:#FFFAD9;" d="M414.965,361.895c0,0-6.17-15.22-25.503-15.631c-19.333-0.411-23.447,7.816-23.447,7.816
						l25.915,7.816H414.965z"/>
					<path style="fill:#FFFAD9;" d="M446.639,361.895l3.04-7.823c0,0,5.793,3.71,7.958,7.823H446.639z"/>
					<path style="fill:#FFFAD9;" d="M410.8,390.763c0,2.799,2.269,5.068,5.068,5.068c2.799,0,5.068-2.269,5.068-5.068
						s-2.269-5.068-5.068-5.068C413.069,385.695,410.8,387.964,410.8,390.763z"/>
					
						<ellipse transform="matrix(0.7071 -0.7071 0.7071 0.7071 -164.6717 401.1014)" style="fill:#FFFAD9;" cx="401.836" cy="399.327" rx="7.507" ry="7.507"/>
					
						<ellipse transform="matrix(0.9871 -0.1602 0.1602 0.9871 -58.9365 60.5447)" style="fill:#090907;" cx="346.065" cy="395.831" rx="33.936" ry="33.936"/>
					
						<ellipse transform="matrix(0.9871 -0.1602 0.1602 0.9871 -58.9365 60.5447)" style="fill:#868686;" cx="346.065" cy="395.831" rx="18.922" ry="18.922"/>
					<circle style="fill:#BFBFBF;" cx="346.065" cy="395.831" r="5.964"/>
					
						<ellipse transform="matrix(0.9871 -0.1602 0.1602 0.9871 -61.782 25.2454)" style="fill:#090907;" cx="125.696" cy="395.831" rx="33.936" ry="33.936"/>
					
						<ellipse transform="matrix(0.9871 -0.1602 0.1602 0.9871 -61.7821 25.2454)" style="fill:#868686;" cx="125.696" cy="395.831" rx="18.922" ry="18.922"/>
					<circle style="fill:#BFBFBF;" cx="125.696" cy="395.831" r="5.964"/>
					<path style="fill:#58C7ED;" d="M306.37,340.093c0,0-44.07-42.808-58.481-44.803c-34.977-4.843-68.625-0.87-89.604,11.896
						c-24.66,15.007-38.555,30.44-38.555,30.44l1.945,6.17H306.37V340.093z"/>
					
						<rect x="206.825" y="289.582" transform="matrix(-1 -1.224647e-16 1.224647e-16 -1 421.0538 639.2194)" style="fill:#FFD900;" width="7.404" height="60.056"/>
					<g>
						<path style="fill:#D7AD00;" d="M216.589,350.749c1.132-1.889,3.194-3.158,5.557-3.158c2.363,0,4.424,1.269,5.557,3.158
							H216.589z"/>
						<path style="fill:#D7AD00;" d="M227.656,357.471c-1.142,1.847-3.179,3.081-5.51,3.081c-2.331,0-4.368-1.235-5.51-3.081
							H227.656z"/>
					</g>
					<g>
						<path style="fill:#D7AD00;" d="M154.075,350.749c1.132-1.889,3.194-3.158,5.557-3.158c2.363,0,4.424,1.269,5.557,3.158
							H154.075z"/>
						<path style="fill:#D7AD00;" d="M165.142,357.471c-1.142,1.847-3.179,3.081-5.51,3.081c-2.331,0-4.368-1.235-5.51-3.081
							H165.142z"/>
					</g>
					<path style="fill:#58C7ED;" d="M268.951,297.285l48.517,35.536l40.826-0.174c0,0-49.899-30.621-58.895-34.257L268.951,297.285z
						"/>
					<path style="fill:#FC9E41;" d="M64.793,343.795h22.331c0,0,0.752,12.026-7.475,15.216c-8.227,3.19-20.359,0.426-20.359,0.426
						S58.505,346.675,64.793,343.795z"/>
					<path style="fill:#FFFAD9;" d="M63.677,371.767c0,3.18,2.013,5.759,4.496,5.759c2.483,0,4.496-2.578,4.496-5.759
						c0-3.181-2.013-5.759-4.496-5.759C65.689,366.008,63.677,368.586,63.677,371.767z"/>
					<polygon style="fill:#FC9E41;" points="365.4,356.374 383.91,361.895 365.4,361.895 					"/>
					<path style="fill:#3B3B39;" d="M455.169,406.32h-40.204c0,0,0.532-6.993,22.213-6.993
						C458.859,399.327,455.169,406.32,455.169,406.32z"/>
					
						<text transform="matrix(0.8369 0 0 1 223.4079 284.3847)" style="font-family:'Montserrat-Bold'; font-size:11.1328px; letter-spacing:1.195;">taxi</text>
				</g>
				
					<rect x="214.229" y="340.093" transform="matrix(-1 -1.224647e-16 1.224647e-16 -1 520.5993 683.8887)" style="fill:#090907;" width="92.141" height="3.702"/>
				<polygon style="fill:#090907;" points="121.093,343.795 206.825,343.795 206.825,340.093 119.731,337.625 				"/>
			</g>
			<g>
				
					<rect x="251.506" y="357.471" transform="matrix(-1 -1.224647e-16 1.224647e-16 -1 509.9905 721.9191)" style="fill:#090907;" width="6.978" height="6.978"/>
				
					<rect x="251.506" y="371.031" transform="matrix(-1 -1.224647e-16 1.224647e-16 -1 509.9905 749.0403)" style="fill:#090907;" width="6.978" height="6.978"/>
				
					<rect x="244.529" y="364.448" transform="matrix(-1 -1.224647e-16 1.224647e-16 -1 496.0351 735.8746)" style="fill:#090907;" width="6.978" height="6.978"/>
				
					<rect x="244.529" y="377.883" transform="matrix(-1 -1.224647e-16 1.224647e-16 -1 496.0351 762.7432)" style="fill:#090907;" width="6.978" height="6.978"/>
				
					<rect x="244.529" y="391.443" transform="matrix(-1 -1.224647e-16 1.224647e-16 -1 496.0351 789.8643)" style="fill:#090907;" width="6.978" height="6.978"/>
				
					<rect x="237.551" y="384.861" transform="matrix(-1 -1.224647e-16 1.224647e-16 -1 482.0797 776.6987)" style="fill:#090907;" width="6.978" height="6.978"/>
				
					<rect x="251.506" y="384.861" transform="matrix(-1 -1.224647e-16 1.224647e-16 -1 509.9905 776.6987)" style="fill:#090907;" width="6.978" height="6.978"/>
			</g>
			
				<rect x="151.249" y="405.554" transform="matrix(-1 -1.224647e-16 1.224647e-16 -1 468.717 818.8076)" style="fill:#090907;" width="166.218" height="7.7"/>
		</g>
		<g>
			<g>
				<path style="fill:#F29F77;" d="M604.084,213.646c0,0-29.743-23.325-38.572-16.957c-8.829,6.367-4.109,19.433-4.109,19.433
					s-13.146-2.448-16.188,9.497c-3.042,11.945,5.791,18.639,5.791,18.639s-9.679,5.448-10.076,17.21
					c-0.397,11.762,9.446,16.573,9.446,16.573s-9.38,10.548,3.494,26.634c10.088,12.604,37.461,19.997,37.461,19.997
					L604.084,213.646z"/>
				<path style="fill:#F7C9AB;" d="M600.238,163.831l17.592-5.579c0,0,0.212-14.473-8.05-13.339
					C600.606,146.171,600.238,163.831,600.238,163.831z"/>
				<path style="fill:#F3B185;" d="M603.667,147.704c-9.969,4.433-19.693,34.052-0.544,76.622
					c-25.213,8.88-37.48,87.49-19.582,102.209c25.836,21.247,91.931,17.537,91.931,17.537l30.551-83.942l-32.453-12.223
					c0,0-30.594-30.065-40.275-54.159C616.351,151.578,615.592,142.401,603.667,147.704z"/>
				<path style="fill:#F29F77;" d="M617.83,240.05c0,0-27.043,57.166,11.82,80.166C608.674,280.133,617.83,240.05,617.83,240.05z"/>
				<path style="fill:#F29F77;" d="M563.761,304.37c0,0,21.029,5.659,26.165,0c5.133-5.656,2.518-14.903-9.883-19.401
					c9.883,1.07,19.035,1.907,21.965-6.403c3.513-9.962-12.697-17.66-12.697-17.66s15.443,5.676,19.363-4.488
					c3.92-10.163-14.372-21.735-14.372-21.735s17.386,5.146,19.067-5.974c2.107-13.934-32.672-29.874-32.672-29.874l-14.18,31.584
					L563.761,304.37z"/>
				<path style="fill:#F7C9AB;" d="M591.057,267.828c0,0-3.942,8.313-3.39,12.316c7.846,4.052,12.271,0.619,12.651-3.422
					C600.913,270.389,591.057,267.828,591.057,267.828z"/>
				<path style="fill:#F7C9AB;" d="M598.479,242.924c0,0-5.708,8.583-5.921,13.128c7.327,5.824,12.578,2.748,13.763-1.683
					C608.177,247.427,598.479,242.924,598.479,242.924z"/>
				<path style="fill:#F7C9AB;" d="M603.115,218.594c0,0-5.129,7.712-5.32,11.796c6.583,5.233,11.301,2.469,12.366-1.512
					C611.829,222.639,603.115,218.594,603.115,218.594z"/>
				<path style="fill:#F7C9AB;" d="M582.432,291.904c0,0-3.181,6.708-2.736,9.939c6.332,3.27,9.902,0.499,10.209-2.762
					C590.386,293.971,582.432,291.904,582.432,291.904z"/>
				<path style="fill:#E8856F;" d="M555.795,221.059c0,0-9.533,5.642-5.253,15.953C552.293,227.09,555.795,221.059,555.795,221.059z
					"/>
				<path style="fill:#E8856F;" d="M559.88,221.059c0,0-1.362,6.42-4.086,7.977C562.021,225.534,559.88,221.059,559.88,221.059z"/>
				<path style="fill:#E8856F;" d="M568.83,198.835c0,0-6.051,3.159-5.068,10.357C568.246,201.799,568.83,198.835,568.83,198.835z"
					/>
				<path style="fill:#E8856F;" d="M550.542,251.089c0,0-9.727,12.381-0.584,20.942
					C548.208,262.109,550.542,251.089,550.542,251.089z"/>
				<path style="fill:#E8856F;" d="M554.044,252.86c0,0,1.229,8.665-1.428,13.918C559.102,259.819,554.044,252.86,554.044,252.86z"
					/>
				<path style="fill:#E8856F;" d="M551.515,285.844c0,0-2.857,4.751,1.296,11.639C552.877,289.929,551.515,285.844,551.515,285.844
					z"/>
			</g>
			<polygon style="fill:#58C7ED;" points="675.766,244.318 658.272,311.291 670.909,322.821 654.946,324.671 646.3,362.593 
				694.851,366.909 713.209,249.632 			"/>
			<path style="fill:#251360;" d="M697.313,240c0.665,1.754-21.749,140.763-21.749,140.763L750,392.823V240H697.313z"/>
			<path style="fill:#FCE100;" d="M674.092,341.373c0,3.65-2.959,6.61-6.61,6.61s-6.61-2.959-6.61-6.61c0-3.65,2.959-6.61,6.61-6.61
				S674.092,337.723,674.092,341.373z"/>
			<polygon style="fill:#201342;" points="750,396.834 675.564,380.763 679.755,356.008 750,360.112 			"/>
		</g>
		<g>
			<rect x="134.253" y="173.351" style="fill:#FFFFFF;" width="5.221" height="11.939"/>
			<rect x="134.253" y="190.939" style="fill:#FFFFFF;" width="5.221" height="11.939"/>
			<rect x="134.253" y="208.528" style="fill:#FFFFFF;" width="5.221" height="11.939"/>
			<rect x="134.253" y="226.117" style="fill:#FFFFFF;" width="5.221" height="11.939"/>
			<rect x="145.323" y="173.351" style="fill:#FFFFFF;" width="5.221" height="11.939"/>
			<rect x="145.323" y="190.939" style="fill:#FFFFFF;" width="5.221" height="11.939"/>
			<rect x="145.323" y="208.528" style="fill:#FFFFFF;" width="5.221" height="11.939"/>
			<rect x="145.323" y="226.117" style="fill:#FFFFFF;" width="5.221" height="11.939"/>
		</g>
		<g>
			<rect x="265.327" y="245.421" style="fill:#FFFFFF;" width="5.221" height="11.939"/>
			<rect x="265.327" y="263.01" style="fill:#FFFFFF;" width="5.221" height="11.939"/>
			<rect x="276.397" y="245.421" style="fill:#FFFFFF;" width="5.221" height="11.939"/>
			<rect x="276.397" y="263.01" style="fill:#FFFFFF;" width="5.221" height="11.939"/>
			<rect x="134.253" y="263.01" style="fill:#FFFFFF;" width="5.221" height="11.939"/>
			<rect x="165.383" y="263.01" style="fill:#FFFFFF;" width="5.221" height="11.939"/>
			<rect x="155.198" y="263.01" style="fill:#FFFFFF;" width="5.221" height="11.939"/>
			<rect x="254.431" y="245.421" style="fill:#FFFFFF;" width="5.221" height="11.939"/>
		</g>
		<g>
			<rect x="203.9" y="117.005" style="fill:#FFFFFF;" width="3.548" height="8.113"/>
			<rect x="203.9" y="128.957" style="fill:#FFFFFF;" width="3.548" height="8.113"/>
			<rect x="203.9" y="140.909" style="fill:#FFFFFF;" width="3.548" height="8.113"/>
			<rect x="203.9" y="152.861" style="fill:#FFFFFF;" width="3.548" height="8.113"/>
			<rect x="211.423" y="117.005" style="fill:#FFFFFF;" width="3.548" height="8.113"/>
			<rect x="211.423" y="128.957" style="fill:#FFFFFF;" width="3.548" height="8.113"/>
			<rect x="211.423" y="140.909" style="fill:#FFFFFF;" width="3.548" height="8.113"/>
			<rect x="211.423" y="152.861" style="fill:#FFFFFF;" width="3.548" height="8.113"/>
			<rect x="188.278" y="117.005" style="fill:#FFFFFF;" width="3.548" height="8.113"/>
			<rect x="188.278" y="128.957" style="fill:#FFFFFF;" width="3.548" height="8.113"/>
			<rect x="188.278" y="140.909" style="fill:#FFFFFF;" width="3.548" height="8.113"/>
			<rect x="188.278" y="152.861" style="fill:#FFFFFF;" width="3.548" height="8.113"/>
			<rect x="195.801" y="117.005" style="fill:#FFFFFF;" width="3.548" height="8.113"/>
			<rect x="195.801" y="128.957" style="fill:#FFFFFF;" width="3.548" height="8.113"/>
			<rect x="195.801" y="140.909" style="fill:#FFFFFF;" width="3.548" height="8.113"/>
			<rect x="195.801" y="152.861" style="fill:#FFFFFF;" width="3.548" height="8.113"/>
			<rect x="263.841" y="84.84" style="fill:#FFFFFF;" width="3.548" height="8.113"/>
			<rect x="263.841" y="96.792" style="fill:#FFFFFF;" width="3.548" height="8.113"/>
			<rect x="271.364" y="84.84" style="fill:#FFFFFF;" width="3.548" height="8.113"/>
			<rect x="271.364" y="96.792" style="fill:#FFFFFF;" width="3.548" height="8.113"/>
			<rect x="255.742" y="84.84" style="fill:#FFFFFF;" width="3.548" height="8.113"/>
			<rect x="255.742" y="96.792" style="fill:#FFFFFF;" width="3.548" height="8.113"/>
			<rect x="263.841" y="111.029" style="fill:#FFFFFF;" width="3.548" height="8.113"/>
			<rect x="263.841" y="122.981" style="fill:#FFFFFF;" width="3.548" height="8.113"/>
			<rect x="271.364" y="111.029" style="fill:#FFFFFF;" width="3.548" height="8.113"/>
			<rect x="271.364" y="122.981" style="fill:#FFFFFF;" width="3.548" height="8.113"/>
			<rect x="255.742" y="111.029" style="fill:#FFFFFF;" width="3.548" height="8.113"/>
			<rect x="255.742" y="122.981" style="fill:#FFFFFF;" width="3.548" height="8.113"/>
			<rect x="263.841" y="137.218" style="fill:#FFFFFF;" width="3.548" height="8.113"/>
			<rect x="263.841" y="149.17" style="fill:#FFFFFF;" width="3.548" height="8.113"/>
			<rect x="271.364" y="137.218" style="fill:#FFFFFF;" width="3.548" height="8.113"/>
			<rect x="271.364" y="149.17" style="fill:#FFFFFF;" width="3.548" height="8.113"/>
			<rect x="255.742" y="137.218" style="fill:#FFFFFF;" width="3.548" height="8.113"/>
			<rect x="255.742" y="149.17" style="fill:#FFFFFF;" width="3.548" height="8.113"/>
			<rect x="363.501" y="140.909" style="fill:#FFFFFF;" width="3.548" height="8.113"/>
			<rect x="371.024" y="140.909" style="fill:#FFFFFF;" width="3.548" height="8.113"/>
			<rect x="363.501" y="153.479" style="fill:#FFFFFF;" width="3.548" height="8.113"/>
			<rect x="371.024" y="153.479" style="fill:#FFFFFF;" width="3.548" height="8.113"/>
			<rect x="363.501" y="166.05" style="fill:#FFFFFF;" width="3.548" height="8.113"/>
			<rect x="371.024" y="166.05" style="fill:#FFFFFF;" width="3.548" height="8.113"/>
			<rect x="363.501" y="178.62" style="fill:#FFFFFF;" width="3.548" height="8.113"/>
			<rect x="371.024" y="178.62" style="fill:#FFFFFF;" width="3.548" height="8.113"/>
		</g>
	</g>
</g>
</svg>
