<svg width="48" height="48" viewBox="0 0 48 48" fill="none" xmlns="http://www.w3.org/2000/svg">
<path d="M33.5005 7.12V4C33.5005 3.18 32.8205 2.5 32.0005 2.5C31.1805 2.5 30.5005 3.18 30.5005 4V7H17.5005V4C17.5005 3.18 16.8205 2.5 16.0005 2.5C15.1805 2.5 14.5005 3.18 14.5005 4V7.12C9.10046 7.62 6.48046 10.84 6.08046 15.62C6.04046 16.2 6.52046 16.68 7.08046 16.68H40.9205C41.5005 16.68 41.9805 16.18 41.9205 15.62C41.5205 10.84 38.9005 7.62 33.5005 7.12Z" fill="#1572D3"/>
<path d="M40 19.6797H8C6.9 19.6797 6 20.5797 6 21.6797V33.9997C6 39.9997 9 43.9997 16 43.9997H32C39 43.9997 42 39.9997 42 33.9997V21.6797C42 20.5797 41.1 19.6797 40 19.6797ZM18.42 36.4197C18.32 36.4997 18.22 36.5997 18.12 36.6597C18 36.7397 17.88 36.7997 17.76 36.8397C17.64 36.8997 17.52 36.9397 17.4 36.9597C17.26 36.9797 17.14 36.9997 17 36.9997C16.74 36.9997 16.48 36.9397 16.24 36.8397C15.98 36.7397 15.78 36.5997 15.58 36.4197C15.22 36.0397 15 35.5197 15 34.9997C15 34.4797 15.22 33.9597 15.58 33.5797C15.78 33.3997 15.98 33.2597 16.24 33.1597C16.6 32.9997 17 32.9597 17.4 33.0397C17.52 33.0597 17.64 33.0997 17.76 33.1597C17.88 33.1997 18 33.2597 18.12 33.3397C18.22 33.4197 18.32 33.4997 18.42 33.5797C18.78 33.9597 19 34.4797 19 34.9997C19 35.5197 18.78 36.0397 18.42 36.4197ZM18.42 29.4197C18.04 29.7797 17.52 29.9997 17 29.9997C16.48 29.9997 15.96 29.7797 15.58 29.4197C15.22 29.0397 15 28.5197 15 27.9997C15 27.4797 15.22 26.9597 15.58 26.5797C16.14 26.0197 17.02 25.8397 17.76 26.1597C18.02 26.2597 18.24 26.3997 18.42 26.5797C18.78 26.9597 19 27.4797 19 27.9997C19 28.5197 18.78 29.0397 18.42 29.4197ZM25.42 36.4197C25.04 36.7797 24.52 36.9997 24 36.9997C23.48 36.9997 22.96 36.7797 22.58 36.4197C22.22 36.0397 22 35.5197 22 34.9997C22 34.4797 22.22 33.9597 22.58 33.5797C23.32 32.8397 24.68 32.8397 25.42 33.5797C25.78 33.9597 26 34.4797 26 34.9997C26 35.5197 25.78 36.0397 25.42 36.4197ZM25.42 29.4197C25.32 29.4997 25.22 29.5797 25.12 29.6597C25 29.7397 24.88 29.7997 24.76 29.8397C24.64 29.8997 24.52 29.9397 24.4 29.9597C24.26 29.9797 24.14 29.9997 24 29.9997C23.48 29.9997 22.96 29.7797 22.58 29.4197C22.22 29.0397 22 28.5197 22 27.9997C22 27.4797 22.22 26.9597 22.58 26.5797C22.76 26.3997 22.98 26.2597 23.24 26.1597C23.98 25.8397 24.86 26.0197 25.42 26.5797C25.78 26.9597 26 27.4797 26 27.9997C26 28.5197 25.78 29.0397 25.42 29.4197ZM32.42 36.4197C32.04 36.7797 31.52 36.9997 31 36.9997C30.48 36.9997 29.96 36.7797 29.58 36.4197C29.22 36.0397 29 35.5197 29 34.9997C29 34.4797 29.22 33.9597 29.58 33.5797C30.32 32.8397 31.68 32.8397 32.42 33.5797C32.78 33.9597 33 34.4797 33 34.9997C33 35.5197 32.78 36.0397 32.42 36.4197ZM32.42 29.4197C32.32 29.4997 32.22 29.5797 32.12 29.6597C32 29.7397 31.88 29.7997 31.76 29.8397C31.64 29.8997 31.52 29.9397 31.4 29.9597C31.26 29.9797 31.12 29.9997 31 29.9997C30.48 29.9997 29.96 29.7797 29.58 29.4197C29.22 29.0397 29 28.5197 29 27.9997C29 27.4797 29.22 26.9597 29.58 26.5797C29.78 26.3997 29.98 26.2597 30.24 26.1597C30.6 25.9997 31 25.9597 31.4 26.0397C31.52 26.0597 31.64 26.0997 31.76 26.1597C31.88 26.1997 32 26.2597 32.12 26.3397C32.22 26.4197 32.32 26.4997 32.42 26.5797C32.78 26.9597 33 27.4797 33 27.9997C33 28.5197 32.78 29.0397 32.42 29.4197Z" fill="#1572D3"/>
</svg>
