<svg width="47" height="47" viewBox="0 0 47 47" fill="none" xmlns="http://www.w3.org/2000/svg">
<path d="M36.17 32.9591L36.9338 39.1474C37.1296 40.7728 35.3867 41.9087 33.9963 41.0666L27.2204 37.0324C26.7504 36.7582 26.6329 36.1707 26.8875 35.7007C27.8667 33.8991 28.3954 31.8624 28.3954 29.8257C28.3954 22.6582 22.2463 16.8224 14.6871 16.8224C13.14 16.8224 11.6321 17.0574 10.2221 17.5274C9.49753 17.7624 8.79253 17.0966 8.96878 16.3524C10.7509 9.22408 17.605 3.91699 25.7909 3.91699C35.3475 3.91699 43.0829 11.1432 43.0829 20.0537C43.0829 25.3412 40.3609 30.0216 36.17 32.9591Z" fill="#1572D3"/>
<path d="M25.4587 29.8256C25.4587 32.156 24.597 34.3102 23.1478 36.0139C21.2091 38.3639 18.1345 39.8718 14.6878 39.8718L9.57658 42.9073C8.71491 43.436 7.61824 42.7114 7.73574 41.7127L8.22533 37.8548C5.60116 36.0335 3.91699 33.1156 3.91699 29.8256C3.91699 26.3789 5.75783 23.3435 8.57783 21.5418C10.3207 20.406 12.4162 19.7598 14.6878 19.7598C20.6412 19.7598 25.4587 24.2639 25.4587 29.8256Z" fill="#1572D3"/>
</svg>
