<svg width="50" height="50" viewBox="0 0 50 50" fill="none" xmlns="http://www.w3.org/2000/svg">
<path d="M19.1813 15.792C18.038 15.792 17.1396 16.7107 17.1396 17.8337C17.1396 18.9566 18.0584 19.8753 19.1813 19.8753C20.3042 19.8753 21.223 18.9566 21.223 17.8337C21.223 16.7107 20.3042 15.792 19.1813 15.792Z" fill="#1572D3"/>
<path d="M44.3138 10.7897C42.5988 6.80842 38.8218 4.58301 33.5543 4.58301H16.4451C9.89134 4.58301 4.58301 9.89134 4.58301 16.4451V33.5543C4.58301 38.8218 6.80842 42.5988 10.7897 44.3138C11.1776 44.4772 11.6268 44.3751 11.9126 44.0893L44.0893 11.9126C44.3955 11.6063 44.4976 11.1572 44.3138 10.7897ZM21.9984 25.4897C21.2022 26.2655 20.1609 26.633 19.1197 26.633C18.0784 26.633 17.0372 26.2451 16.2409 25.4897C14.1584 23.5297 11.8718 20.4059 12.7497 16.6901C13.5255 13.3213 16.5063 11.8105 19.1197 11.8105C21.733 11.8105 24.7138 13.3213 25.4897 16.7105C26.3472 20.4059 24.0605 23.5297 21.9984 25.4897Z" fill="#1572D3"/>
<path d="M40.251 42.4149C40.7002 42.8641 40.6389 43.5991 40.0877 43.9054C38.291 44.9058 36.1064 45.4162 33.5543 45.4162H16.4452C15.8531 45.4162 15.6081 44.722 16.0164 44.3137L28.3481 31.982C28.7564 31.5737 29.3893 31.5737 29.7977 31.982L40.251 42.4149Z" fill="#1572D3"/>
<path d="M45.4171 16.4452V33.5543C45.4171 36.1064 44.9067 38.3114 43.9063 40.0877C43.6 40.6389 42.865 40.6797 42.4158 40.251L31.9625 29.7977C31.5542 29.3893 31.5542 28.7564 31.9625 28.3481L44.2942 16.0164C44.7229 15.6081 45.4171 15.8531 45.4171 16.4452Z" fill="#1572D3"/>
</svg>
