<svg width="48" height="48" viewBox="0 0 48 48" fill="none" xmlns="http://www.w3.org/2000/svg">
<path d="M41.2395 17.4C39.1595 8.14 31.0795 4 23.9995 4C23.9995 4 23.9995 4 23.9795 4C16.9195 4 8.8595 8.14 6.7595 17.38C4.3995 27.7 10.7195 36.44 16.4395 41.96C18.5595 44 21.2795 45.02 23.9995 45.02C26.7195 45.02 29.4395 44 31.5395 41.96C37.2595 36.44 43.5795 27.72 41.2395 17.4ZM30.5595 19.06L22.5595 27.06C22.2595 27.36 21.8795 27.5 21.4995 27.5C21.1195 27.5 20.7395 27.36 20.4395 27.06L17.4395 24.06C16.8595 23.48 16.8595 22.52 17.4395 21.94C18.0195 21.36 18.9795 21.36 19.5595 21.94L21.4995 23.88L28.4395 16.94C29.0195 16.36 29.9795 16.36 30.5595 16.94C31.1395 17.52 31.1395 18.48 30.5595 19.06Z" fill="#1572D3"/>
</svg>
